<svg preserveAspectRatio="none" width="100%" height="100%" overflow="visible" style="display: block;" viewBox="0 0 18 18" fill="none" xmlns="http://www.w3.org/2000/svg">
<g id="bi:youtube">
<path id="Vector" d="M13.6939 2.82C12.9965 2.03953 12.6121 1.0374 12.6122 0H9.45918V12.4C9.43537 13.0712 9.14645 13.7071 8.65337 14.1735C8.1603 14.6399 7.50163 14.9004 6.81633 14.9C5.36735 14.9 4.16327 13.74 4.16327 12.3C4.16327 10.58 5.85714 9.29 7.60204 9.82V6.66C4.08163 6.2 1 8.88 1 12.3C1 15.63 3.81633 18 6.80612 18C10.0102 18 12.6122 15.45 12.6122 12.3V6.01C13.8908 6.90985 15.4259 7.39265 17 7.39V4.3C17 4.3 15.0816 4.39 13.6939 2.82Z" fill="var(--fill-0, #161616)"/>
</g>
</svg>
