<svg preserveAspectRatio="none" width="100%" height="100%" overflow="visible" style="display: block;" viewBox="0 0 18 18" fill="none" xmlns="http://www.w3.org/2000/svg">
<g id="bxl:linkedin">
<path id="Vector" d="M3.7328 5.39138C4.6391 5.39138 5.3738 4.65667 5.3738 3.75037C5.3738 2.84408 4.6391 2.10938 3.7328 2.10938C2.8265 2.10938 2.0918 2.84408 2.0918 3.75037C2.0918 4.65667 2.8265 5.39138 3.7328 5.39138Z" fill="var(--fill-0, #161616)"/>
<path id="Vector_2" d="M6.92779 6.64102V15.7453H9.75454V11.243C9.75454 10.055 9.97804 8.90452 11.451 8.90452C12.9038 8.90452 12.9218 10.2628 12.9218 11.318V15.746H15.75V10.7533C15.75 8.30077 15.222 6.41602 12.3555 6.41602C10.9793 6.41602 10.0568 7.17127 9.67954 7.88602H9.64129V6.64102H6.92779ZM2.32129 6.64102H5.15254V15.7453H2.32129V6.64102Z" fill="var(--fill-0, #161616)"/>
</g>
</svg>
