<svg preserveAspectRatio="none" width="100%" height="100%" overflow="visible" style="display: block;" viewBox="0 0 18 18" fill="none" xmlns="http://www.w3.org/2000/svg">
<g id="bxl:instagram-alt">
<path id="Vector" d="M15.7105 6.22835C15.7034 5.66027 15.5971 5.09781 15.3963 4.56635C15.223 4.11773 14.9577 3.71031 14.6177 3.37023C14.2776 3.03015 13.8702 2.76494 13.4215 2.5916C12.8968 2.39454 12.3424 2.28802 11.782 2.2766C11.0605 2.24435 10.8318 2.23535 9.0003 2.23535C7.1688 2.23535 6.93405 2.23535 6.2178 2.2766C5.65766 2.28811 5.10353 2.39462 4.57905 2.5916C4.13043 2.76494 3.723 3.03015 3.38292 3.37023C3.04285 3.71031 2.77763 4.11773 2.6043 4.56635C2.40757 5.09088 2.30131 5.645 2.29005 6.2051C2.2578 6.92735 2.24805 7.1561 2.24805 8.9876C2.24805 10.8191 2.24805 11.0531 2.29005 11.7701C2.3013 12.3311 2.40705 12.8846 2.6043 13.4104C2.7778 13.8589 3.04317 14.2662 3.38338 14.6062C3.72359 14.9461 4.13111 15.2112 4.5798 15.3844C5.10294 15.589 5.6571 15.7032 6.21855 15.7219C6.9408 15.7541 7.16955 15.7639 9.00105 15.7639C10.8325 15.7639 11.0673 15.7639 11.7835 15.7219C12.3439 15.7107 12.8983 15.6044 13.423 15.4076C13.8712 15.2335 14.2782 14.968 14.6182 14.628C14.9582 14.288 15.2237 13.881 15.3978 13.4329C15.595 12.9079 15.7008 12.3544 15.712 11.7926C15.7443 11.0711 15.754 10.8424 15.754 9.0101C15.7525 7.1786 15.7525 6.9461 15.7105 6.22835ZM8.9958 12.4511C7.0803 12.4511 5.52855 10.8994 5.52855 8.98385C5.52855 7.06835 7.0803 5.5166 8.9958 5.5166C9.91537 5.5166 10.7973 5.8819 11.4475 6.53214C12.0977 7.18237 12.463 8.06428 12.463 8.98385C12.463 9.90342 12.0977 10.7853 11.4475 11.4356C10.7973 12.0858 9.91537 12.4511 8.9958 12.4511ZM12.601 6.19685C12.4948 6.19695 12.3897 6.17611 12.2915 6.13551C12.1934 6.09491 12.1042 6.03536 12.0291 5.96027C11.954 5.88517 11.8945 5.796 11.8539 5.69787C11.8133 5.59973 11.7924 5.49455 11.7925 5.38835C11.7925 5.28223 11.8135 5.17714 11.8541 5.0791C11.8947 4.98105 11.9542 4.89196 12.0292 4.81692C12.1043 4.74188 12.1934 4.68235 12.2914 4.64174C12.3895 4.60113 12.4945 4.58023 12.6007 4.58023C12.7068 4.58023 12.8119 4.60113 12.9099 4.64174C13.008 4.68235 13.0971 4.74188 13.1721 4.81692C13.2471 4.89196 13.3067 4.98105 13.3473 5.0791C13.3879 5.17714 13.4088 5.28223 13.4088 5.38835C13.4088 5.83535 13.0473 6.19685 12.601 6.19685Z" fill="var(--fill-0, #161616)"/>
<path id="Vector_2" d="M9.00225 11.2369C10.2461 11.2369 11.2545 10.2286 11.2545 8.98467C11.2545 7.74079 10.2461 6.73242 9.00225 6.73242C7.75837 6.73242 6.75 7.74079 6.75 8.98467C6.75 10.2286 7.75837 11.2369 9.00225 11.2369Z" fill="var(--fill-0, #161616)"/>
</g>
</svg>
