<svg preserveAspectRatio="none" width="100%" height="100%" overflow="visible" style="display: block;" viewBox="0 0 53.7334 53.7334" fill="none" xmlns="http://www.w3.org/2000/svg">
<g id="Icon">
<mask id="mask0_0_30" style="mask-type:luminance" maskUnits="userSpaceOnUse" x="0" y="0" width="54" height="54">
<g id="Group">
<g id="Group_2">
<path id="Vector" d="M26.8667 52.8667C41.2265 52.8667 52.8667 41.2265 52.8667 26.8667C52.8667 12.5069 41.2265 0.866667 26.8667 0.866667C12.5069 0.866667 0.866667 12.5069 0.866667 26.8667C0.866667 41.2265 12.5069 52.8667 26.8667 52.8667Z" fill="var(--fill-0, white)" stroke="var(--stroke-0, white)" stroke-width="1.73333" stroke-linejoin="round"/>
<path id="Vector_2" d="M21.6665 26.867V19.3617C21.6665 18.6945 22.3887 18.2775 22.9665 18.6111L29.4665 22.3638L35.9664 26.1164C36.5442 26.45 36.5442 27.284 35.9664 27.6175L29.4665 31.3702L22.9665 35.1229C22.3887 35.4564 21.6665 35.0395 21.6665 34.3723V26.867Z" fill="var(--fill-0, black)" stroke="var(--stroke-0, black)" stroke-width="1.73333" stroke-linejoin="round"/>
</g>
</g>
</mask>
<g mask="url(#mask0_0_30)">
<path id="Vector_3" d="M-4.33353 -4.33304H58.0666V58.067H-4.33353V-4.33304Z" fill="url(#paint0_linear_0_30)"/>
</g>
</g>
<defs>
<linearGradient id="paint0_linear_0_30" x1="-4.33353" y1="26.867" x2="58.0666" y2="26.867" gradientUnits="userSpaceOnUse">
<stop stop-color="#53F2AA"/>
<stop offset="1" stop-color="#43FFF9"/>
</linearGradient>
</defs>
</svg>
