<svg width="28" height="23" viewBox="0 0 28 23" fill="none" xmlns="http://www.w3.org/2000/svg">
<path d="M0 1C0 0.447715 0.447715 0 1 0H27C27.5523 0 28 0.447715 28 1V3.5C28 4.05228 27.5523 4.5 27 4.5H1C0.447715 4.5 0 4.05228 0 3.5V1ZM0 10.25C0 9.69771 0.447715 9.25 1 9.25H27C27.5523 9.25 28 9.69771 28 10.25V12.75C28 13.3023 27.5523 13.75 27 13.75H1C0.447715 13.75 0 13.3023 0 12.75V10.25ZM0 19.5C0 18.9477 0.447715 18.5 1 18.5H27C27.5523 18.5 28 18.9477 28 19.5V22C28 22.5523 27.5523 23 27 23H1C0.447715 23 0 22.5523 0 22V19.5Z" fill="white"/>
</svg>
