<svg width="59" height="47" viewBox="0 0 59 47" fill="none" xmlns="http://www.w3.org/2000/svg">
<path d="M13.828 15.1873H0.315581C0.0996867 15.1873 -0.0527094 15.4035 0.0171388 15.607L9.34505 41.8541L15.6695 23.9829C16.1521 22.6219 16.1521 21.1337 15.6695 19.7727L14.1201 15.3971C14.0757 15.2699 13.955 15.1873 13.8217 15.1873H13.828Z" fill="white"/>
<path d="M41.7548 0H29.5758C29.3599 0 29.2075 0.216235 29.2774 0.41975L45.6409 46.7703C45.6854 46.8975 45.806 46.9802 45.9394 46.9802H58.1247C58.3406 46.9802 58.493 46.7639 58.4231 46.5604L42.0533 0.209875C42.0088 0.082678 41.8882 0 41.7548 0Z" fill="white"/>
<path d="M32.5854 20.0906L26.9341 4.08927C26.8325 3.80944 26.4388 3.80944 26.3436 4.08927L25.9499 5.19588L21.2891 18.3862L11.3198 46.5603C11.25 46.7638 11.396 46.9801 11.6183 46.9801H25.1307C25.2641 46.9801 25.3847 46.8974 25.4292 46.7702L33.068 25.1849C33.4935 23.9765 33.4935 22.66 33.068 21.4517L32.6743 20.3514L32.5854 20.0906Z" fill="#53F2AA"/>
</svg>
