<svg width="181" height="54" viewBox="0 0 181 54" fill="none" xmlns="http://www.w3.org/2000/svg">
<g clip-path="url(#clip0_15665_16535)">
<path d="M13.4467 16.3914H0.30927C0.0941234 16.3914 -0.0537899 16.6065 0.0134434 16.7948L9.0765 42.3165L15.2216 24.9434C15.6923 23.6257 15.6923 22.1734 15.2216 20.8557L13.7156 16.6065C13.6753 16.4855 13.5542 16.4048 13.4198 16.4048L13.4467 16.3914Z" fill="white"/>
<path d="M40.5957 1.62695H28.7492C28.5341 1.62695 28.3862 1.8421 28.4534 2.03035L44.3608 47.0901C44.4011 47.2112 44.5222 47.2918 44.6566 47.2918H56.5031C56.7183 47.2918 56.8662 47.0767 56.799 46.8884L40.8781 1.8421C40.8378 1.72108 40.7167 1.6404 40.5823 1.6404L40.5957 1.62695Z" fill="white"/>
<path d="M31.6803 21.165L26.1806 5.60722C26.0864 5.33828 25.6965 5.33828 25.6024 5.60722L25.2259 6.68295L20.6943 19.5111L10.9993 46.9019C10.932 47.1036 11.08 47.3053 11.2951 47.3053H24.4325C24.567 47.3053 24.6745 47.2247 24.7283 47.1036L32.1509 26.1134C32.5677 24.9435 32.5677 23.6526 32.1509 22.4828L31.7744 21.4071L31.6937 21.1516L31.6803 21.165Z" fill="#53F2AA"/>
<path d="M74.7539 1.62695L68.1919 21.5684H71.6208L73.0596 16.8755H80.7107L82.1361 21.5684H85.5784L79.0165 1.62695H74.7673H74.7539ZM75.6145 8.53854L76.8112 4.03391H76.9188L78.1424 8.53854L79.8771 14.1593H73.8933L75.6279 8.53854H75.6145Z" fill="white"/>
<path d="M90.5402 11.5372C90.7015 11.1203 90.9436 10.7707 91.2932 10.4749C91.6428 10.1925 92.0193 9.97734 92.4362 9.84287C92.853 9.7084 93.2295 9.62772 93.5926 9.62772C93.8884 9.62772 94.2111 9.64117 94.5607 9.68151C94.9104 9.7084 95.2465 9.77564 95.5558 9.88321V6.42742C95.3944 6.38708 95.2331 6.34674 95.0448 6.33329C94.8566 6.31984 94.6818 6.3064 94.4935 6.3064C93.7405 6.3064 93.0951 6.46776 92.5706 6.77703C92.0462 7.0863 91.6159 7.5166 91.2798 8.02757C90.9436 8.55199 90.6881 9.11675 90.5133 9.7353C90.4326 10.0042 90.3788 10.2597 90.325 10.5152L90.083 6.60222H87.313V21.5684H90.5536V11.5372H90.5402Z" fill="white"/>
<path d="M104.041 21.7566C104.605 21.7432 105.13 21.6894 105.6 21.6087V18.8521C105.318 18.8521 105.009 18.8656 104.659 18.879C104.31 18.879 103.933 18.879 103.516 18.879C102.871 18.879 102.44 18.7715 102.212 18.5698C101.983 18.3546 101.862 17.9916 101.862 17.4537V9.41259H105.627V6.60223H101.862V2.31274H99.3881L98.6888 6.60223H96.6987V9.41259H99.415C99.1729 9.47982 98.9847 9.62773 98.8502 9.86977C98.7292 10.1118 98.6619 10.3807 98.6619 10.69V18.2605C98.6619 19.39 98.9981 20.264 99.657 20.8692C100.316 21.4743 101.244 21.7835 102.44 21.7835C102.938 21.7835 103.476 21.7835 104.041 21.7566Z" fill="white"/>
<path d="M108.142 21.5684H111.383L111.423 6.61572H108.142V21.5684Z" fill="white"/>
<path d="M109.809 4.38361C110.387 4.38361 110.885 4.18191 111.302 3.76507C111.719 3.34822 111.92 2.81035 111.92 2.16491C111.92 1.51947 111.719 1.0085 111.302 0.6051C110.885 0.2017 110.387 0 109.809 0C109.231 0 108.707 0.2017 108.303 0.6051C107.886 1.0085 107.685 1.53292 107.685 2.16491C107.685 2.79691 107.886 3.34822 108.303 3.76507C108.72 4.18191 109.217 4.38361 109.809 4.38361Z" fill="white"/>
<path d="M125.986 19.4572C126.524 18.7042 126.766 17.7899 126.739 16.741H123.659C123.659 17.2385 123.538 17.6554 123.269 18.005C123.001 18.3546 122.678 18.6235 122.301 18.8118C121.925 19.0001 121.575 19.0942 121.252 19.0942C119.881 19.0942 118.872 18.6639 118.227 17.8167C117.582 16.9696 117.259 15.6922 117.259 13.971C117.259 12.465 117.528 11.2682 118.066 10.3807C118.603 9.49326 119.504 9.04952 120.782 9.06296C121.252 9.06296 121.669 9.1302 122.032 9.25122C122.395 9.38568 122.678 9.56049 122.92 9.78908C123.162 10.0177 123.323 10.3001 123.444 10.6362C123.565 10.9724 123.633 11.3354 123.633 11.7388H126.739C126.779 10.7303 126.564 9.81598 126.12 9.00918C125.676 8.18893 125.004 7.54349 124.103 7.04596C123.202 6.56188 122.086 6.3064 120.768 6.3064C119.451 6.3064 118.254 6.61567 117.232 7.22077C116.21 7.82587 115.403 8.71335 114.825 9.85632C114.247 11.0127 113.964 12.3977 113.964 14.0248C113.964 15.6518 114.247 16.9293 114.811 18.0991C115.376 19.269 116.183 20.1834 117.245 20.8288C118.308 21.4877 119.572 21.8104 121.064 21.8104C122.073 21.8104 123.014 21.6087 123.888 21.1919C124.762 20.775 125.475 20.1968 126.013 19.4303L125.986 19.4572Z" fill="white"/>
<path d="M74.7539 27.364L68.1919 47.3054H71.6208L73.0596 42.6125H80.7107L82.1361 47.3054H85.5784L79.0165 27.364H74.7673H74.7539ZM75.6145 34.2756L76.8112 29.771H76.9188L78.1424 34.2756L79.8771 39.8963H73.8933L75.6279 34.2756H75.6145Z" fill="white"/>
<path d="M94.9106 32.03C93.8214 32.03 92.9609 32.2586 92.302 32.7158C91.6565 33.173 91.159 33.7646 90.8363 34.5042C90.5942 35.0555 90.4329 35.6337 90.3119 36.2388L90.0698 32.3393H87.2998V47.3054H90.5404V36.9112C90.7825 36.4136 91.1724 35.9565 91.7238 35.5665C92.2751 35.1631 92.8936 34.9749 93.5659 34.9749C94.1845 34.9749 94.682 35.0959 95.0585 35.3245C95.435 35.5531 95.704 35.9296 95.8788 36.454C96.0536 36.9784 96.1343 37.6642 96.1343 38.5248V47.3189H99.3749V37.4087C99.3749 35.5934 98.985 34.2487 98.2051 33.3747C97.4251 32.4872 96.336 32.0569 94.9106 32.0569V32.03Z" fill="white"/>
<path d="M112.284 33.173C111.759 32.7696 111.168 32.4737 110.495 32.3124C109.823 32.1376 109.11 32.0569 108.344 32.0569C107.066 32.0569 105.95 32.2586 105.023 32.6485C104.081 33.0519 103.382 33.657 102.911 34.4907C102.441 35.3244 102.253 36.3733 102.36 37.6641H105.305C105.318 36.8708 105.439 36.2657 105.655 35.8488C105.87 35.432 106.192 35.1496 106.609 35.0017C107.026 34.8538 107.551 34.7731 108.169 34.7731C109.137 34.7731 109.823 35.0286 110.226 35.5396C110.63 36.0505 110.831 36.8036 110.831 37.8255V38.4306C110.536 38.4441 110.105 38.4844 109.541 38.5382C108.989 38.592 108.384 38.6592 107.725 38.7399C107.066 38.8206 106.448 38.9281 105.87 39.0492C105.049 39.2374 104.337 39.4929 103.718 39.8425C103.113 40.1921 102.642 40.6493 102.333 41.2141C102.01 41.7923 101.849 42.5184 101.849 43.4059C101.849 44.2127 102.051 44.9253 102.441 45.5304C102.844 46.149 103.395 46.6196 104.095 46.9692C104.794 47.3189 105.614 47.4802 106.515 47.4802C107.806 47.4802 108.801 47.144 109.5 46.4852C110.2 45.8128 110.643 44.9791 110.818 43.9572L110.778 47.3189H113.951V37.5297C113.951 36.4539 113.803 35.553 113.494 34.8538C113.198 34.1546 112.781 33.5898 112.257 33.1864L112.284 33.173ZM110.845 42.9756C110.751 43.3924 110.509 43.7555 110.146 44.0782C109.769 44.3875 109.352 44.6295 108.855 44.7909C108.371 44.9522 107.887 45.0329 107.403 45.0329C107.04 45.0329 106.717 44.9522 106.408 44.8043C106.098 44.643 105.843 44.4278 105.655 44.132C105.466 43.8362 105.372 43.4866 105.372 43.0832C105.372 42.3839 105.601 41.8595 106.044 41.5099C106.502 41.1603 107.241 40.8913 108.263 40.6762C108.626 40.609 109.043 40.5148 109.541 40.4342C110.038 40.34 110.468 40.2728 110.831 40.2459V42.989L110.845 42.9756Z" fill="white"/>
<path d="M120.661 25.9656H117.42V47.3054H120.661V25.9656Z" fill="white"/>
<path d="M130.517 39.1835L129.267 44.1184H129.146L127.761 39.1701L126.053 32.3391H122.463L127.344 47.3053H128.42C128.245 47.386 128.097 47.5204 127.976 47.7221C127.855 47.9238 127.747 48.2197 127.64 48.6231C127.559 48.9592 127.425 49.2551 127.25 49.4837C127.075 49.7257 126.806 49.9005 126.443 50.0215C126.08 50.1425 125.569 50.1963 124.91 50.1963H123.727V53.2084H124.91C125.811 53.2084 126.591 53.0739 127.236 52.7915C127.882 52.5226 128.433 52.1192 128.877 51.6082C129.321 51.0973 129.724 50.4787 130.06 49.7391C130.396 49.013 130.719 48.1928 131.002 47.2784L135.815 32.3123H132.252L130.544 39.1566L130.517 39.1835Z" fill="white"/>
<path d="M141.974 28.0498H139.499L138.8 32.3393H136.81V35.1497H139.526C139.284 35.2169 139.096 35.3648 138.962 35.6069C138.841 35.8489 138.773 36.1178 138.773 36.4271V43.9976C138.773 45.1271 139.109 46.0011 139.768 46.6062C140.427 47.2113 141.355 47.5206 142.552 47.5206C143.049 47.5206 143.587 47.5206 144.152 47.4937C144.717 47.4803 145.241 47.4265 145.712 47.3458V44.5892C145.429 44.5892 145.12 44.6027 144.77 44.6027C144.421 44.6027 144.044 44.6027 143.628 44.6027C142.982 44.6027 142.552 44.4951 142.323 44.2934C142.095 44.0783 141.974 43.7152 141.974 43.1773V35.1362H145.739V32.3259H141.974V28.0364V28.0498Z" fill="white"/>
<path d="M148.253 47.3055H151.494L151.534 32.3394H148.253V47.3055Z" fill="white"/>
<path d="M149.921 25.7371C149.33 25.7371 148.819 25.9388 148.415 26.3422C147.999 26.7456 147.797 27.27 147.797 27.902C147.797 28.534 147.999 29.0853 148.415 29.5021C148.832 29.919 149.33 30.1207 149.921 30.1207C150.513 30.1207 150.997 29.919 151.414 29.5021C151.831 29.0853 152.033 28.5474 152.033 27.902C152.033 27.2565 151.831 26.7456 151.414 26.3422C150.997 25.9388 150.5 25.7371 149.921 25.7371Z" fill="white"/>
<path d="M160.866 34.8C161.337 34.8 161.754 34.8673 162.117 34.9883C162.48 35.1228 162.762 35.2976 163.004 35.5262C163.233 35.7548 163.408 36.0371 163.529 36.3733C163.65 36.7095 163.717 37.0725 163.717 37.4759H166.823C166.864 36.4674 166.648 35.5531 166.205 34.7328C165.761 33.9126 165.089 33.2671 164.188 32.7696C163.287 32.2855 162.171 32.03 160.853 32.03C159.535 32.03 158.338 32.3393 157.316 32.9444C156.294 33.5495 155.488 34.437 154.909 35.5799C154.331 36.7364 154.049 38.1214 154.049 39.7484C154.049 41.3755 154.331 42.6529 154.896 43.8228C155.461 44.9926 156.268 45.907 157.33 46.5524C158.392 47.2113 159.656 47.534 161.135 47.534C162.144 47.534 163.085 47.3323 163.959 46.9155C164.833 46.4986 165.546 45.9204 166.084 45.154C166.621 44.401 166.864 43.4866 166.837 42.4378H163.757C163.757 42.9353 163.636 43.3521 163.367 43.7017C163.098 44.0514 162.776 44.3203 162.399 44.5085C162.023 44.6968 161.673 44.7909 161.35 44.7909C159.979 44.7909 158.97 44.3606 158.325 43.5135C157.679 42.6663 157.357 41.3889 157.357 39.6677C157.357 38.1617 157.626 36.965 158.164 36.0775C158.701 35.19 159.602 34.7463 160.88 34.7597L160.866 34.8Z" fill="white"/>
<path d="M179.961 34.8403C179.665 34.1411 179.248 33.5764 178.724 33.173C178.199 32.7696 177.608 32.4737 176.935 32.3124C176.263 32.1376 175.55 32.0569 174.784 32.0569C173.506 32.0569 172.39 32.2586 171.462 32.6485C170.521 33.0519 169.822 33.657 169.351 34.4907C168.881 35.3244 168.692 36.3733 168.8 37.6641H171.745C171.758 36.8708 171.879 36.2657 172.094 35.8488C172.31 35.432 172.632 35.1496 173.049 35.0017C173.466 34.8538 173.99 34.7731 174.609 34.7731C175.577 34.7731 176.263 35.0286 176.666 35.5396C177.07 36.0505 177.271 36.8036 177.271 37.8255V38.4306C176.976 38.4441 176.545 38.4844 175.981 38.5382C175.429 38.592 174.824 38.6592 174.165 38.7399C173.506 38.8206 172.888 38.9281 172.31 39.0492C171.489 39.2374 170.777 39.4929 170.158 39.8425C169.553 40.1921 169.082 40.6493 168.773 41.2141C168.45 41.7923 168.289 42.5184 168.289 43.4059C168.289 44.2127 168.491 44.9253 168.881 45.5304C169.284 46.149 169.835 46.6196 170.535 46.9692C171.234 47.3189 172.054 47.4802 172.955 47.4802C174.246 47.4802 175.241 47.144 175.94 46.4852C176.639 45.8128 177.083 44.9791 177.258 43.9572L177.218 47.3189H180.391V37.5297C180.391 36.4539 180.243 35.553 179.934 34.8538L179.961 34.8403ZM177.285 42.9756C177.191 43.3924 176.949 43.7555 176.586 44.0782C176.209 44.3875 175.792 44.6295 175.295 44.7909C174.811 44.9522 174.327 45.0329 173.843 45.0329C173.479 45.0329 173.157 44.9522 172.847 44.8043C172.538 44.643 172.283 44.4278 172.094 44.132C171.906 43.8362 171.812 43.4866 171.812 43.0832C171.812 42.3839 172.041 41.8595 172.484 41.5099C172.928 41.1603 173.681 40.8913 174.703 40.6762C175.066 40.609 175.483 40.5148 175.981 40.4342C176.478 40.34 176.908 40.2728 177.271 40.2459V42.989L177.285 42.9756Z" fill="white"/>
</g>
<defs>
<clipPath id="clip0_15665_16535">
<rect width="180.132" height="53.2085" fill="white"/>
</clipPath>
</defs>
</svg>
