<svg width="48" height="48" viewBox="0 0 48 48" fill="none" xmlns="http://www.w3.org/2000/svg">
<path fill-rule="evenodd" clip-rule="evenodd" d="M10 18C10 14.287 11.475 10.726 14.1005 8.1005C16.726 5.475 20.287 4 24 4C27.713 4 31.274 5.475 33.8995 8.1005C36.525 10.726 38 14.287 38 18V30C38 31.8385 37.6379 33.659 36.9343 35.3576C36.2308 37.0561 35.1995 38.5995 33.8995 39.8995C32.5995 41.1995 31.0561 42.2307 29.3576 42.9343C27.659 43.6379 25.8385 44 24 44C22.1615 44 20.341 43.6379 18.6424 42.9343C16.9439 42.2307 15.4005 41.1995 14.1005 39.8995C12.8005 38.5995 11.7693 37.0561 11.0657 35.3576C10.3621 33.659 10 31.8385 10 30V18ZM26 14C26 13.4696 25.7893 12.9609 25.4142 12.5858C25.0391 12.2107 24.5304 12 24 12C23.4696 12 22.9609 12.2107 22.5858 12.5858C22.2107 12.9609 22 13.4696 22 14V22C22 22.5304 22.2107 23.0391 22.5858 23.4142C22.9609 23.7893 23.4696 24 24 24C24.5304 24 25.0391 23.7893 25.4142 23.4142C25.7893 23.0391 26 22.5304 26 22V14Z" fill="#53F2AA"/>
<rect x="21.1763" y="11.2939" width="5.64706" height="14.1176" fill="#53F2AA"/>
<rect x="21.1763" y="11.2939" width="5.64706" height="14.1176" rx="2.82353" fill="#161616"/>
</svg>
