<svg preserveAspectRatio="none" width="100%" height="100%" overflow="visible" style="display: block;" viewBox="0 0 33 33" fill="none" xmlns="http://www.w3.org/2000/svg">
<g id="ri:brain-line">
<path id="Vector" d="M5.58416 14.5501C5.50482 14.4769 5.44812 14.3825 5.42077 14.2781C5.39342 14.1737 5.39657 14.0636 5.42985 13.9609C5.46313 13.8582 5.52514 13.7672 5.60854 13.6987C5.69194 13.6301 5.79324 13.5869 5.90043 13.5742L12.6821 12.77C12.7782 12.7588 12.8698 12.7231 12.9481 12.6663C13.0265 12.6095 13.0889 12.5336 13.1294 12.4458L15.9894 6.24465C16.0346 6.14668 16.1069 6.06372 16.1978 6.00556C16.2887 5.94741 16.3943 5.9165 16.5022 5.9165C16.6101 5.9165 16.7158 5.94741 16.8066 6.00556C16.8975 6.06372 16.9698 6.14668 17.015 6.24465L19.875 12.4458C19.9155 12.5335 19.9777 12.6093 20.0558 12.666C20.1339 12.7228 20.2253 12.7586 20.3212 12.77L27.1029 13.5742C27.2101 13.5869 27.3114 13.6301 27.3948 13.6987C27.4782 13.7672 27.5402 13.8582 27.5735 13.9609C27.6068 14.0636 27.6099 14.1737 27.5826 14.2781C27.5552 14.3825 27.4985 14.4769 27.4192 14.5501L22.4063 19.1868C22.3357 19.2525 22.283 19.3351 22.2534 19.4268C22.2237 19.5186 22.218 19.6164 22.2369 19.7109L23.5663 26.4091C23.5875 26.515 23.5778 26.6248 23.5385 26.7254C23.4992 26.8259 23.4318 26.9132 23.3445 26.9766C23.2571 27.0401 23.1533 27.0772 23.0455 27.0835C22.9377 27.0898 22.8303 27.0651 22.7361 27.0123L16.7778 23.6767C16.6936 23.6296 16.5987 23.6049 16.5022 23.6049C16.4057 23.6049 16.3108 23.6296 16.2266 23.6767L10.2672 27.0111C10.1731 27.0639 10.0659 27.0886 9.95818 27.0823C9.85048 27.076 9.74685 27.039 9.65952 26.9757C9.57219 26.9123 9.50482 26.8253 9.46539 26.7249C9.42596 26.6245 9.4161 26.5149 9.437 26.4091L10.7676 19.7109C10.7864 19.6164 10.7808 19.5186 10.7511 19.4268C10.7214 19.3351 10.6688 19.2525 10.5982 19.1868L5.58416 14.5501Z" stroke="var(--stroke-0, #DCDCDC)" stroke-width="2.25907" stroke-linecap="round" stroke-linejoin="round"/>
</g>
</svg>
