<svg preserveAspectRatio="none" width="100%" height="100%" overflow="visible" style="display: block;" viewBox="0 0 27.0617 26.4466" fill="none" xmlns="http://www.w3.org/2000/svg">
<g id="Group">
<path id="Vector" d="M13.5309 8.61055C20.3244 8.61055 25.8316 6.95837 25.8316 4.92031C25.8316 2.88225 20.3244 1.23008 13.5309 1.23008C6.73733 1.23008 1.23008 2.88225 1.23008 4.92031C1.23008 6.95837 6.73733 8.61055 13.5309 8.61055Z" stroke="var(--stroke-0, #DCDCDC)" stroke-width="2.46016" stroke-linecap="round" stroke-linejoin="round"/>
<path id="Vector_2" d="M5.39389 7.68789C2.84148 8.36443 1.23008 9.35342 1.23008 10.4556C1.23008 12.4938 6.73714 14.1458 13.5309 14.1458C20.3246 14.1458 25.8316 12.4938 25.8316 10.4556C25.8316 9.35342 24.2209 8.36443 21.6678 7.68789" stroke="var(--stroke-0, #DCDCDC)" stroke-width="2.46016" stroke-linecap="round" stroke-linejoin="round"/>
<path id="Vector_3" d="M5.39389 13.2232C2.84148 13.8998 1.23008 14.8888 1.23008 15.9909C1.23008 18.0292 6.73714 19.6812 13.5309 19.6812C20.3246 19.6812 25.8316 18.0292 25.8316 15.9909C25.8316 14.8888 24.2209 13.8998 21.6678 13.2232" stroke="var(--stroke-0, #DCDCDC)" stroke-width="2.46016" stroke-linecap="round" stroke-linejoin="round"/>
<path id="Vector_4" d="M5.39389 18.7586C2.84148 19.4351 1.23008 20.4241 1.23008 21.5263C1.23008 23.5645 6.73714 25.2165 13.5309 25.2165C20.3246 25.2165 25.8316 23.5645 25.8316 21.5263C25.8316 20.4241 24.2209 19.4351 21.6678 18.7586C19.4992 19.333 16.6503 19.6812 13.5309 19.6812C10.4114 19.6812 7.56314 19.333 5.39389 18.7586Z" stroke="var(--stroke-0, #DCDCDC)" stroke-width="2.46016" stroke-linecap="round" stroke-linejoin="round"/>
</g>
</svg>
