<svg preserveAspectRatio="none" width="100%" height="100%" overflow="visible" style="display: block;" viewBox="0 0 33 33" fill="none" xmlns="http://www.w3.org/2000/svg">
<g id="ri:brain-line">
<path id="Vector" fill-rule="evenodd" clip-rule="evenodd" d="M24.75 4.29977C24.3599 2.55976 21.8933 2.56976 21.5192 4.31177L21.4772 4.50578L22.4555 4.71578L21.4752 4.50578C21.2606 5.5375 20.7433 6.48186 19.9893 7.21823C19.2353 7.95459 18.2789 8.44953 17.2422 8.63981C15.4497 8.95781 15.4497 11.5458 17.2422 11.8638C18.2787 12.0535 19.2352 12.5477 19.9895 13.2833C20.7439 14.0189 21.2618 14.9626 21.4772 15.9939L21.5172 16.1879C21.8933 17.9279 24.3579 17.9419 24.75 16.2019L24.8 15.9759C25.0248 14.9477 25.5484 14.0089 26.305 13.2773C27.0617 12.5457 28.0177 12.054 29.0531 11.8638C30.8495 11.5458 30.8495 8.95381 29.0531 8.63581C28.0174 8.44601 27.0609 7.95442 26.3039 7.2228C25.5468 6.49118 25.0229 5.55217 24.798 4.52378L24.75 4.29977ZM16.8921 4.04377C14.569 2.89412 11.8911 2.68747 9.41903 3.46707C6.94696 4.24667 4.87236 5.95208 3.62952 8.2263C2.38667 10.5005 2.07194 13.1672 2.7512 15.6682C3.43047 18.1692 5.05106 20.3105 7.27375 21.6439V23.8319C7.27375 24.4223 7.50833 24.9885 7.92589 25.406C8.34344 25.8234 8.90977 26.058 9.50029 26.058H15.3597C15.6521 26.058 15.9416 26.0004 16.2118 25.8885C16.4819 25.7766 16.7274 25.6127 16.9341 25.406C17.1409 25.1993 17.3049 24.9539 17.4168 24.6838C17.5287 24.4137 17.5863 24.1243 17.5863 23.8319V21.6479C18.4585 21.1279 19.2447 20.4799 19.9188 19.7279C20.1359 19.4804 20.2465 19.1572 20.2266 18.8286C20.2068 18.5 20.0581 18.1926 19.8128 17.9729C19.5676 17.7533 19.2456 17.6392 18.9167 17.6555C18.5879 17.6718 18.2787 17.8171 18.0564 18.0599C17.4145 18.7728 16.6434 19.3578 15.7838 19.7839C15.5749 19.8875 15.3988 20.0471 15.2752 20.2448C15.1516 20.4426 15.0853 20.6707 15.0837 20.9039V23.5599H9.77436V20.9059C9.7733 20.6734 9.70789 20.4456 9.58537 20.248C9.46285 20.0503 9.28801 19.8904 9.08019 19.7859C7.31115 18.8848 5.96913 17.3223 5.34562 15.4378C4.7221 13.5533 4.86745 11.4989 5.75008 9.72091C6.63271 7.94289 8.18134 6.58482 10.0596 5.94164C11.9379 5.29847 13.9942 5.42214 15.7818 6.28579C16.0786 6.43027 16.4205 6.45155 16.7329 6.34499C17.0453 6.23842 17.3029 6.01266 17.4495 5.71695C17.5961 5.42125 17.6197 5.07959 17.5153 4.76651C17.4109 4.45344 17.1868 4.19235 16.8921 4.04377ZM8.64408 28.5C8.31248 28.5 7.99446 28.6317 7.75998 28.8661C7.5255 29.1005 7.39378 29.4185 7.39378 29.75C7.39378 30.0815 7.5255 30.3995 7.75998 30.6339C7.99446 30.8683 8.31248 31 8.64408 31H16.1459C16.4775 31 16.7955 30.8683 17.03 30.6339C17.2645 30.3995 17.3962 30.0815 17.3962 29.75C17.3962 29.4185 17.2645 29.1005 17.03 28.8661C16.7955 28.6317 16.4775 28.5 16.1459 28.5H8.64408Z" fill="var(--fill-0, #DCDCDC)"/>
</g>
</svg>
