<svg preserveAspectRatio="none" width="100%" height="100%" overflow="visible" style="display: block;" viewBox="0 0 33 33" fill="none" xmlns="http://www.w3.org/2000/svg">
<g id="ri:brain-line">
<path id="Vector" d="M12.375 5.50034C13.1044 5.50034 13.8038 5.79007 14.3195 6.3058C14.8353 6.82152 15.125 7.521 15.125 8.25034V17.6375C13.8958 16.6887 12.3283 16.1291 10.538 15.8321L10.087 18.5436C11.9845 18.8598 13.1959 19.4607 13.9425 20.2692C14.6713 21.0585 15.125 22.23 15.125 24.0628C15.125 24.9745 14.7628 25.8489 14.1182 26.4935C13.4735 27.1382 12.5992 27.5003 11.6875 27.5003C10.7758 27.5003 9.90148 27.1382 9.25683 26.4935C8.61217 25.8489 8.25001 24.9745 8.25001 24.0628V23.5816C8.84126 23.7782 9.45451 23.9391 10.087 24.0436L10.538 21.3321C9.51638 21.1616 8.49063 20.7821 7.46488 20.2953C6.87678 20.0165 6.37992 19.5765 6.03208 19.0264C5.68425 18.4762 5.49974 17.8387 5.5 17.1878C5.5 16.0397 5.786 15.1363 6.26863 14.4736C6.743 13.8191 7.48276 13.2966 8.58413 13.0216L9.62501 12.7603V8.25034C9.62501 7.521 9.91474 6.82152 10.4305 6.3058C10.9462 5.79007 11.6457 5.50034 12.375 5.50034ZM16.5 4.61209C15.761 3.7742 14.7844 3.1812 13.7002 2.91203C12.6159 2.64285 11.4753 2.71026 10.4303 3.10528C9.38527 3.5003 8.48532 4.2042 7.85021 5.12331C7.21509 6.04242 6.87494 7.13315 6.875 8.25034V10.6896C5.70488 11.1598 4.74513 11.8913 4.04388 12.8552C3.1515 14.0831 2.75 15.586 2.75 17.1878C2.74872 18.2057 2.99911 19.2081 3.4789 20.1058C3.9587 21.0035 4.653 21.7686 5.5 22.3331V24.0628C5.49984 25.3425 5.89641 26.5906 6.63509 27.6355C7.37377 28.6804 8.41824 29.4705 9.62463 29.8971C10.831 30.3237 12.14 30.3658 13.3713 30.0176C14.6027 29.6694 15.6957 28.948 16.5 27.9527C17.3043 28.948 18.3974 29.6694 19.6287 30.0176C20.86 30.3658 22.169 30.3237 23.3754 29.8971C24.5818 29.4705 25.6262 28.6804 26.3649 27.6355C27.1036 26.5906 27.5002 25.3425 27.5 24.0628V22.3331C28.347 21.7686 29.0413 21.0035 29.5211 20.1058C30.0009 19.2081 30.2513 18.2057 30.25 17.1878C30.25 15.586 29.8485 14.0831 28.9561 12.8566C28.2549 11.8913 27.2951 11.1598 26.125 10.6896V8.25034C26.1251 7.13315 25.7849 6.04242 25.1498 5.12331C24.5147 4.2042 23.6147 3.5003 22.5697 3.10528C21.5247 2.71026 20.3841 2.64285 19.2998 2.91203C18.2156 3.1812 17.239 3.7742 16.5 4.61209ZM24.75 23.5802V24.0628C24.75 24.9745 24.3878 25.8489 23.7432 26.4935C23.0985 27.1382 22.2242 27.5003 21.3125 27.5003C20.4008 27.5003 19.5265 27.1382 18.8818 26.4935C18.2372 25.8489 17.875 24.9745 17.875 24.0628C17.875 22.23 18.3288 21.0585 19.0575 20.2678C19.8041 19.4607 21.0155 18.8598 22.913 18.5436L22.462 15.8321C20.6718 16.1291 19.1043 16.6887 17.875 17.6375V8.25034C17.875 7.521 18.1647 6.82152 18.6805 6.3058C19.1962 5.79007 19.8957 5.50034 20.625 5.50034C21.3544 5.50034 22.0538 5.79007 22.5695 6.3058C23.0853 6.82152 23.375 7.521 23.375 8.25034V12.7603L24.4173 13.0216C25.5173 13.2966 26.257 13.8191 26.7314 14.4736C27.214 15.1363 27.5 16.0411 27.5 17.1878C27.5 18.5615 26.6998 19.7412 25.5338 20.2953C24.5094 20.7821 23.4823 21.1616 22.462 21.3321L22.913 24.0436C23.5363 23.9363 24.1504 23.7814 24.75 23.5802Z" fill="var(--fill-0, #DCDCDC)"/>
</g>
</svg>
