<svg preserveAspectRatio="none" width="100%" height="100%" overflow="visible" style="display: block;" viewBox="0 0 33 33" fill="none" xmlns="http://www.w3.org/2000/svg">
<g id="ri:brain-line" clip-path="url(#clip0_0_76)">
<path id="Vector" d="M32.9816 12.793L29.6917 6.05564C29.5705 5.80766 29.4028 5.58655 29.1981 5.40493C28.9934 5.2233 28.7557 5.08473 28.4987 4.99712C28.2417 4.90951 27.9703 4.87459 27.7001 4.89433C27.4299 4.91407 27.1661 4.98811 26.9238 5.1122L23.7177 6.75234L16.9638 4.92351C16.7905 4.87735 16.6085 4.87735 16.4352 4.92351L9.68126 6.75234L6.4751 5.1122C6.23285 4.98811 5.96908 4.91407 5.69886 4.89433C5.42865 4.87459 5.15728 4.90951 4.90026 4.99712C4.64324 5.08473 4.40559 5.2233 4.2009 5.40493C3.9962 5.58655 3.82846 5.80766 3.70726 6.05564L0.417313 12.7917C0.296075 13.0397 0.223745 13.3096 0.204455 13.5862C0.185165 13.8628 0.219291 14.1405 0.304886 14.4036C0.390481 14.6667 0.525867 14.9099 0.703313 15.1194C0.880759 15.3289 1.09679 15.5006 1.33907 15.6247L4.81981 17.4073L11.9734 22.6365C12.0789 22.7131 12.1973 22.7691 12.3228 22.8014L20.5734 24.9126C20.7462 24.957 20.9273 24.9548 21.099 24.9062C21.2707 24.8577 21.4272 24.7644 21.5532 24.6355L26.7098 19.3575L28.6539 17.3677L32.0599 15.6247C32.5489 15.3741 32.9206 14.9351 33.0935 14.4041C33.2663 13.8732 33.2261 13.2937 32.9816 12.793ZM25.9054 17.1962L21.4694 13.5596C21.2707 13.3967 21.0201 13.3148 20.7659 13.3297C20.5117 13.3446 20.2719 13.4551 20.0926 13.6401C17.7966 16.0073 15.2376 15.7078 13.6055 14.6522L19.1798 9.11029H23.2807L26.7885 16.2897L25.9054 17.1962ZM20.5077 22.7196L13.015 20.8024L6.67235 16.1657L10.282 8.77645L16.6995 7.03603L17.9629 7.37778L12.1616 13.1414L12.1513 13.1532C11.9329 13.3768 11.7664 13.6476 11.6639 13.9458C11.5615 14.244 11.5258 14.562 11.5594 14.8762C11.5931 15.1904 11.6953 15.4929 11.8584 15.7613C12.0215 16.0297 12.2414 16.2571 12.502 16.4269C15.1525 18.1594 18.3509 17.8784 20.8699 15.7672L24.4345 18.6978L20.5077 22.7196ZM17.1919 27.3115C17.1362 27.5396 17.0077 27.7422 16.8267 27.8871C16.6457 28.0319 16.4226 28.1108 16.1928 28.1111C16.1081 28.1112 16.0237 28.1005 15.9414 28.0794L10.5643 26.7032C10.4387 26.6714 10.3201 26.6155 10.215 26.5383L6.81802 24.055C6.60915 23.8871 6.47159 23.6433 6.43398 23.3742C6.39638 23.1051 6.46162 22.8316 6.61613 22.6105C6.77064 22.3895 7.0025 22.2379 7.26344 22.1875C7.52438 22.137 7.79428 22.1915 8.01695 22.3396L11.254 24.7068L16.4416 26.0316C16.7069 26.0995 16.935 26.2725 17.0757 26.5125C17.2164 26.7525 17.2582 27.0399 17.1919 27.3115Z" fill="var(--fill-0, #DCDCDC)"/>
</g>
<defs>
<clipPath id="clip0_0_76">
<rect width="33" height="33" fill="white"/>
</clipPath>
</defs>
</svg>
