<svg width="547" height="317" viewBox="0 0 547 317" fill="none" xmlns="http://www.w3.org/2000/svg">
<g opacity="0.5" style="mix-blend-mode:multiply">
<path d="M587.26 0H387.988C384.455 0 381.962 3.54306 383.105 6.8777L650.844 766.342C651.571 768.426 653.545 769.781 655.727 769.781H855.103C858.635 769.781 861.129 766.238 859.986 762.903L592.143 3.43885C591.415 1.3547 589.441 0 587.26 0Z" fill="#161694"/>
</g>
<path opacity="0.5" d="M437.234 329.191L344.767 67.0051C343.105 62.42 336.663 62.42 335.105 67.0051L328.663 85.1372L252.404 301.264L89.2878 762.903C88.145 766.237 90.5346 769.781 94.1709 769.781H315.261C317.443 769.781 319.417 768.426 320.144 766.342L445.13 412.661C452.091 392.862 452.091 371.291 445.13 351.492L438.689 333.464L437.234 329.191Z" fill="#84F6C3"/>
</svg>
