<svg preserveAspectRatio="none" width="100%" height="100%" overflow="visible" style="display: block;" viewBox="0 0 1091.86 879" fill="none" xmlns="http://www.w3.org/2000/svg">
<g id="Group" opacity="0.15">
<path id="Vector" d="M258.355 284.152H5.89614C1.86249 284.152 -0.984792 288.198 0.320211 292.006L174.598 783.089L292.76 448.719C301.776 423.255 301.776 395.41 292.76 369.946L263.812 288.079C262.982 285.699 260.728 284.152 258.236 284.152H258.355Z" fill="var(--fill-0, #C4C4C4)"/>
<path id="Vector_2" d="M780.118 0H552.573C548.54 0 545.692 4.04576 546.997 7.85353L852.724 875.073C853.554 877.453 855.809 879 858.3 879H1085.96C1090 879 1092.84 874.954 1091.54 871.146L785.694 3.92676C784.864 1.54691 782.61 0 780.118 0Z" fill="var(--fill-0, #C4C4C4)"/>
<path id="Vector_3" opacity="0.5" d="M608.808 375.898L503.221 76.5118C501.323 71.2761 493.967 71.2761 492.188 76.5118L484.832 97.2166L397.753 344.008L211.493 871.146C210.188 874.954 212.917 878.999 217.069 878.999H469.528C472.02 878.999 474.274 877.453 475.104 875.073L617.824 471.211C625.773 448.602 625.773 423.971 617.824 401.362L610.468 380.776L608.808 375.898Z" fill="var(--fill-0, #505050)"/>
</g>
</svg>
