<svg width="826" height="489" viewBox="0 0 826 489" fill="none" xmlns="http://www.w3.org/2000/svg">
<g opacity="0.15">
<path d="M258.355 219.152H5.89614C1.86249 219.152 -0.984792 223.198 0.320211 227.006L174.598 718.089L292.76 383.719C301.776 358.255 301.776 330.411 292.76 304.946L263.812 223.079C262.982 220.699 260.728 219.152 258.236 219.152H258.355Z" fill="#C4C4C4"/>
<path d="M780.119 -65H552.574C548.54 -65 545.693 -60.9542 546.998 -57.1465L852.725 810.073C853.555 812.453 855.809 814 858.301 814H1085.96C1090 814 1092.85 809.954 1091.54 806.146L785.695 -61.0732C784.865 -63.4531 782.61 -65 780.119 -65Z" fill="#C4C4C4"/>
<path opacity="0.5" d="M608.809 310.898L503.222 11.5117C501.324 6.27604 493.969 6.27604 492.189 11.5117L484.834 32.2165L397.754 279.008L211.495 806.146C210.19 809.954 212.918 813.999 217.071 813.999H469.53C472.021 813.999 474.275 812.452 475.105 810.073L617.825 406.211C625.774 383.602 625.774 358.971 617.825 336.362L610.47 315.776L608.809 310.898Z" fill="#C4C4C4"/>
</g>
</svg>
