<svg width="369" height="372" viewBox="0 0 369 372" fill="none" xmlns="http://www.w3.org/2000/svg">
<g opacity="0.81">
<path d="M372.573 0H180.04C176.627 0 174.218 3.42325 175.322 6.64513L434.007 740.428C434.71 742.442 436.617 743.751 438.725 743.751H631.359C634.772 743.751 637.181 740.328 636.077 737.106L377.291 3.32256C376.589 1.30889 374.681 0 372.573 0Z" fill="#161694"/>
<path opacity="0.5" d="M227.621 318.059L138.281 64.7391C136.674 60.309 130.451 60.309 128.945 64.7391L122.721 82.258L49.0406 291.076L-108.56 737.105C-109.664 740.327 -107.355 743.751 -103.842 743.751H109.772C111.88 743.751 113.787 742.442 114.49 740.428L235.25 398.707C241.976 379.577 241.976 358.736 235.25 339.606L229.026 322.188L227.621 318.059Z" fill="#4747DC"/>
</g>
</svg>
