<svg preserveAspectRatio="none" width="100%" height="100%" overflow="visible" style="display: block;" viewBox="0 0 1030.74 1361.78" fill="none" xmlns="http://www.w3.org/2000/svg">
<g id="Group" style="mix-blend-mode:overlay" opacity="0.53">
<path id="Vector" d="M437.192 402.378H9.97753C3.15173 402.378 -1.66648 409.21 0.541867 415.64L293.568 1239.62C294.199 1241.39 296.709 1241.39 297.338 1239.61L495.413 680.28C510.67 637.278 510.67 590.258 495.413 547.256L446.427 409.009C445.022 404.99 441.208 402.378 436.992 402.378H437.192Z" fill="var(--fill-0, #2020D3)"/>
<path id="Vector_2" d="M1005.4 512.2L826.722 6.63112C823.51 -2.2103 811.063 -2.2103 808.052 6.63112L795.605 41.595L648.248 458.348L333.056 1348.52C330.848 1354.95 335.465 1361.78 342.492 1361.78H769.707C773.923 1361.78 777.737 1359.17 779.143 1355.15L1020.66 673.154C1034.11 634.975 1034.11 593.38 1020.66 555.201L1008.21 520.439L1005.4 512.2Z" fill="var(--fill-0, #53F2AA)"/>
</g>
</svg>
