<svg preserveAspectRatio="none" width="100%" height="100%" overflow="visible" style="display: block;" viewBox="0 0 50 50" fill="none" xmlns="http://www.w3.org/2000/svg">
<g id="ic:sharp-policy">
<path id="Vector" d="M17.1573 24.4939C19.3046 24.4939 21.364 23.6408 22.8824 22.1225C24.4008 20.6041 25.2538 18.5447 25.2538 16.3974C25.2538 14.2501 24.4008 12.1907 22.8824 10.6723C21.364 9.15392 19.3046 8.3009 17.1573 8.3009C15.01 8.3009 12.9506 9.15392 11.4322 10.6723C9.91382 12.1907 9.0608 14.2501 9.0608 16.3974C9.0608 18.5447 9.91382 20.6041 11.4322 22.1225C12.9506 23.6408 15.01 24.4939 17.1573 24.4939ZM35.3744 24.4939C36.9849 24.4939 38.5294 23.8541 39.6682 22.7153C40.807 21.5765 41.4467 20.032 41.4467 18.4215C41.4467 16.811 40.807 15.2665 39.6682 14.1277C38.5294 12.9889 36.9849 12.3491 35.3744 12.3491C33.7639 12.3491 32.2194 12.9889 31.0806 14.1277C29.9418 15.2665 29.302 16.811 29.302 18.4215C29.302 20.032 29.9418 21.5765 31.0806 22.7153C32.2194 23.8541 33.7639 24.4939 35.3744 24.4939ZM7.79573 27.53C6.78917 27.53 5.82384 27.9299 5.1121 28.6416C4.40035 29.3534 4.0005 30.3187 4.0005 31.3253V32.5904C4.0005 32.5904 4.0005 41.6989 17.1573 41.6989C30.3141 41.6989 30.3141 32.5904 30.3141 32.5904V31.3253C30.3141 30.3187 29.9142 29.3534 29.2025 28.6416C28.4907 27.9299 27.5254 27.53 26.5188 27.53H7.79573ZM29.9841 38.7528C31.3767 39.3175 33.1408 39.6748 35.3734 39.6748C46 39.6748 46 31.5783 46 31.5783V31.3253C46 30.3189 45.6003 29.3537 44.8888 28.642C44.1772 27.9303 43.2122 27.5303 42.2058 27.53H30.9284C31.8383 28.585 32.338 29.9322 32.3362 31.3253V32.6359L32.3352 32.6936L32.3291 32.8454C32.3237 32.9621 32.3119 33.1072 32.2937 33.2806C32.2429 33.7325 32.1618 34.1805 32.0508 34.6216C31.667 36.1312 30.9621 37.5404 29.9841 38.7528Z" fill="var(--fill-0, #53F2AA)"/>
</g>
</svg>
