<svg preserveAspectRatio="none" width="100%" height="100%" overflow="visible" style="display: block;" viewBox="0 0 50 50" fill="none" xmlns="http://www.w3.org/2000/svg">
<g id="ic:sharp-policy">
<path id="Vector" fill-rule="evenodd" clip-rule="evenodd" d="M36.9271 6.8504C36.3698 4.3638 32.8457 4.37809 32.3112 6.86755L32.2512 7.14479L33.6488 7.44489L32.2483 7.14479C31.9418 8.61919 31.2027 9.96875 30.1254 11.0211C29.0482 12.0734 27.6817 12.7807 26.2005 13.0526C23.6396 13.507 23.6396 17.2055 26.2005 17.6599C27.6814 17.931 29.048 18.6372 30.1257 19.6884C31.2035 20.7397 31.9434 22.0883 32.2512 23.562L32.3084 23.8393C32.8457 26.3259 36.3669 26.3459 36.9271 23.8593L36.9986 23.5363C37.3197 22.067 38.0678 20.7254 39.1489 19.6799C40.2299 18.6344 41.5959 17.9317 43.075 17.6599C45.6417 17.2055 45.6417 13.5013 43.075 13.0469C41.5953 12.7756 40.2288 12.0731 39.1472 11.0276C38.0655 9.98206 37.317 8.64016 36.9957 7.17051L36.9271 6.8504ZM25.7003 6.48455C22.3812 4.84163 18.5552 4.54631 15.0233 5.66041C11.4914 6.77451 8.52738 9.21165 6.75169 12.4617C4.97601 15.7117 4.52634 19.5226 5.49682 23.0966C6.4673 26.6707 8.7827 29.7308 11.9583 31.6363V34.7631C11.9583 35.6068 12.2935 36.416 12.89 37.0125C13.4866 37.6091 14.2957 37.9443 15.1394 37.9443H23.511C23.9287 37.9443 24.3424 37.862 24.7283 37.7021C25.1143 37.5422 25.465 37.3079 25.7604 37.0125C26.0558 36.7171 26.2901 36.3664 26.4499 35.9805C26.6098 35.5945 26.6921 35.1809 26.6921 34.7631V31.642C27.9382 30.8989 29.0615 29.9729 30.0247 28.8982C30.3348 28.5444 30.4928 28.0826 30.4644 27.6131C30.4361 27.1435 30.2236 26.7041 29.8733 26.3902C29.5229 26.0763 29.0628 25.9133 28.593 25.9366C28.1231 25.9599 27.6814 26.1675 27.3638 26.5145C26.4466 27.5333 25.345 28.3692 24.1169 28.9782C23.8184 29.1263 23.5668 29.3544 23.3902 29.6369C23.2136 29.9195 23.1189 30.2456 23.1165 30.5788V34.3744H15.531V30.5817C15.5295 30.2493 15.436 29.9239 15.261 29.6414C15.0859 29.3589 14.8361 29.1304 14.5392 28.9811C12.0117 27.6934 10.0944 25.4605 9.20354 22.7674C8.3127 20.0743 8.52036 17.1385 9.7814 14.5976C11.0424 12.0567 13.255 10.1159 15.9386 9.19674C18.6222 8.2776 21.56 8.45433 24.114 9.68855C24.5381 9.89502 25.0265 9.92543 25.4729 9.77314C25.9193 9.62085 26.2873 9.29823 26.4967 8.87564C26.7061 8.45306 26.7399 7.9648 26.5907 7.5174C26.4415 7.06999 26.1214 6.69688 25.7003 6.48455ZM13.9161 41.4341C13.4424 41.4341 12.988 41.6223 12.653 41.9573C12.318 42.2923 12.1298 42.7466 12.1298 43.2204C12.1298 43.6942 12.318 44.1485 12.653 44.4836C12.988 44.8186 13.4424 45.0068 13.9161 45.0068H24.6342C25.108 45.0068 25.5624 44.8186 25.8974 44.4836C26.2324 44.1485 26.4206 43.6942 26.4206 43.2204C26.4206 42.7466 26.2324 42.2923 25.8974 41.9573C25.5624 41.6223 25.108 41.4341 24.6342 41.4341H13.9161Z" fill="var(--fill-0, #53F2AA)"/>
</g>
</svg>
