<svg preserveAspectRatio="none" width="100%" height="100%" overflow="visible" style="display: block;" viewBox="0 0 50 50" fill="none" xmlns="http://www.w3.org/2000/svg">
<g id="ic:sharp-policy">
<path id="Vector" fill-rule="evenodd" clip-rule="evenodd" d="M33.0805 6.80122C33.6039 4.40963 37.0107 4.39533 37.5571 6.78405L37.58 6.89562L37.6315 7.11876C38.2608 9.79069 40.4204 11.8304 43.1293 12.3024C45.6236 12.7373 45.6236 16.3189 43.1293 16.7537C41.7992 16.9868 40.5674 17.6069 39.588 18.5366C38.6085 19.4662 37.925 20.6641 37.6229 21.9803L37.5542 22.2721C37.0107 24.6608 33.6068 24.6465 33.0805 22.255L33.0261 22.0032C32.7374 20.6812 32.0612 19.4751 31.084 18.5391C30.1068 17.6031 28.8729 16.9795 27.5398 16.748C25.0512 16.3161 25.0512 12.7401 27.5398 12.3081C28.8681 12.0776 30.0981 11.4578 31.0738 10.5273C32.0495 9.59684 32.727 8.39758 33.0204 7.08157L33.0604 6.89276L33.0805 6.80122ZM35.16 27.164C33.7976 27.1347 32.4959 26.5945 31.5129 25.6507C31.2993 25.7955 31.1117 25.9754 30.958 26.1828C29.6708 27.8878 28.1633 29.63 26.4585 31.3321C25.1656 32.6252 23.8555 33.8009 22.5626 34.8508C21.2696 33.8009 19.9595 32.6252 18.6666 31.3321C17.4284 30.0949 16.2541 28.7954 15.1483 27.4386C16.198 26.1427 17.3766 24.8353 18.6666 23.5423C20.2752 21.9233 21.9957 20.4196 23.8154 19.0423C24.0036 18.9044 24.1695 18.7384 24.3074 18.5503C23.7637 18.0544 23.328 17.4517 23.0278 16.7798C22.7276 16.1079 22.5692 15.3813 22.5626 14.6454C19.7565 12.68 16.9818 11.2239 14.5047 10.4658C11.8215 9.6448 8.67504 9.42452 6.61265 11.4843C5.27682 12.8231 4.91354 14.6425 5.01651 16.3733C5.11949 18.1069 5.70016 20.0121 6.57832 21.946C7.47128 23.8717 8.5409 25.7105 9.77346 27.4386C8.54121 29.165 7.47159 31.0018 6.57832 32.9255C5.70016 34.8594 5.11949 36.7647 5.01651 38.4983C4.91354 40.2319 5.27396 42.0484 6.61265 43.3844C7.95134 44.7232 9.7706 45.0866 11.5012 44.9836C13.2318 44.8777 15.1397 44.2999 17.0733 43.4216C18.8182 42.6263 20.6747 41.5478 22.5654 40.2262C24.4533 41.5478 26.3069 42.6292 28.0546 43.4216C29.9855 44.2999 31.8934 44.8806 33.6268 44.9836C35.3603 45.0866 37.1738 44.7232 38.5125 43.3844C40.5749 41.3247 40.3546 38.1779 39.5337 35.4945C38.7499 32.937 37.2253 30.0619 35.16 27.164ZM13.2489 14.5653C14.8965 15.0688 16.8617 16.0243 18.9899 17.4089C16.6661 19.3802 14.5078 21.5387 12.5367 23.8627C11.7618 22.683 11.0753 21.4476 10.4829 20.1666C9.73055 18.5074 9.36155 17.1342 9.29862 16.1129C9.23855 15.0859 9.49027 14.674 9.6476 14.5166C9.90504 14.2592 10.8547 13.8358 13.2489 14.5653ZM10.4857 34.7021C11.012 33.5435 11.7014 32.299 12.5395 31.006C14.5106 33.3309 16.6689 35.4904 18.9927 37.4627C17.8141 38.2375 16.5798 38.924 15.2999 39.5167C13.6408 40.2719 12.2678 40.641 11.2466 40.701C10.2168 40.764 9.80778 40.5122 9.65046 40.3549C9.49313 40.1975 9.24141 39.7827 9.30148 38.7586C9.36441 37.7373 9.73055 36.3641 10.4857 34.7049M29.831 39.5195C28.552 38.9258 27.3186 38.2383 26.141 37.4627C28.4618 35.4909 30.6172 33.3324 32.5856 31.0088C33.9672 33.1401 34.9255 35.1054 35.426 36.7532C36.1583 39.1448 35.735 40.0974 35.4775 40.3549C35.3202 40.5122 34.9054 40.764 33.8814 40.7039C32.8574 40.641 31.4843 40.2748 29.8253 39.5195M19.6992 27.4386C19.6992 26.6799 20.0006 25.9523 20.5371 25.4158C21.0735 24.8793 21.8011 24.5779 22.5597 24.5779C23.3183 24.5779 24.0459 24.8793 24.5824 25.4158C25.1188 25.9523 25.4202 26.6799 25.4202 27.4386C25.4202 28.1973 25.1188 28.925 24.5824 29.4615C24.0459 29.998 23.3183 30.2994 22.5597 30.2994C21.8011 30.2994 21.0735 29.998 20.5371 29.4615C20.0006 28.925 19.6992 28.1973 19.6992 27.4386Z" fill="var(--fill-0, #53F2AA)"/>
</g>
</svg>
