<svg preserveAspectRatio="none" width="100%" height="100%" overflow="visible" style="display: block;" viewBox="0 0 50 50" fill="none" xmlns="http://www.w3.org/2000/svg">
<g id="Icon">
<path id="Vector" fill-rule="evenodd" clip-rule="evenodd" d="M18 6C17.7873 6.00006 17.5775 6.04708 17.3864 6.13749C17.1953 6.2279 17.0279 6.35932 16.897 6.52179C16.7661 6.68426 16.6751 6.8735 16.6309 7.07515C16.5868 7.2768 16.5905 7.48555 16.642 7.68557L16.908 8.71429H12.4C12.0287 8.71429 11.6726 8.85727 11.4101 9.11178C11.1475 9.3663 11 9.71149 11 10.0714V42.6429C11 43.0028 11.1475 43.348 11.4101 43.6025C11.6726 43.857 12.0287 44 12.4 44H37.6C37.9713 44 38.3274 43.857 38.59 43.6025C38.8525 43.348 39 43.0028 39 42.6429V10.0714C39 9.71149 38.8525 9.3663 38.59 9.11178C38.3274 8.85727 37.9713 8.71429 37.6 8.71429H33.092L33.358 7.68557C33.4095 7.48555 33.4132 7.2768 33.3691 7.07515C33.3249 6.8735 33.2339 6.68426 33.103 6.52179C32.9721 6.35932 32.8047 6.2279 32.6136 6.13749C32.4225 6.04708 32.2127 6.00006 32 6H18ZM19.792 8.71429H30.208L29.508 11.4286H20.492L19.792 8.71429ZM26.4 20.9286V22.2857H16.6V25H26.4V26.3571H29.2V25H33.4V22.2857H29.2V20.9286H26.4ZM20.8 29.0714V30.4286H16.6V33.1429H20.8V34.5H23.6V33.1429H33.4V30.4286H23.6V29.0714H20.8Z" fill="var(--fill-0, #53F2AA)"/>
</g>
</svg>
