<svg preserveAspectRatio="none" width="100%" height="100%" overflow="visible" style="display: block;" viewBox="0 0 50 50" fill="none" xmlns="http://www.w3.org/2000/svg">
<g id="ic:sharp-policy">
<path id="Vector" fill-rule="evenodd" clip-rule="evenodd" d="M19.775 7.9999C12.1674 7.9999 6 14.1673 6 21.7749C6 38.8749 28.8 42.1999 28.8 42.1999V35.5499H30.225C37.8326 35.5499 44 29.3825 44 21.7749C44 14.1673 37.8326 7.9999 30.225 7.9999H19.775ZM25 24.6249C25.6299 24.6249 26.234 24.3747 26.6794 23.9293C27.1248 23.4839 27.375 22.8798 27.375 22.2499C27.375 21.62 27.1248 21.0159 26.6794 20.5705C26.234 20.1251 25.6299 19.8749 25 19.8749C24.3701 19.8749 23.766 20.1251 23.3206 20.5705C22.8752 21.0159 22.625 21.62 22.625 22.2499C22.625 22.8798 22.8752 23.4839 23.3206 23.9293C23.766 24.3747 24.3701 24.6249 25 24.6249ZM34.975 22.2499C34.975 22.8798 34.7248 23.4839 34.2794 23.9293C33.834 24.3747 33.2299 24.6249 32.6 24.6249C31.9701 24.6249 31.366 24.3747 30.9206 23.9293C30.4752 23.4839 30.225 22.8798 30.225 22.2499C30.225 21.62 30.4752 21.0159 30.9206 20.5705C31.366 20.1251 31.9701 19.8749 32.6 19.8749C33.2299 19.8749 33.834 20.1251 34.2794 20.5705C34.7248 21.0159 34.975 21.62 34.975 22.2499ZM17.4 24.6249C18.0299 24.6249 18.634 24.3747 19.0794 23.9293C19.5248 23.4839 19.775 22.8798 19.775 22.2499C19.775 21.62 19.5248 21.0159 19.0794 20.5705C18.634 20.1251 18.0299 19.8749 17.4 19.8749C16.7701 19.8749 16.166 20.1251 15.7206 20.5705C15.2752 21.0159 15.025 21.62 15.025 22.2499C15.025 22.8798 15.2752 23.4839 15.7206 23.9293C16.166 24.3747 16.7701 24.6249 17.4 24.6249Z" fill="var(--fill-0, #53F2AA)"/>
</g>
</svg>
