<svg width="441" height="341" viewBox="0 0 441 341" fill="none" xmlns="http://www.w3.org/2000/svg">
  <!-- Decorative plus signs -->
  <path d="M434 70H428V63H423V70H416V75H423V81H428V75H434V70Z" fill="#CAD2F9"/>
  <path d="M399 175H393V169H389V175H383V180H389V186H393V180H399V175Z" fill="#CAD2F9"/>
  <path d="M147 6H141V0H137V6H131V10H137V16H141V10H147V6Z" fill="#CAD2F9"/>
  <path d="M18 267H14V263H11V267H7V270H11V274H14V270H18V267Z" fill="#CAD2F9"/>

  <!-- Left leaf decoration -->
  <ellipse cx="52" cy="268" rx="30" ry="12" transform="rotate(-35 52 268)" fill="#5B5BE1" opacity="0.4"/>
  <ellipse cx="40" cy="278" rx="22" ry="8" transform="rotate(-35 40 278)" fill="#5B5BE1" opacity="0.3"/>
  <line x1="52" y1="255" x2="42" y2="285" stroke="#5B5BE1" strokeWidth="1.5" opacity="0.5"/>

  <!-- Right leaf decoration -->
  <ellipse cx="398" cy="270" rx="30" ry="12" transform="rotate(35 398 270)" fill="#5B5BE1" opacity="0.4"/>
  <ellipse cx="410" cy="280" rx="22" ry="8" transform="rotate(35 410 280)" fill="#5B5BE1" opacity="0.3"/>
  <line x1="398" y1="257" x2="408" y2="287" stroke="#5B5BE1" strokeWidth="1.5" opacity="0.5"/>

  <!-- Left tilted document (X mark) -->
  <g transform="translate(30, 100) rotate(-12)">
    <rect width="72" height="90" rx="6" fill="#E8EAFF"/>
    <rect x="8" y="12" width="56" height="6" rx="3" fill="#CAD2F9"/>
    <rect x="8" y="26" width="40" height="6" rx="3" fill="#CAD2F9"/>
    <rect x="8" y="40" width="48" height="6" rx="3" fill="#CAD2F9"/>
    <!-- X mark -->
    <circle cx="36" cy="65" r="16" fill="#2020D3" opacity="0.85"/>
    <line x1="28" y1="57" x2="44" y2="73" stroke="white" strokeWidth="3" strokeLinecap="round"/>
    <line x1="44" y1="57" x2="28" y2="73" stroke="white" strokeWidth="3" strokeLinecap="round"/>
  </g>

  <!-- Right tilted document (X mark) -->
  <g transform="translate(340, 85) rotate(12)">
    <rect width="72" height="90" rx="6" fill="#E8EAFF"/>
    <rect x="8" y="12" width="56" height="6" rx="3" fill="#CAD2F9"/>
    <rect x="8" y="26" width="40" height="6" rx="3" fill="#CAD2F9"/>
    <rect x="8" y="40" width="48" height="6" rx="3" fill="#CAD2F9"/>
    <!-- X mark -->
    <circle cx="36" cy="65" r="16" fill="#2020D3" opacity="0.6"/>
    <line x1="28" y1="57" x2="44" y2="73" stroke="white" strokeWidth="3" strokeLinecap="round"/>
    <line x1="44" y1="57" x2="28" y2="73" stroke="white" strokeWidth="3" strokeLinecap="round"/>
  </g>

  <!-- Main monitor/screen -->
  <rect x="100" y="60" width="241" height="180" rx="10" fill="#161694"/>
  <rect x="100" y="60" width="241" height="18" rx="10" fill="#2020D3"/>
  <!-- Title bar dots -->
  <circle cx="116" cy="69" r="4" fill="#53F2AA" opacity="0.7"/>
  <circle cx="130" cy="69" r="4" fill="#CAD2F9" opacity="0.5"/>
  <circle cx="144" cy="69" r="4" fill="#CAD2F9" opacity="0.5"/>
  <!-- Screen content -->
  <rect x="116" y="95" width="209" height="32" rx="6" fill="#2020D3" opacity="0.6"/>
  <!-- Search icon in bar -->
  <circle cx="133" cy="111" r="8" stroke="#CAD2F9" strokeWidth="2" fill="none" opacity="0.7"/>
  <line x1="139" y1="117" x2="143" y2="121" stroke="#CAD2F9" strokeWidth="2" strokeLinecap="round" opacity="0.7"/>
  <!-- Dots in search bar -->
  <circle cx="155" cy="111" r="3" fill="#CAD2F9" opacity="0.5"/>
  <circle cx="165" cy="111" r="3" fill="#CAD2F9" opacity="0.5"/>
  <circle cx="175" cy="111" r="3" fill="#CAD2F9" opacity="0.5"/>
  <!-- Content lines -->
  <rect x="116" y="142" width="80" height="8" rx="4" fill="#5B5BE1" opacity="0.5"/>
  <rect x="116" y="158" width="120" height="8" rx="4" fill="#5B5BE1" opacity="0.4"/>
  <rect x="116" y="174" width="60" height="8" rx="4" fill="#5B5BE1" opacity="0.4"/>
  <!-- Screen stand -->
  <rect x="205" y="240" width="31" height="16" rx="2" fill="#161694"/>
  <rect x="185" y="255" width="71" height="8" rx="4" fill="#2020D3"/>

  <!-- Gear icon top right -->
  <g transform="translate(310, 40)">
    <circle cx="20" cy="20" r="12" fill="none" stroke="#5B5BE1" strokeWidth="3"/>
    <circle cx="20" cy="20" r="6" fill="#5B5BE1" opacity="0.6"/>
    <!-- Gear teeth -->
    <rect x="18" y="4" width="4" height="8" rx="2" fill="#5B5BE1"/>
    <rect x="18" y="28" width="4" height="8" rx="2" fill="#5B5BE1"/>
    <rect x="4" y="18" width="8" height="4" rx="2" fill="#5B5BE1"/>
    <rect x="28" y="18" width="8" height="4" rx="2" fill="#5B5BE1"/>
    <rect x="7" y="7" width="4" height="8" rx="2" transform="rotate(45 9 11)" fill="#5B5BE1"/>
    <rect x="27" y="7" width="4" height="8" rx="2" transform="rotate(-45 29 11)" fill="#5B5BE1"/>
    <rect x="7" y="25" width="4" height="8" rx="2" transform="rotate(-45 9 29)" fill="#5B5BE1"/>
    <rect x="27" y="25" width="4" height="8" rx="2" transform="rotate(45 29 29)" fill="#5B5BE1"/>
  </g>

  <!-- Magnifying glass with X -->
  <g transform="translate(300, 140)">
    <circle cx="36" cy="36" r="28" fill="#2020D3" opacity="0.85"/>
    <circle cx="36" cy="36" r="28" stroke="#E8EAFF" strokeWidth="3" fill="none"/>
    <line x1="57" y1="57" x2="75" y2="75" stroke="#E8EAFF" strokeWidth="6" strokeLinecap="round"/>
    <!-- X inside magnifier -->
    <line x1="26" y1="26" x2="46" y2="46" stroke="white" strokeWidth="3.5" strokeLinecap="round"/>
    <line x1="46" y1="26" x2="26" y2="46" stroke="white" strokeWidth="3.5" strokeLinecap="round"/>
  </g>

  <!-- NO DATA document bottom left -->
  <g transform="translate(105, 205)">
    <rect width="88" height="100" rx="6" fill="#2020D3"/>
    <!-- Folded corner -->
    <path d="M62 0 L88 26 L62 26 Z" fill="#161694"/>
    <path d="M62 0 L88 26 L62 26 Z" fill="none" stroke="#5B5BE1" strokeWidth="0.5"/>
    <!-- Sad face -->
    <circle cx="44" cy="44" r="18" fill="#161694" opacity="0.6"/>
    <!-- Eyes -->
    <circle cx="38" cy="40" r="2.5" fill="white"/>
    <circle cx="50" cy="40" r="2.5" fill="white"/>
    <!-- Sad mouth -->
    <path d="M37 52 Q44 47 51 52" stroke="white" strokeWidth="2" fill="none" strokeLinecap="round"/>
    <!-- NO DATA text -->
    <rect x="10" y="70" width="68" height="8" rx="3" fill="#53F2AA" opacity="0.7"/>
    <rect x="20" y="82" width="48" height="6" rx="3" fill="#CAD2F9" opacity="0.5"/>
  </g>

  <!-- Small notification/alert top left -->
  <g transform="translate(60, 80)">
    <rect width="60" height="44" rx="8" fill="#2020D3"/>
    <circle cx="20" cy="22" r="10" fill="#161694"/>
    <line x1="16" y1="18" x2="24" y2="26" stroke="white" strokeWidth="2" strokeLinecap="round"/>
    <line x1="24" y1="18" x2="16" y2="26" stroke="white" strokeWidth="2" strokeLinecap="round"/>
    <rect x="34" y="16" width="18" height="4" rx="2" fill="#CAD2F9" opacity="0.6"/>
    <rect x="34" y="24" width="12" height="4" rx="2" fill="#CAD2F9" opacity="0.4"/>
  </g>
</svg>
