<svg preserveAspectRatio="none" width="100%" height="100%" overflow="visible" style="display: block;" viewBox="0 0 187.895 37.2069" fill="none" xmlns="http://www.w3.org/2000/svg">
<g id="Logo" clip-path="url(#clip0_0_344)">
<path id="Vector" fill-rule="evenodd" clip-rule="evenodd" d="M23.7712 10.8693C22.2415 9.84726 20.4431 9.30171 18.6034 9.30171V0C22.2828 0 25.8796 1.09107 28.9389 3.13524C31.9983 5.17941 34.3827 8.08487 35.7908 11.4842C37.1988 14.8835 37.5672 18.6241 36.8494 22.2328C36.1316 25.8415 34.3598 29.1563 31.758 31.758C29.1563 34.3598 25.8415 36.1316 22.2328 36.8494C18.6241 37.5672 14.8835 37.1988 11.4842 35.7908C8.08486 34.3827 5.17941 31.9983 3.13524 28.9389C1.09107 25.8796 0 22.2828 0 18.6034H9.30171C9.30171 20.4431 9.84726 22.2415 10.8693 23.7712C11.8914 25.3008 13.3441 26.493 15.0438 27.1971C16.7435 27.9011 18.6138 28.0853 20.4181 27.7264C22.2224 27.3675 23.8798 26.4816 25.1808 25.1808C26.4816 23.8798 27.3675 22.2224 27.7264 20.4181C28.0853 18.6138 27.9011 16.7435 27.1971 15.0438C26.493 13.3441 25.3008 11.8914 23.7712 10.8693Z" fill="var(--fill-0, #007DFC)"/>
<path id="Vector_2" fill-rule="evenodd" clip-rule="evenodd" d="M9.30171 4.91589e-06C9.30171 1.22152 9.06112 2.43108 8.59366 3.55962C8.1262 4.68815 7.44105 5.71356 6.5773 6.57731C5.71356 7.44106 4.68815 8.12621 3.55961 8.59367C2.43107 9.06112 1.22151 9.30172 4.06587e-07 9.30172L0 18.6034C2.44303 18.6034 4.86215 18.1223 7.11923 17.1873C9.37631 16.2524 11.4271 14.8821 13.1546 13.1546C14.8821 11.4272 16.2524 9.37632 17.1873 7.11923C18.1222 4.86215 18.6034 2.44303 18.6034 0L9.30171 4.91589e-06Z" fill="var(--fill-0, #007DFC)"/>
<path id="Vector_3" d="M116.847 13.4433H112.334V27.7794H116.847V13.4433Z" fill="var(--fill-0, #007DFC)"/>
<path id="Vector_4" d="M112.836 10.759C113.308 11.231 113.898 11.467 114.606 11.467C115.313 11.467 115.894 11.231 116.346 10.759C116.799 10.2674 117.025 9.67743 117.025 8.98915C117.025 8.28122 116.799 7.69123 116.346 7.21928C115.894 6.74729 115.313 6.51131 114.606 6.51131C113.898 6.51131 113.308 6.74729 112.836 7.21928C112.383 7.69123 112.157 8.28122 112.157 8.98915C112.157 9.67743 112.383 10.2674 112.836 10.759Z" fill="var(--fill-0, #007DFC)"/>
<path id="Vector_5" d="M47.584 27.7795V6.95383H52.2153V23.7088H61.4483V27.7795H47.584Z" fill="var(--fill-0, #007DFC)"/>
<path id="Vector_6" fill-rule="evenodd" clip-rule="evenodd" d="M69.7888 28.1039C68.314 28.1039 66.9767 27.7794 65.7771 27.1304C64.5972 26.4618 63.6631 25.5572 62.9748 24.4166C62.2865 23.276 61.9424 21.9978 61.9424 20.5818C61.9424 19.1659 62.2865 17.8976 62.9748 16.7766C63.6631 15.6557 64.5972 14.7707 65.7771 14.1218C66.957 13.4531 68.2943 13.1188 69.7888 13.1188C71.2834 13.1188 72.6207 13.4433 73.8006 14.0922C74.9805 14.7412 75.9147 15.636 76.6029 16.7766C77.2912 17.8976 77.6354 19.1659 77.6354 20.5818C77.6354 21.9978 77.2912 23.276 76.6029 24.4166C75.9147 25.5572 74.9805 26.4618 73.8006 27.1304C72.6207 27.7794 71.2834 28.1039 69.7888 28.1039ZM69.7888 24.0037C70.4378 24.0037 71.0081 23.866 71.4998 23.5907C71.9914 23.2957 72.365 22.8926 72.6207 22.3813C72.896 21.8503 73.0336 21.2505 73.0336 20.5818C73.0336 19.9132 72.896 19.3331 72.6207 18.8415C72.3453 18.3302 71.9619 17.9369 71.4702 17.6616C70.9982 17.3665 70.4378 17.2191 69.7888 17.2191C69.1596 17.2191 68.5992 17.3665 68.1075 17.6616C67.6159 17.9369 67.2324 18.3302 66.957 18.8415C66.6817 19.3528 66.5441 19.9427 66.5441 20.6113C66.5441 21.2603 66.6817 21.8503 66.957 22.3813C67.2324 22.8926 67.6159 23.2957 68.1075 23.5907C68.5992 23.866 69.1596 24.0037 69.7888 24.0037Z" fill="var(--fill-0, #007DFC)"/>
<path id="Vector_7" fill-rule="evenodd" clip-rule="evenodd" d="M81.209 33.3841C82.4085 33.9347 83.7949 34.21 85.3682 34.21C86.9021 34.21 88.2689 33.9052 89.4684 33.2956C90.6681 32.6859 91.6119 31.8404 92.3002 30.7588C92.9885 29.6772 93.3331 28.399 93.3331 26.924V13.4434H88.9079V14.4066C88.5788 14.1296 88.2051 13.897 87.787 13.7089C87.02 13.3352 86.1449 13.1483 85.1617 13.1483C83.8441 13.1483 82.674 13.463 81.6514 14.0923C80.6287 14.7019 79.8225 15.5475 79.2325 16.6291C78.6425 17.6911 78.3477 18.8907 78.3477 20.228C78.3477 21.5456 78.6425 22.7451 79.2325 23.8267C79.8225 24.9083 80.6287 25.7638 81.6514 26.3931C82.674 27.0223 83.8441 27.337 85.1617 27.337C86.1253 27.337 87.0004 27.1502 87.787 26.7766C88.168 26.5956 88.5122 26.3823 88.8194 26.1366V27.042C88.8194 28.0449 88.495 28.8217 87.846 29.3724C87.2167 29.9231 86.3416 30.1983 85.2207 30.1983C84.3161 30.1983 83.5393 30.041 82.8903 29.7263C82.2611 29.4117 81.6907 28.9495 81.1794 28.3399L78.4066 31.1127C79.0949 32.096 80.029 32.8532 81.209 33.3841ZM87.6395 22.9123C87.1872 23.1876 86.6465 23.3253 86.0171 23.3253C85.3878 23.3253 84.8372 23.1876 84.3652 22.9123C83.9129 22.6369 83.5589 22.2633 83.3033 21.7913C83.0476 21.2997 82.9198 20.7785 82.9198 20.228C82.9198 19.638 83.0476 19.107 83.3033 18.6351C83.5589 18.1631 83.9227 17.7894 84.3947 17.5141C84.8667 17.2388 85.4075 17.1011 86.0171 17.1011C86.6465 17.1011 87.1872 17.2388 87.6395 17.5141C88.1115 17.7894 88.4654 18.1631 88.7015 18.6351C88.9571 19.107 89.0849 19.638 89.0849 20.228C89.0849 20.8179 88.9571 21.3488 88.7015 21.8208C88.4654 22.2731 88.1115 22.6369 87.6395 22.9123Z" fill="var(--fill-0, #007DFC)"/>
<path id="Vector_8" fill-rule="evenodd" clip-rule="evenodd" d="M102.831 28.1039C101.356 28.1039 100.019 27.7794 98.8196 27.1304C97.6392 26.4618 96.7053 25.5572 96.017 24.4166C95.3286 23.276 94.9845 21.9978 94.9845 20.5818C94.9845 19.1659 95.3286 17.8976 96.017 16.7766C96.7053 15.6557 97.6392 14.7707 98.8196 14.1218C99.999 13.4531 101.337 13.1188 102.831 13.1188C104.325 13.1188 105.663 13.4433 106.842 14.0922C108.023 14.7412 108.957 15.636 109.645 16.7766C110.333 17.8976 110.677 19.1659 110.677 20.5818C110.677 21.9978 110.333 23.276 109.645 24.4166C108.957 25.5572 108.023 26.4618 106.842 27.1304C105.663 27.7794 104.325 28.1039 102.831 28.1039ZM102.831 24.0037C103.48 24.0037 104.05 23.866 104.542 23.5907C105.033 23.2957 105.407 22.8926 105.663 22.3813C105.938 21.8503 106.076 21.2505 106.076 20.5818C106.076 19.9132 105.938 19.3331 105.663 18.8415C105.388 18.3302 105.004 17.9369 104.512 17.6616C104.041 17.3665 103.48 17.2191 102.831 17.2191C102.202 17.2191 101.641 17.3665 101.15 17.6616C100.658 17.9369 100.274 18.3302 99.999 18.8415C99.7237 19.3528 99.586 19.9427 99.586 20.6113C99.586 21.2603 99.7237 21.8503 99.999 22.3813C100.274 22.8926 100.658 23.2957 101.15 23.5907C101.641 23.866 102.202 24.0037 102.831 24.0037Z" fill="var(--fill-0, #007DFC)"/>
<path id="Vector_9" fill-rule="evenodd" clip-rule="evenodd" d="M127.695 28.0744C126.732 28.0744 125.846 27.8877 125.04 27.514C124.616 27.3174 124.232 27.0826 123.89 26.8097V33.8266H119.436V13.4434H123.949V14.4328C124.276 14.165 124.64 13.9335 125.04 13.7384C125.846 13.345 126.732 13.1483 127.695 13.1483C129.052 13.1483 130.252 13.4729 131.293 14.1219C132.356 14.7708 133.182 15.6557 133.771 16.7767C134.382 17.8976 134.686 19.1759 134.686 20.6114C134.686 22.047 134.382 23.3253 133.771 24.4462C133.182 25.5672 132.356 26.452 131.293 27.101C130.252 27.75 129.052 28.0744 127.695 28.0744ZM126.869 24.0037C127.518 24.0037 128.079 23.8562 128.55 23.5612C129.042 23.2663 129.426 22.8631 129.701 22.3518C129.976 21.8405 130.114 21.2604 130.114 20.6114C130.114 19.9428 129.976 19.3529 129.701 18.8416C129.426 18.3302 129.042 17.937 128.55 17.6616C128.079 17.3666 127.528 17.2191 126.898 17.2191C126.27 17.2191 125.709 17.3666 125.217 17.6616C124.745 17.937 124.372 18.3302 124.097 18.8416C123.821 19.3529 123.684 19.9428 123.684 20.6114C123.684 21.2604 123.811 21.8405 124.067 22.3518C124.342 22.8631 124.725 23.2663 125.217 23.5612C125.709 23.8562 126.259 24.0037 126.869 24.0037Z" fill="var(--fill-0, #007DFC)"/>
<path id="Vector_10" d="M139.103 27.8089C139.929 28.0253 140.765 28.1333 141.61 28.1333C143.4 28.1333 144.816 27.7204 145.858 26.8945C146.92 26.0686 147.451 24.9575 147.451 23.5612C147.451 22.6566 147.284 21.9289 146.949 21.3783C146.615 20.8081 146.183 20.3557 145.652 20.0214C145.121 19.6871 144.56 19.4215 143.97 19.2249C143.38 19.0283 142.819 18.8611 142.289 18.7235C141.758 18.5858 141.326 18.4285 140.991 18.2515C140.657 18.0745 140.489 17.8385 140.489 17.5435C140.489 17.2682 140.618 17.0617 140.873 16.924C141.128 16.7667 141.512 16.6881 142.023 16.6881C142.554 16.6881 143.095 16.7962 143.645 17.0126C144.216 17.2289 144.727 17.6026 145.179 18.1335L147.746 15.5377C147.097 14.7117 146.252 14.0922 145.209 13.6793C144.187 13.2467 143.066 13.0303 141.846 13.0303C140.686 13.0303 139.674 13.227 138.808 13.6203C137.942 14.0136 137.274 14.5544 136.802 15.2427C136.331 15.9113 136.094 16.7078 136.094 17.6321C136.094 18.4973 136.262 19.2151 136.596 19.7854C136.93 20.336 137.363 20.7687 137.893 21.0833C138.424 21.398 138.985 21.6438 139.575 21.8207C140.165 21.9977 140.726 22.1649 141.257 22.3223C141.787 22.46 142.22 22.6271 142.554 22.8237C142.909 23.0008 143.085 23.2662 143.085 23.6202C143.085 23.8955 142.938 24.1117 142.643 24.2691C142.367 24.4264 141.965 24.5051 141.433 24.5051C140.666 24.5051 139.958 24.3675 139.31 24.0921C138.661 23.7972 138.1 23.394 137.628 22.8827L135.062 25.4785C135.554 26.0095 136.144 26.4815 136.832 26.8945C137.54 27.2877 138.297 27.5925 139.103 27.8089Z" fill="var(--fill-0, #007DFC)"/>
<path id="Vector_11" d="M155.681 28.1038C154.364 28.1038 153.194 27.8384 152.172 27.3074C151.168 26.7567 150.382 26.0094 149.812 25.0655C149.241 24.1019 148.956 23.0007 148.956 21.7617V13.4433H153.469V21.7028C153.469 22.1944 153.547 22.6172 153.706 22.9711C153.882 23.3252 154.138 23.6005 154.472 23.7971C154.807 23.9938 155.21 24.0921 155.681 24.0921C156.35 24.0921 156.881 23.8856 157.275 23.4726C157.668 23.04 157.864 22.4501 157.864 21.7028V13.4433H162.377V21.7322C162.377 22.9909 162.093 24.1019 161.522 25.0655C160.952 26.0094 160.166 26.7567 159.162 27.3074C158.159 27.8384 156.999 28.1038 155.681 28.1038Z" fill="var(--fill-0, #007DFC)"/>
<path id="Vector_12" d="M169.134 13.4434H164.621V27.7795H169.134V19.402C169.134 18.9104 169.233 18.4974 169.429 18.1631C169.646 17.8288 169.931 17.5731 170.285 17.3962C170.639 17.1994 171.042 17.1011 171.494 17.1011C172.143 17.1011 172.684 17.3076 173.116 17.7206C173.569 18.1139 173.795 18.6744 173.795 19.402V27.7795H178.309V19.402C178.309 18.9104 178.407 18.4974 178.603 18.1631C178.82 17.8288 179.105 17.5731 179.459 17.3962C179.813 17.1994 180.216 17.1011 180.668 17.1011C181.318 17.1011 181.858 17.3076 182.291 17.7206C182.743 18.1139 182.969 18.6744 182.969 19.402V27.7795H187.483V18.9005C187.483 17.701 187.227 16.6783 186.715 15.8327C186.223 14.9674 185.545 14.3086 184.68 13.8564C183.835 13.3843 182.861 13.1483 181.76 13.1483C180.639 13.1483 179.626 13.3942 178.722 13.8859C178.134 14.1991 177.62 14.6033 177.18 15.0985C176.77 14.5805 176.271 14.1567 175.683 13.8268C174.897 13.3746 174.002 13.1483 172.999 13.1483C171.937 13.1483 170.983 13.3746 170.138 13.8268C169.77 14.015 169.436 14.2404 169.134 14.503V13.4434Z" fill="var(--fill-0, #007DFC)"/>
</g>
<defs>
<clipPath id="clip0_0_344">
<rect width="187.895" height="37.2069" fill="white"/>
</clipPath>
</defs>
</svg>
