<svg preserveAspectRatio="none" width="100%" height="100%" overflow="visible" style="display: block;" viewBox="0 0 163.71 37.2069" fill="none" xmlns="http://www.w3.org/2000/svg">
<g id="Logo" clip-path="url(#clip0_0_304)">
<path id="Vector" fill-rule="evenodd" clip-rule="evenodd" d="M13.9526 26.0448C12.7191 26.0448 11.5361 25.5548 10.6639 24.6826C9.79171 23.8104 9.30171 22.6274 9.30171 21.3939V0H0V21.3939C0 29.0995 6.24703 35.3465 13.9526 35.3465H24.1845V26.0448H13.9526ZM41.8577 9.30171C40.7583 9.30171 39.6697 9.51825 38.6541 9.93896C37.6384 10.3597 36.7155 10.9763 35.9381 11.7537C35.1608 12.5311 34.5441 13.4539 34.1234 14.4696C33.7027 15.4853 33.4862 16.5739 33.4862 17.6733C33.4862 18.7726 33.7027 19.8612 34.1234 20.8769C34.5441 21.8926 35.1608 22.8155 35.9381 23.5928C36.7155 24.3702 37.6384 24.9868 38.6541 25.4076C39.6697 25.8283 40.7583 26.0448 41.8577 26.0448C44.078 26.0448 46.2073 25.1628 47.7773 23.5928C49.3473 22.0229 50.2293 19.8935 50.2293 17.6733C50.2293 15.453 49.3473 13.3236 47.7773 11.7537C46.2073 10.1837 44.078 9.30171 41.8577 9.30171ZM24.1845 17.6733C24.1845 7.91297 32.0974 0 41.8577 0C51.618 0 59.531 7.91297 59.531 17.6733C59.531 27.4335 51.618 35.3465 41.8577 35.3465C32.0974 35.3465 24.1845 27.4335 24.1845 17.6733ZM142.316 9.30171C140.096 9.30171 137.967 10.1837 136.397 11.7537C134.827 13.3236 133.945 15.453 133.945 17.6733C133.945 19.8935 134.827 22.0229 136.397 23.5928C137.967 25.1628 140.096 26.0448 142.316 26.0448C144.536 26.0448 146.666 25.1628 148.236 23.5928C149.806 22.0229 150.688 19.8935 150.688 17.6733C150.688 15.453 149.806 13.3236 148.236 11.7537C146.666 10.1837 144.536 9.30171 142.316 9.30171ZM124.643 17.6733C124.643 7.91297 132.556 0 142.316 0C152.077 0 159.989 7.91297 159.989 17.6733C159.989 27.4335 152.077 35.3465 142.316 35.3465C132.556 35.3465 124.643 27.4335 124.643 17.6733ZM79.0646 0C69.3043 0 61.3913 7.91297 61.3913 17.6733C61.3913 27.4335 69.3043 35.3465 79.0646 35.3465H105.109C106.941 35.3465 108.707 35.0675 110.369 34.5503L115.341 37.2069L120.706 27.1573C122.069 24.599 122.782 21.7449 122.783 18.8462V17.6733C122.783 7.91297 114.87 0 105.109 0H79.0646ZM113.481 17.6733C113.481 15.453 112.599 13.3236 111.029 11.7537C109.459 10.1837 107.33 9.30171 105.109 9.30171H79.0646C77.9652 9.30171 76.8766 9.51825 75.8609 9.93896C74.8452 10.3597 73.9224 10.9763 73.145 11.7537C72.3676 12.5311 71.751 13.4539 71.3303 14.4696C70.9096 15.4853 70.693 16.5739 70.693 17.6733C70.693 18.7726 70.9096 19.8612 71.3303 20.8769C71.751 21.8926 72.3676 22.8155 73.145 23.5928C73.9224 24.3702 74.8452 24.9868 75.8609 25.4076C76.8766 25.8283 77.9652 26.0448 79.0646 26.0448H105.109C107.318 26.0449 109.438 25.1718 111.006 23.6159C112.574 22.06 113.464 19.9473 113.481 17.7384V17.6733Z" fill="var(--fill-0, #283841)"/>
<path id="Vector_2" d="M163.71 2.32546C163.71 2.9422 163.465 3.53368 163.029 3.96978C162.593 4.40589 162.002 4.65089 161.385 4.65089C160.768 4.65089 160.177 4.40589 159.741 3.96978C159.305 3.53368 159.06 2.9422 159.06 2.32546C159.06 1.70872 159.305 1.11724 159.741 0.681133C160.177 0.24503 160.768 3.05176e-05 161.385 3.05176e-05C162.002 3.05176e-05 162.593 0.24503 163.029 0.681133C163.465 1.11724 163.71 1.70872 163.71 2.32546Z" fill="var(--fill-0, #283841)"/>
</g>
<defs>
<clipPath id="clip0_0_304">
<rect width="163.71" height="37.2069" fill="white"/>
</clipPath>
</defs>
</svg>
