<svg preserveAspectRatio="none" width="100%" height="100%" overflow="visible" style="display: block;" viewBox="0 0 116.271 37.2069" fill="none" xmlns="http://www.w3.org/2000/svg">
<g id="Logo" clip-path="url(#clip0_0_337)">
<path id="Vector" d="M82.6557 34.6256C83.3617 34.6256 83.7794 34.0908 83.7794 33.2546C83.7794 32.3876 83.331 31.8835 82.6706 31.8835C82.293 31.8835 82.0307 32.0509 81.8344 32.3169H81.8251V30.9468H81.4158V34.5494H81.8251V34.207H81.8344C82.0465 34.4991 82.3032 34.6256 82.6557 34.6256ZM82.626 34.2824C82.0716 34.2824 81.7991 33.8443 81.7991 33.2592C81.7991 32.6955 82.0614 32.2314 82.6306 32.2314C83.1245 32.2314 83.3617 32.6751 83.3617 33.2592C83.3617 33.8489 83.1245 34.2824 82.626 34.2824ZM84.4705 35.4116C84.7877 35.4116 84.9895 35.3 85.2007 34.7605L86.315 31.9439H85.8816L85.2863 33.5671C85.2063 33.7838 85.1151 34.0759 85.1151 34.0759H85.1058C85.1058 34.0759 85.0091 33.7838 84.9291 33.5671L84.3142 31.9439H83.8705L84.8881 34.474L84.7877 34.7307C84.6872 34.9828 84.571 35.0489 84.3998 35.0489C84.3042 35.0537 84.2089 35.0345 84.1226 34.993H84.1022V35.3558C84.2138 35.4014 84.3142 35.4116 84.4705 35.4116ZM87.3596 34.5494H88.0451V30.9468H87.3596V34.5494ZM89.7213 34.6256C90.5222 34.6256 91.0719 34.0303 91.0719 33.2592C91.0719 32.4881 90.5231 31.8937 89.7213 31.8937C88.9204 31.8937 88.3707 32.489 88.3707 33.2592C88.3707 34.0312 88.9195 34.6256 89.7213 34.6256ZM89.7213 34.101C89.2981 34.101 89.0665 33.7634 89.0665 33.2592C89.0665 32.756 89.2981 32.4127 89.7213 32.4127C90.1399 32.4127 90.3762 32.756 90.3762 33.2592C90.3762 33.7634 90.1399 34.101 89.7213 34.101ZM92.5295 35.4312C92.9127 35.4312 93.2448 35.3409 93.4615 35.1391C93.6531 34.9623 93.7694 34.7159 93.7694 34.3531V31.9644H93.109V32.2369H93.0988C92.9425 32.0202 92.7062 31.8937 92.3825 31.8937C91.7286 31.8937 91.2645 32.3876 91.2645 33.1587C91.2645 33.9401 91.8291 34.3931 92.4039 34.3931C92.7314 34.3931 92.9276 34.2629 93.0783 34.0908H93.0941V34.3735C93.0941 34.7261 92.9081 34.913 92.5193 34.913C92.2021 34.913 92.056 34.7865 92.0002 34.6247H91.3203C91.39 35.1288 91.8235 35.4312 92.5295 35.4312ZM92.5202 33.8443C92.1667 33.8443 91.9342 33.5876 91.9342 33.1485C91.9342 32.7151 92.1667 32.4434 92.5146 32.4434C92.9276 32.4434 93.1295 32.7653 93.1295 33.1439C93.1295 33.5271 92.9527 33.8443 92.5193 33.8443H92.5202ZM95.4354 34.6256C96.2362 34.6256 96.786 34.0303 96.786 33.2592C96.786 32.4881 96.2362 31.8937 95.4354 31.8937C94.6336 31.8937 94.0848 32.489 94.0848 33.2592C94.0848 34.0312 94.6336 34.6256 95.4354 34.6256ZM95.4354 34.101C95.0121 34.101 94.7796 33.7634 94.7796 33.2592C94.7796 32.756 95.0121 32.4127 95.4354 32.4127C95.853 32.4127 96.0902 32.756 96.0902 33.2592C96.0902 33.7634 95.853 34.101 95.4354 34.101ZM97.1041 34.5494H97.7896V31.9644H97.1041V34.5494ZM97.1041 31.5616H97.7896V30.9468H97.1041V31.5616ZM98.2315 35.3958H98.917V34.2582H98.9263C99.0733 34.4805 99.3095 34.6266 99.6723 34.6266C100.337 34.6266 100.791 34.0964 100.791 33.2601C100.791 32.4537 100.353 31.8946 99.6676 31.8946C99.5182 31.8922 99.3704 31.9269 99.2376 31.9955C99.1049 32.0642 98.9912 32.1647 98.9068 32.2881H98.8919V31.9653H98.2315V35.3977V35.3958ZM99.5263 34.0564C99.1179 34.0564 98.9012 33.7485 98.9012 33.2797C98.9012 32.8164 99.0733 32.4481 99.5011 32.4481C99.9244 32.4481 100.096 32.7904 100.096 33.2797C100.096 33.7689 99.8741 34.0564 99.5263 34.0564ZM102.159 34.6256C102.803 34.6256 103.247 34.3131 103.247 33.7941C103.247 33.1894 102.768 33.0685 102.334 32.9774C101.967 32.902 101.625 32.8816 101.625 32.6602C101.625 32.4741 101.801 32.3718 102.067 32.3718C102.36 32.3718 102.536 32.4741 102.567 32.7504H103.186C103.136 32.2314 102.759 31.8946 102.078 31.8946C101.488 31.8946 101.025 32.1607 101.025 32.7206C101.025 33.2843 101.478 33.4108 101.942 33.502C102.294 33.5717 102.622 33.5969 102.622 33.8443C102.622 34.0257 102.451 34.1419 102.148 34.1419C101.841 34.1419 101.629 34.0108 101.584 33.7131H100.949C100.989 34.2619 101.408 34.6256 102.159 34.6256ZM105.85 34.5494V31.9644H105.164V33.4564C105.164 33.7987 104.967 34.0405 104.645 34.0405C104.353 34.0405 104.216 33.874 104.216 33.5717V31.9644H103.536V33.688C103.536 34.2526 103.859 34.62 104.433 34.62C104.796 34.62 104.998 34.4842 105.174 34.248H105.189V34.5494H105.85ZM106.292 34.5494H106.978V33.049C106.978 32.7058 107.164 32.4844 107.441 32.4844C107.693 32.4844 107.839 32.636 107.839 32.9281V34.5503H108.525V33.049C108.525 32.7058 108.701 32.4844 108.989 32.4844C109.241 32.4844 109.387 32.636 109.387 32.9281V34.5503H110.073V32.8118C110.073 32.2472 109.765 31.8946 109.22 31.8946C108.893 31.8946 108.621 32.0658 108.445 32.3486H108.435C108.372 32.2113 108.272 32.0951 108.144 32.0145C108.017 31.9338 107.869 31.8922 107.718 31.8946C107.567 31.8908 107.418 31.9277 107.286 32.0013C107.154 32.0749 107.044 32.1827 106.968 32.3132H106.953V31.9653H106.292V34.5512V34.5494Z" fill="var(--fill-0, #E5708C)"/>
<path id="Vector_2" d="M110.208 1.99923C110.208 0.898841 111.1 0.00587655 112.201 0.00587655H113.53C114.059 0.00587655 114.566 0.21589 114.939 0.589717C115.313 0.963544 115.523 1.47056 115.523 1.99923C115.523 2.5279 115.313 3.03492 114.939 3.40875C114.566 3.78258 114.059 3.99259 113.53 3.99259H112.201C111.939 3.99259 111.68 3.94102 111.438 3.84084C111.196 3.74065 110.976 3.59381 110.791 3.40869C110.606 3.22358 110.46 3.00383 110.36 2.76199C110.26 2.52015 110.208 2.26096 110.208 1.99923ZM54.4063 13.2924C54.4063 20.6296 48.4588 26.5781 41.1207 26.5781C33.7835 26.5781 27.835 20.6296 27.835 13.2924C27.835 5.95339 33.7835 0.00680672 41.1207 0.00680672C48.4588 0.00680672 54.4063 5.95339 54.4063 13.2924ZM25.2436 13.2264C25.9784 13.2264 26.5793 13.8217 26.5058 14.5528C26.2547 17.0548 25.2987 19.4342 23.7489 21.4144C22.1991 23.3946 20.1191 24.8943 17.7508 25.7392C15.3824 26.5841 12.8229 26.7396 10.3697 26.1875C7.91648 25.6354 5.67032 24.3985 3.89225 22.6204C2.11419 20.8423 0.877231 18.5962 0.325146 16.143C-0.226939 13.6897 -0.0714827 11.1302 0.773448 8.76186C1.61838 6.3935 3.11809 4.31355 5.09828 2.76375C7.07847 1.21395 9.45782 0.25793 11.9598 0.00680672C12.69 -0.067607 13.2862 0.535144 13.2862 1.26812V11.8972C13.2862 12.632 13.8815 13.2264 14.6155 13.2264H25.2436ZM73.007 29.2356C74.0641 29.2356 75.0779 29.6555 75.8253 30.403C76.5728 31.1505 76.9927 32.1643 76.9927 33.2214C76.9927 34.2785 76.5728 35.2923 75.8253 36.0397C75.0779 36.7872 74.0641 37.2071 73.007 37.2071H66.3646C65.3075 37.2071 64.2937 36.7872 63.5462 36.0397C62.7987 35.2923 62.3788 34.2785 62.3788 33.2214C62.3788 32.1643 62.7987 31.1505 63.5462 30.403C64.2937 29.6555 65.3075 29.2356 66.3646 29.2356H73.007ZM69.0212 26.5781C76.3593 26.5781 82.3077 20.6296 82.3077 13.2924C82.3109 11.0386 81.7381 8.82131 80.6437 6.85101L82.8389 4.6558C83.0917 4.40283 83.2923 4.10252 83.4291 3.77204C83.5659 3.44156 83.6362 3.08737 83.6361 2.72969C83.6361 2.37201 83.5655 2.01786 83.4286 1.68744C83.2916 1.35702 83.0909 1.05682 82.8379 0.803964C82.585 0.551109 82.2847 0.350558 81.9542 0.213761C81.6237 0.0769642 81.2695 0.00660012 80.9118 0.0066865C80.5541 0.00677288 80.2 0.077308 79.8696 0.214265C79.5392 0.351221 79.239 0.551917 78.9861 0.804894L77.0699 2.72105C74.7583 0.955494 71.929 0.00119608 69.0202 0.00587655C61.684 0.00680672 55.7365 5.95339 55.7365 13.2924C55.7365 20.6296 61.684 26.5781 69.0212 26.5781ZM110.208 13.2924C110.208 20.6296 104.26 26.5781 96.9217 26.5781C89.5845 26.5781 83.636 20.6296 83.636 13.2924C83.636 5.95339 89.5845 0.00680672 96.9217 0.00680672C104.26 0.00680672 110.208 5.95432 110.208 13.2924Z" fill="url(#paint0_linear_0_337)"/>
</g>
<defs>
<linearGradient id="paint0_linear_0_337" x1="0.000602975" y1="14.883" x2="110.691" y2="14.883" gradientUnits="userSpaceOnUse">
<stop stop-color="#64C2DB"/>
<stop offset="0.307" stop-color="#7476ED"/>
<stop offset="0.604" stop-color="#C994DF"/>
<stop offset="1" stop-color="#E56F8C"/>
</linearGradient>
<clipPath id="clip0_0_337">
<rect width="116.271" height="37.2069" fill="white"/>
</clipPath>
</defs>
</svg>
