<svg preserveAspectRatio="none" width="100%" height="100%" overflow="visible" style="display: block;" viewBox="0 0 161.85 36.2767" fill="none" xmlns="http://www.w3.org/2000/svg">
<g id="Logo" clip-path="url(#clip0_0_307)">
<path id="Vector" d="M46.6974 18.8657C46.7296 18.246 46.7296 17.6251 46.6974 17.0054H11.3983C11.3909 17.1598 11.3844 17.3151 11.3806 17.4705H3.98578L3.98206 17.703H0V18.1681H3.98113L3.98671 18.4006H11.3806C11.3844 18.5569 11.3899 18.7113 11.3992 18.8657H21.5335C21.495 18.5572 21.4757 18.2465 21.4758 17.9356H36.3585C36.3585 18.2509 36.3399 18.5616 36.3009 18.8657H46.6974ZM46.6239 16.0752H36.1251C36.0434 15.7587 35.9409 15.448 35.8181 15.145H22.019C21.8972 15.4464 21.7939 15.7562 21.7121 16.0752H11.4709C11.4876 15.9199 11.5062 15.7645 11.5267 15.6101H4.13182L4.16345 15.3832H0V14.9181H4.23693L4.27972 14.68H11.6746C11.7025 14.5246 11.7341 14.3693 11.7676 14.2149H46.329C46.4593 14.8241 46.5588 15.4446 46.6239 16.0752ZM46.103 13.2847H34.727C34.4587 12.9498 34.1621 12.6386 33.8406 12.3545H23.9956C23.6747 12.6392 23.3771 12.9498 23.1092 13.2847H11.9936C12.0355 13.1294 12.0801 12.974 12.1266 12.8196H4.73178L4.81364 12.5582H0V12.0922H4.96897L5.04153 11.8885H12.4364C12.4922 11.7323 12.5517 11.5778 12.6131 11.4234H45.4826C45.7226 12.028 45.93 12.6503 46.103 13.2847ZM45.0826 10.4942H13.0131C13.0856 10.3379 13.1601 10.1835 13.2373 10.0291H5.84334L5.97449 9.77238H0V9.30729H6.22657L6.3447 9.09893H13.7396C13.8298 8.94267 13.9228 8.78733 14.0177 8.63385H44.078C44.4482 9.23102 44.785 9.85237 45.0826 10.4942ZM11.4709 19.7959H46.6248C46.5588 20.4266 46.4593 21.0479 46.329 21.6562H35.3642C35.5363 21.3586 35.6888 21.0479 35.819 20.7261H22.0172C22.1474 21.0479 22.299 21.3586 22.4711 21.6562H11.7667C11.7336 21.5016 11.7026 21.3466 11.6736 21.1912H4.27972C4.26457 21.1094 4.24999 21.0276 4.236 20.9456H0V20.4805H4.16252C4.15184 20.4074 4.1416 20.3342 4.13182 20.261H11.5267C11.506 20.1062 11.4874 19.9512 11.4709 19.7959ZM11.9927 22.5864H46.1021C45.93 23.2217 45.7226 23.8421 45.4826 24.4468H32.5234C32.9948 24.1851 33.4364 23.8733 33.8406 23.5166H23.9956C24.3998 23.8733 24.8414 24.1851 25.3127 24.4468H12.6131C12.5521 24.2926 12.4931 24.1375 12.4364 23.9817H5.04153L4.96153 23.7575H0V23.2924H4.80713C4.78175 23.2123 4.75695 23.132 4.73271 23.0515H12.1266C12.0801 22.8971 12.0355 22.7427 11.9927 22.5864ZM13.0131 25.3769H45.0826C44.7852 26.0166 44.4498 26.6378 44.078 27.2373H14.0177C13.9223 27.0837 13.8293 26.9286 13.7386 26.7722H6.3447C6.29819 26.6922 6.25261 26.6122 6.20796 26.5313H0V26.0662H5.95775L5.84334 25.8429H13.2382C13.1609 25.689 13.0859 25.534 13.0131 25.3779V25.3769ZM15.7385 29.5627C15.8752 29.7208 16.0157 29.8752 16.1589 30.0278H41.9368C42.4858 29.4428 42.9945 28.8212 43.4595 28.1674H14.6362C14.7479 28.3246 14.8613 28.48 14.9785 28.6325H7.58369L7.76786 28.8697H0V29.3348H8.1483C8.21248 29.412 8.27759 29.4874 8.34364 29.5627H15.7385ZM18.8239 32.3532C19.0499 32.5141 19.2797 32.6695 19.5122 32.8183H38.5835C39.4396 32.2685 40.2469 31.6461 40.9964 30.958H17.1003C17.2724 31.1161 17.4482 31.2714 17.6267 31.423H10.2319C10.3323 31.5086 10.4337 31.5923 10.536 31.6742H0V32.1393H11.136C11.2327 32.2118 11.3313 32.2835 11.4299 32.3532H18.8248H18.8239ZM25.3509 35.2219C26.5434 35.4758 27.7796 35.6088 29.0474 35.6088C31.8881 35.6088 34.5717 34.9391 36.9492 33.7485H21.1456C21.4767 33.914 21.8125 34.0694 22.1539 34.2136H14.759C14.8911 34.2694 15.0241 34.3242 15.1571 34.3773H0V34.8424H16.4873C18.1216 35.3409 19.8564 35.6088 21.6535 35.6088C22.9213 35.6088 24.1584 35.4758 25.3509 35.2219ZM14.6362 7.70368H43.4595C42.9945 7.04988 42.4858 6.42834 41.9368 5.84334H16.1589C16.0157 5.99588 15.8752 6.15029 15.7376 6.30842H8.34364L8.17993 6.50004H0V6.96512H7.7967C7.72507 7.05535 7.65438 7.14651 7.58462 7.23859H14.9785C14.8613 7.39207 14.7479 7.54741 14.6362 7.70368ZM17.0993 4.91316H40.9954C40.2463 4.22507 39.4393 3.60266 38.5835 3.05282H19.5122C19.2797 3.20258 19.0499 3.35792 18.8239 3.51791H11.4299C11.3276 3.59139 11.2253 3.66487 11.1248 3.74022H0V4.2053H10.5258C10.4272 4.2853 10.3296 4.36622 10.2328 4.44808H17.6267C17.4482 4.5997 17.2723 4.75504 17.0993 4.91316ZM21.1465 2.12265H36.9501C34.4972 0.89523 31.7912 0.258169 29.0483 0.262308C27.7796 0.262308 26.5434 0.396253 25.3509 0.65019C24.1354 0.391789 22.8961 0.261781 21.6535 0.262308C19.6685 0.262308 17.7607 0.589729 15.9794 1.19248H0V1.65757H22.1539C21.8133 1.80195 21.4773 1.95706 21.1465 2.12265ZM103.48 0C104.091 0 104.571 0.152548 104.92 0.457644C105.283 0.748788 105.465 1.15527 105.465 1.67989C105.465 2.20358 105.283 2.6175 104.92 2.9226C104.571 3.21374 104.091 3.35978 103.48 3.35978C102.87 3.35978 102.382 3.21374 102.018 2.9226C101.67 2.6175 101.495 2.20358 101.495 1.67989C101.495 1.1562 101.67 0.749718 102.018 0.457644C102.382 0.152548 102.87 0 103.48 0ZM105.181 5.38755V14.8762C105.181 15.4874 105.283 15.9022 105.487 16.1199C105.705 16.3385 106.068 16.4473 106.577 16.4473V16.9049C106.17 16.885 105.763 16.8705 105.356 16.8612C104.796 16.832 104.236 16.8174 103.676 16.8175C103.109 16.8175 102.535 16.8324 101.953 16.8612C101.517 16.8708 101.081 16.8854 100.645 16.9049V16.4473C101.153 16.4473 101.51 16.3385 101.713 16.1199C101.931 15.9022 102.041 15.4874 102.041 14.8762V8.00505C102.041 7.35114 101.938 6.87024 101.735 6.56608C101.546 6.2461 101.182 6.08611 100.645 6.08611V5.62754C101.11 5.67125 101.561 5.69265 101.997 5.69265C102.607 5.69265 103.175 5.67125 103.698 5.62754C104.236 5.56987 104.731 5.48987 105.181 5.38755Z" fill="var(--fill-0, #2F2352)"/>
<path id="Vector_2" fill-rule="evenodd" clip-rule="evenodd" d="M111.321 7.38934V5.38761C110.87 5.48993 110.376 5.56993 109.838 5.6276C109.299 5.67132 108.732 5.69271 108.136 5.69271C107.699 5.69271 107.249 5.67132 106.783 5.6276V6.08617C107.307 6.08617 107.671 6.24616 107.874 6.56614C108.078 6.87124 108.179 7.35121 108.179 8.00512V18.9123C108.179 19.4937 108.078 19.8862 107.874 20.0899C107.685 20.2936 107.351 20.395 106.871 20.395V20.8536L108.027 20.7885C108.558 20.7737 109.088 20.7662 109.619 20.7661C110.361 20.7661 111.059 20.7736 111.713 20.7875C112.382 20.8173 112.906 20.8387 113.284 20.8526V20.395C112.673 20.395 112.193 20.2787 111.844 20.0462C111.495 19.8285 111.321 19.3774 111.321 18.6937V16.5078C111.512 16.6678 111.737 16.7999 111.997 16.905C112.462 17.1096 112.978 17.211 113.546 17.211C114.317 17.211 115.007 17.0724 115.618 16.7962C116.239 16.5229 116.785 16.104 117.21 15.5749C117.661 15.0223 118.003 14.3461 118.235 13.5461C118.483 12.7462 118.607 11.816 118.607 10.7538C118.607 9.54734 118.432 8.54369 118.083 7.74374C117.734 6.92891 117.268 6.32616 116.687 5.93363C116.106 5.52643 115.411 5.3126 114.702 5.3225C113.858 5.3225 113.117 5.54016 112.477 5.97641C111.974 6.31593 111.588 6.78659 111.321 7.39027V7.38934ZM111.321 8.13906V16.0464C111.441 16.1897 111.588 16.3088 111.757 16.4036C112.033 16.5487 112.346 16.6213 112.695 16.6213C113.349 16.6213 113.866 16.4036 114.244 15.9674C114.622 15.5163 114.891 14.8912 115.051 14.0912C115.225 13.2773 115.313 12.3099 115.313 11.19C115.313 9.93987 115.233 8.95761 115.073 8.2451C114.913 7.53259 114.694 7.02379 114.418 6.71869C114.142 6.41266 113.808 6.26012 113.414 6.26012C112.892 6.26012 112.412 6.46475 111.975 6.87124C111.647 7.1875 111.428 7.61072 111.321 8.13906Z" fill="var(--fill-0, #2F2352)"/>
<path id="Vector_3" d="M123.614 5.32256C124.225 5.32256 124.755 5.40256 125.206 5.56255C125.672 5.70765 126.006 5.85369 126.21 5.9988C126.704 6.33366 127.01 6.11507 127.126 5.34396H127.584C127.555 5.75137 127.533 6.25367 127.519 6.84897C127.504 7.43126 127.497 8.20889 127.497 9.1837H127.039C126.964 8.63831 126.825 8.10373 126.624 7.59125C126.439 7.09389 126.132 6.65116 125.73 6.30389C125.352 5.96903 124.858 5.8016 124.247 5.8016C123.825 5.8016 123.469 5.92625 123.178 6.17367C122.887 6.40621 122.742 6.74759 122.742 7.19872C122.742 7.63497 122.873 8.02006 123.134 8.35492C123.396 8.6749 123.73 8.98744 124.138 9.29253C124.559 9.58368 124.995 9.89622 125.446 10.2301C125.926 10.5938 126.363 10.9575 126.755 11.3212C127.132 11.6502 127.449 12.0413 127.693 12.4774C127.926 12.8988 128.043 13.4002 128.043 13.9825C128.043 14.6364 127.853 15.2103 127.475 15.7051C127.097 16.1851 126.595 16.5562 125.97 16.8176C125.359 17.0799 124.675 17.2111 123.92 17.2111C123.523 17.2156 123.128 17.1715 122.742 17.0799C122.439 17.0046 122.146 16.8947 121.869 16.7525C121.68 16.6651 121.498 16.5851 121.324 16.5125C121.176 16.4309 121.022 16.3582 120.865 16.2949C120.72 16.2511 120.589 16.3014 120.473 16.4474C120.371 16.5925 120.291 16.7962 120.233 17.0576H119.775C119.804 16.5925 119.826 16.0251 119.84 15.3563C119.855 14.6875 119.863 13.8001 119.863 12.696H120.32C120.408 13.4811 120.568 14.1787 120.8 14.7889C121.033 15.3861 121.345 15.8586 121.738 16.2074C122.145 16.5423 122.654 16.7097 123.265 16.7097C123.513 16.7097 123.753 16.6586 123.985 16.5562C124.218 16.4539 124.407 16.2865 124.553 16.0539C124.713 15.8214 124.793 15.5238 124.793 15.161C124.793 14.5201 124.581 13.989 124.159 13.5676C123.753 13.1462 123.229 12.6877 122.589 12.1937C122.124 11.8152 121.68 11.445 121.259 11.0813C120.868 10.7238 120.53 10.3125 120.255 9.85994C119.99 9.39532 119.854 8.86773 119.863 8.3326C119.863 7.67869 120.037 7.12617 120.385 6.67503C120.741 6.2192 121.218 5.87164 121.76 5.67138C122.35 5.43722 122.979 5.3188 123.614 5.32256ZM150.692 5.56255C150.314 5.40256 149.82 5.32256 149.209 5.32256C148.525 5.31562 147.85 5.48066 147.246 5.80253C146.65 6.10763 146.177 6.62387 145.827 7.35127V5.38861C145.377 5.48999 144.882 5.56999 144.345 5.62766C143.821 5.67138 143.254 5.69277 142.643 5.69277C142.207 5.69277 141.756 5.67138 141.291 5.62766V6.08623C141.829 6.08623 142.192 6.24622 142.381 6.5662C142.585 6.8713 142.686 7.35127 142.686 8.00518V14.8764C142.686 15.4875 142.577 15.9023 142.36 16.12C142.156 16.3386 141.8 16.4474 141.291 16.4474V16.9051C141.727 16.8855 142.163 16.871 142.6 16.8613C143.166 16.8326 143.734 16.8181 144.301 16.8176C144.81 16.8176 145.305 16.8325 145.784 16.8613C146.279 16.8762 146.642 16.8911 146.875 16.9051V16.4474C146.497 16.4474 146.227 16.3386 146.067 16.12C145.907 15.9023 145.827 15.4875 145.827 14.8764V8.81257C145.827 8.3326 145.922 7.90379 146.111 7.52521C146.315 7.13268 146.576 6.82758 146.896 6.60992C147.203 6.39581 147.569 6.28149 147.944 6.2825C148.278 6.2825 148.525 6.3625 148.685 6.52248C148.86 6.66759 148.976 6.87874 149.035 7.155C149.092 7.41638 149.121 7.72892 149.121 8.09261V14.8764C149.121 15.4875 149.041 15.9023 148.881 16.12C148.736 16.3386 148.467 16.4474 148.075 16.4474V16.9051C148.336 16.8911 148.721 16.8762 149.231 16.8613C150.263 16.8025 151.297 16.8025 152.328 16.8613C152.866 16.8762 153.266 16.8911 153.527 16.9051V16.4474C153.062 16.4474 152.735 16.3386 152.546 16.12C152.357 15.9023 152.262 15.4875 152.262 14.8764V8.9093L152.261 8.8414L152.258 8.62095C152.291 8.25633 152.389 7.90049 152.546 7.56986C152.75 7.17639 153.011 6.86386 153.331 6.63131C153.651 6.39877 154.001 6.2825 154.379 6.2825C154.756 6.2825 155.033 6.3625 155.207 6.52248C155.396 6.66759 155.52 6.87874 155.578 7.155C155.651 7.41638 155.687 7.72892 155.687 8.09261V14.8764C155.687 15.4875 155.607 15.9023 155.447 16.12C155.302 16.3386 155.033 16.4474 154.64 16.4474V16.9051C154.902 16.8911 155.287 16.8762 155.796 16.8613C156.312 16.8321 156.828 16.8175 157.345 16.8176C157.883 16.8176 158.428 16.8325 158.981 16.8613C159.534 16.8762 159.948 16.8911 160.225 16.9051V16.4474C159.716 16.4474 159.352 16.3386 159.134 16.12C158.93 15.9023 158.828 15.4875 158.828 14.8764V9.00883C158.828 8.28144 158.777 7.70008 158.676 7.26383C158.574 6.8127 158.407 6.44993 158.174 6.17367C157.941 5.91136 157.636 5.70858 157.257 5.56255C156.88 5.40256 156.385 5.32256 155.775 5.32256C155.033 5.32256 154.335 5.47511 153.681 5.78021C153.054 6.07972 152.546 6.65085 152.156 7.49358C152.143 7.41658 152.127 7.33997 152.11 7.26383C152.008 6.8127 151.841 6.44993 151.608 6.17367C151.376 5.91136 151.07 5.70858 150.692 5.56255ZM139.58 14.5275V5.38768C139.128 5.48999 138.634 5.56999 138.096 5.62766C137.573 5.67138 137.006 5.69277 136.395 5.69277C135.958 5.69277 135.508 5.67138 135.042 5.62766V6.08623C135.581 6.08623 135.944 6.24622 136.133 6.5662C136.337 6.8713 136.438 7.35127 136.438 8.00518V13.7201C136.438 14.2001 136.337 14.6364 136.133 15.0289C135.96 15.3883 135.697 15.6967 135.37 15.9237C135.064 16.1421 134.697 16.2568 134.322 16.2511C133.959 16.2511 133.683 16.1777 133.493 16.0326C133.297 15.861 133.16 15.6323 133.101 15.3786C133.039 15.0625 133.01 14.7408 133.013 14.4187V5.38768C132.563 5.48999 132.068 5.56999 131.531 5.62766C131.007 5.67138 130.44 5.69277 129.829 5.69277C129.393 5.69277 128.942 5.67138 128.477 5.62766V6.08623C129.015 6.08623 129.378 6.24622 129.567 6.5662C129.771 6.8713 129.872 7.35127 129.872 8.00518V13.5239C129.872 14.2364 129.923 14.8187 130.026 15.2689C130.127 15.72 130.302 16.0837 130.548 16.36C130.767 16.6074 131.065 16.8111 131.443 16.9711C131.821 17.1302 132.316 17.2111 132.927 17.2111C133.683 17.2111 134.366 17.0576 134.977 16.7525C135.602 16.4325 136.089 15.9088 136.438 15.1824V17.145C136.926 17.0251 137.422 16.9448 137.922 16.9051C138.446 16.8613 139.012 16.8399 139.623 16.8399C140.074 16.8399 140.525 16.8613 140.976 16.9051V16.4474C140.452 16.4474 140.088 16.2949 139.885 15.9888C139.681 15.6689 139.58 15.1824 139.58 14.5285V14.5275Z" fill="var(--fill-0, #2F2352)"/>
<path id="Vector_4" fill-rule="evenodd" clip-rule="evenodd" d="M97.3848 5.91123C96.5849 5.51869 95.6538 5.32243 94.5924 5.32243C93.5599 5.32243 92.6363 5.51869 91.8224 5.91123C91.0224 6.30376 90.3899 6.93628 89.9248 7.80878C89.4737 8.68128 89.2477 9.83748 89.2477 11.2774C89.2477 12.7173 89.4737 13.8726 89.9239 14.746C90.389 15.6036 91.0215 16.2287 91.8214 16.6212C92.6363 17.0137 93.5599 17.2109 94.5924 17.2109C95.6538 17.2109 96.5849 17.0137 97.3848 16.6212C98.1838 16.2287 98.8098 15.6036 99.26 14.746C99.7112 13.8735 99.9363 12.7173 99.9363 11.2774C99.9363 9.83748 99.7112 8.68221 99.26 7.80878C98.8098 6.93628 98.1838 6.30376 97.3848 5.91123ZM93.1311 7.06743C93.5237 6.19493 94.0111 5.75868 94.5924 5.75868C95.1887 5.75868 95.6761 6.19493 96.0537 7.06743C96.4463 7.92505 96.6425 9.32868 96.6425 11.2774C96.6425 13.2261 96.4463 14.6297 96.0537 15.4873C95.6761 16.345 95.1887 16.7747 94.5924 16.7747C94.0111 16.7747 93.5237 16.345 93.1311 15.4873C92.7386 14.6297 92.5423 13.2261 92.5423 11.2774C92.5423 9.32868 92.7377 7.92505 93.1311 7.06743ZM82.1346 21.006C81.2324 21.006 80.4259 20.9261 79.7134 20.7661C79.0158 20.621 78.4633 20.3884 78.0558 20.0684C77.6633 19.7624 77.467 19.3848 77.467 18.9336C77.467 18.4825 77.6698 18.076 78.0772 17.7123C78.4847 17.3635 79.0883 17.0872 79.8883 16.8835L80.0836 17.2323C79.8339 17.4199 79.626 17.6575 79.4734 17.93C79.3572 18.1923 79.2985 18.4611 79.2985 18.7374C79.2985 19.3485 79.5748 19.8136 80.1283 20.1326C80.6957 20.4675 81.4584 20.6349 82.4183 20.6349C83.0723 20.6349 83.6545 20.5475 84.1633 20.3735C84.687 20.1987 85.0935 19.9363 85.3847 19.5885C85.6907 19.2387 85.8432 18.8099 85.8432 18.3011C85.8432 17.8649 85.6832 17.4937 85.3633 17.1886C85.0433 16.8975 84.4033 16.7524 83.4434 16.7524H82.0909C81.4956 16.7524 80.971 16.6873 80.5208 16.5561C80.0836 16.4259 79.7422 16.2212 79.4948 15.945C79.2483 15.6548 79.1246 15.2911 79.1246 14.8548C79.1246 14.2437 79.3646 13.7061 79.8446 13.24C80.2203 12.8754 80.7394 12.5285 81.4017 12.2001C80.9663 12.146 80.5386 12.0414 80.1273 11.8885C79.4734 11.6411 78.9572 11.2625 78.5795 10.7537C78.2009 10.2449 78.0121 9.59098 78.0121 8.79104C78.0121 7.99109 78.2009 7.33625 78.5795 6.82745C78.9572 6.30376 79.4734 5.92518 80.1283 5.69264C80.7822 5.44614 81.5235 5.32243 82.3523 5.32243C83.182 5.32243 83.9234 5.44614 84.5773 5.69357C85.0089 5.84611 85.3791 6.06284 85.6907 6.3419C85.8758 6.07494 86.1009 5.83681 86.366 5.62752C86.8608 5.24987 87.392 5.06012 87.9584 5.06012C88.4235 5.06012 88.7733 5.19127 89.0058 5.45358C89.2532 5.70008 89.377 6.0275 89.377 6.43491C89.377 6.87116 89.2598 7.19765 89.0272 7.41624C88.7947 7.62088 88.5333 7.72227 88.2421 7.72227C87.9861 7.71888 87.7393 7.62609 87.5445 7.45996C87.3399 7.28509 87.2245 7.02371 87.1957 6.6749C87.1706 6.36236 87.258 5.97541 87.458 5.51218C87.0339 5.69264 86.7064 5.8982 86.4758 6.12982C86.3018 6.29749 86.1499 6.48659 86.0237 6.69257C86.059 6.73629 86.0935 6.78187 86.126 6.82745C86.5046 7.33625 86.6934 7.99016 86.6934 8.79011C86.6934 9.59005 86.5046 10.2449 86.126 10.7537C85.7484 11.2625 85.2321 11.6411 84.5773 11.8885C83.9234 12.135 83.182 12.2587 82.3523 12.2587C82.2282 12.2588 82.1042 12.2561 81.9802 12.2503C81.784 12.3834 81.5951 12.5247 81.4147 12.6736C81.3026 12.7613 81.2127 12.874 81.1521 13.0028C81.0915 13.1315 81.062 13.2727 81.0659 13.4149C81.0659 13.88 81.357 14.1125 81.9384 14.1125H84.3159C85.1158 14.1125 85.8284 14.2074 86.4534 14.3962C87.0934 14.586 87.5947 14.8985 87.9584 15.3348C88.337 15.7562 88.5258 16.3087 88.5258 16.9924C88.5258 17.7049 88.2933 18.3662 87.8282 18.9773C87.3771 19.5885 86.6795 20.0749 85.7335 20.4386C84.7884 20.8172 83.5885 21.006 82.1346 21.006ZM82.3523 11.8662C82.7458 11.8662 83.0499 11.6485 83.2685 11.2123C83.4871 10.7611 83.5959 9.95375 83.5959 8.79104C83.5959 7.62739 83.4871 6.82744 83.2685 6.39119C83.0509 5.94006 82.7458 5.71496 82.3532 5.71496C81.9747 5.71496 81.6696 5.94006 81.437 6.39119C81.2184 6.82744 81.1096 7.62739 81.1096 8.79104C81.1096 9.95375 81.2184 10.7611 81.437 11.2123C81.6696 11.6485 81.9747 11.8662 82.3523 11.8662ZM74.643 5.91123C73.8431 5.51869 72.9129 5.32243 71.8516 5.32243C70.8191 5.32243 69.8954 5.51869 69.0815 5.91123C68.2816 6.30376 67.6491 6.93628 67.184 7.80878C66.7329 8.68128 66.5068 9.83748 66.5068 11.2774C66.5068 12.7173 66.7329 13.8726 67.1831 14.746C67.6482 15.6036 68.2807 16.2287 69.0806 16.6212C69.8954 17.0137 70.8191 17.2109 71.8516 17.2109C72.9129 17.2109 73.844 17.0137 74.643 16.6212C75.443 16.2287 76.0681 15.6036 76.5192 14.746C76.9703 13.8735 77.1954 12.7173 77.1954 11.2774C77.1954 9.83748 76.9703 8.68221 76.5192 7.80878C76.069 6.93628 75.443 6.30376 74.643 5.91123ZM70.3894 7.06743C70.7828 6.19493 71.2693 5.75868 71.8516 5.75868C72.4469 5.75868 72.9343 6.19493 73.312 7.06743C73.7054 7.92505 73.9017 9.32868 73.9017 11.2774C73.9017 13.2261 73.7054 14.6297 73.3129 15.4873C72.9343 16.345 72.4478 16.7747 71.8516 16.7747C71.2693 16.7747 70.7819 16.345 70.3894 15.4873C69.9968 14.6297 69.8006 13.2261 69.8006 11.2774C69.8006 9.32868 69.9968 7.92505 70.3894 7.06743Z" fill="var(--fill-0, #2F2352)"/>
<path id="Vector_5" d="M60.632 1.46124V1.89842C60.138 1.91238 59.7595 1.97005 59.4981 2.07237C59.3784 2.11287 59.2703 2.18162 59.1829 2.27278C59.0955 2.36393 59.0313 2.47482 58.9958 2.59605C58.9093 2.84255 58.8656 3.23601 58.8656 3.77365V14.8548C58.8656 15.305 58.8944 15.6398 58.953 15.8584C59.0256 16.0761 59.1567 16.2212 59.3455 16.2947C59.5492 16.3672 59.8478 16.4035 60.2394 16.4035H61.3091C61.8021 16.4035 62.2681 16.2872 62.7044 16.0547C63.1416 15.8222 63.5332 15.4947 63.882 15.0724C64.2499 14.6034 64.5444 14.0812 64.7554 13.5237C64.988 12.9284 65.1619 12.2661 65.2782 11.5387H65.7805C65.7367 12.0336 65.7154 12.6735 65.7154 13.4586C65.7154 13.7935 65.7219 14.2799 65.7367 14.9199C65.7516 15.5598 65.7944 16.2221 65.867 16.9049C65.0314 16.8741 64.1953 16.8595 63.3592 16.8612C62.4291 16.8472 61.5993 16.8398 60.8719 16.8398H59.4767C58.9093 16.8398 58.2982 16.8472 57.6443 16.8612C56.9894 16.8612 56.3281 16.8686 55.6593 16.8835C54.9895 16.8835 54.357 16.8909 53.7617 16.9049V16.4686C54.2268 16.4398 54.5756 16.3812 54.8082 16.2947C55.0407 16.2072 55.1933 16.0324 55.2667 15.771C55.3532 15.5087 55.397 15.1162 55.397 14.5925V3.77365C55.397 3.23508 55.3532 2.84348 55.2667 2.59605C55.2381 2.47505 55.1789 2.36339 55.0949 2.27172C55.0109 2.18006 54.9048 2.11142 54.7868 2.07237C54.5542 1.97005 54.2119 1.91238 53.7617 1.89749V1.46124C54.91 1.50379 56.0589 1.5255 57.208 1.52635C57.848 1.52635 58.473 1.51984 59.0832 1.50496C59.7092 1.49008 60.2255 1.47613 60.632 1.46124Z" fill="var(--fill-0, #2F2352)"/>
<path id="Vector_6" fill-rule="evenodd" clip-rule="evenodd" d="M158.009 34.9308C157.978 34.7745 157.999 34.5708 158.072 34.3197L161.145 23.1883C160.653 23.3901 160.144 23.5473 159.624 23.6581C159.091 23.7632 158.48 23.8199 157.79 23.8311L157.68 24.1604C158.192 24.1604 158.511 24.2441 158.637 24.4115C158.762 24.5789 158.777 24.8394 158.683 25.1947L157.956 27.9378C157.91 27.8055 157.832 27.687 157.727 27.5936C157.55 27.4262 157.304 27.3425 156.991 27.3425C156.364 27.3425 155.783 27.4839 155.25 27.7657C154.714 28.0586 154.232 28.4405 153.823 28.8949C153.394 29.3555 153.03 29.8725 152.742 30.4316C152.457 30.9757 152.231 31.5484 152.067 32.1403C151.919 32.6501 151.839 33.1776 151.832 33.7086C151.832 34.2099 151.911 34.6229 152.067 34.9466C152.224 35.2601 152.438 35.4954 152.71 35.6517C152.981 35.7987 153.285 35.8712 153.62 35.8712C154.131 35.8712 154.592 35.7205 154.999 35.4173C155.406 35.1038 155.788 34.6229 156.144 33.9746C156.293 33.7104 156.443 33.4137 156.591 33.0844L156.488 33.4732C156.394 33.7795 156.331 34.0946 156.3 34.4136C156.28 34.6853 156.3 34.9159 156.364 35.1038C156.488 35.6154 156.875 35.8721 157.524 35.8721C157.764 35.8721 158.009 35.8247 158.26 35.7308C158.511 35.6368 158.746 35.475 158.965 35.2443C159.196 35.0145 159.378 34.6862 159.514 34.2564L159.891 33.1123H159.593L159.342 33.8174C159.154 34.3513 158.976 34.7113 158.809 34.8992C158.652 35.0778 158.49 35.1661 158.323 35.1661C158.145 35.1661 158.041 35.088 158.009 34.9308ZM157.173 30.8939C157.055 31.2762 156.926 31.6399 156.787 31.9831C156.525 32.6528 156.248 33.2277 155.955 33.7086C155.673 34.1783 155.396 34.5439 155.125 34.8062C154.853 35.0564 154.612 35.182 154.404 35.182C154.205 35.182 154.059 35.088 153.965 34.9001C153.881 34.7011 153.839 34.4034 153.839 34.0062C153.839 33.4416 153.901 32.8668 154.027 32.2817C154.153 31.6864 154.325 31.1162 154.544 30.573C154.746 30.0632 154.998 29.5746 155.297 29.1145C155.579 28.6754 155.877 28.3303 156.191 28.0792C156.514 27.828 156.833 27.7034 157.147 27.7034C157.356 27.7034 157.524 27.7769 157.649 27.9229C157.737 28.0178 157.804 28.1554 157.85 28.3378L157.173 30.8939Z" fill="var(--fill-0, #2F2352)"/>
<path id="Vector_7" d="M147.577 35.6515H145.648L147.529 28.8948C147.624 28.5813 147.655 28.3618 147.624 28.2362C147.592 28.1106 147.499 28.0483 147.341 28.0483C147.143 28.0483 146.96 28.1478 146.793 28.346C146.625 28.5441 146.453 28.8948 146.275 29.3971L146.008 30.1328H145.711L146.118 28.9571C146.265 28.5385 146.447 28.2157 146.667 27.9851C146.886 27.7451 147.127 27.5776 147.389 27.4837C147.65 27.3897 147.916 27.3423 148.188 27.3423C148.523 27.3423 148.768 27.4102 148.925 27.5469C149.092 27.6828 149.197 27.8604 149.239 28.0799C149.292 28.3165 149.302 28.5606 149.27 28.8008C149.249 29.052 149.207 29.2975 149.144 29.5375L148.892 30.5207L148.956 30.3533C149.249 29.611 149.531 29.0203 149.803 28.5813C150.085 28.132 150.383 27.813 150.696 27.6251C151.004 27.4384 151.357 27.3405 151.716 27.3423C152.092 27.3423 152.379 27.4521 152.578 27.6716C152.787 27.8911 152.892 28.1627 152.892 28.4873C152.892 28.7478 152.828 28.9943 152.704 29.224C152.582 29.4396 152.409 29.6225 152.201 29.757C152.003 29.8826 151.774 29.9449 151.512 29.9449C151.251 29.9449 151.042 29.877 150.884 29.7412C150.738 29.6054 150.665 29.4064 150.665 29.1459C150.665 28.9152 150.718 28.7069 150.822 28.518C150.923 28.3342 151.062 28.174 151.229 28.0483C151.397 27.9125 151.58 27.8186 151.778 27.7655C151.756 27.744 151.73 27.728 151.7 27.719C151.665 27.708 151.628 27.7026 151.59 27.7032C151.361 27.7032 151.125 27.7869 150.884 27.9544C150.644 28.1106 150.393 28.3674 150.132 28.7227C149.87 29.078 149.604 29.5477 149.333 30.1328C149.026 30.8247 148.754 31.5312 148.517 32.2499C148.399 32.5978 148.28 32.9717 148.161 33.3726L147.577 35.6515Z" fill="var(--fill-0, #2F2352)"/>
<path id="Vector_8" fill-rule="evenodd" clip-rule="evenodd" d="M141.718 33.2295L141.652 33.4732C141.553 33.8273 141.485 34.1892 141.448 34.555C141.417 34.8899 141.469 35.1717 141.605 35.4015C141.814 35.7149 142.169 35.8721 142.67 35.8721C142.911 35.8721 143.151 35.8247 143.392 35.7308C143.643 35.6368 143.878 35.475 144.097 35.2443C144.317 35.0043 144.5 34.6694 144.646 34.2416L145.039 33.0975H144.74L144.505 33.8025C144.317 34.3457 144.135 34.7066 143.957 34.8843C143.779 35.061 143.606 35.1503 143.439 35.1503C143.303 35.1503 143.215 35.1085 143.173 35.0248C143.14 34.9183 143.129 34.8063 143.141 34.6955C143.162 34.5626 143.193 34.4316 143.235 34.3039L145.258 27.3425C144.943 27.4177 144.623 27.4703 144.301 27.4997C143.977 27.5313 143.628 27.5518 143.251 27.562L143.024 28.401C143.014 28.188 142.952 27.9806 142.844 27.7973C142.762 27.6544 142.643 27.5366 142.499 27.4564C142.355 27.3763 142.192 27.3369 142.028 27.3425C141.568 27.3425 141.109 27.4839 140.648 27.7657C140.159 28.0732 139.72 28.4541 139.347 28.8949C138.925 29.3757 138.557 29.9013 138.249 30.4623C137.941 31.0248 137.694 31.6189 137.513 32.2342C137.342 32.7879 137.252 33.3635 137.247 33.943C137.247 34.529 137.382 34.9987 137.654 35.354C137.926 35.6991 138.343 35.8712 138.908 35.8712C139.305 35.8712 139.687 35.7568 140.053 35.5271C140.429 35.2964 140.784 34.915 141.119 34.3829C141.326 34.062 141.525 33.6779 141.718 33.2295ZM140.366 34.8211C140.126 35.0406 139.912 35.1503 139.724 35.1503C139.567 35.1503 139.447 35.0722 139.363 34.915C139.289 34.7476 139.253 34.4713 139.253 34.0844C139.253 33.53 139.315 32.9607 139.441 32.3756C139.567 31.7896 139.734 31.2259 139.943 30.6827C140.163 30.1386 140.403 29.653 140.664 29.2242C140.925 28.7963 141.187 28.4559 141.448 28.2047C141.72 27.9536 141.976 27.829 142.217 27.829C142.467 27.829 142.644 27.9545 142.75 28.2047C142.854 28.4317 142.881 28.7359 142.83 29.1163L142.367 30.8297L142.42 30.5572C142.253 31.2259 142.054 31.8426 141.824 32.4073C141.624 32.912 141.383 33.3995 141.103 33.8648C140.852 34.2723 140.606 34.5913 140.366 34.8211ZM135.139 34.3197C135.065 34.5708 135.045 34.7745 135.077 34.9308C135.107 35.088 135.212 35.1662 135.39 35.1662C135.557 35.1662 135.719 35.0778 135.876 34.9001C136.043 34.7113 136.221 34.3513 136.409 33.8174L136.66 33.1123H136.957L136.582 34.2564C136.446 34.6853 136.263 35.0145 136.033 35.2443C135.837 35.4579 135.596 35.6243 135.327 35.7308C135.092 35.822 134.842 35.8699 134.59 35.8721C133.943 35.8721 133.556 35.6154 133.43 35.1038C133.364 34.8801 133.343 34.6456 133.368 34.4136C133.388 34.142 133.451 33.8276 133.556 33.4732L133.659 33.0844C133.509 33.4137 133.359 33.7104 133.211 33.9746C132.855 34.6229 132.474 35.1038 132.067 35.4164C131.669 35.7164 131.184 35.8766 130.686 35.8721C130.352 35.8721 130.049 35.7977 129.777 35.6526C129.497 35.487 129.273 35.241 129.135 34.9466C128.977 34.6229 128.899 34.2099 128.899 33.7086C128.899 33.2277 128.977 32.704 129.135 32.1403C129.291 31.5655 129.516 30.9962 129.808 30.4316C130.097 29.8727 130.461 29.3557 130.89 28.8949C131.319 28.4243 131.794 28.0485 132.317 27.7657C132.853 27.4828 133.451 27.3374 134.057 27.3425C134.371 27.3425 134.616 27.4262 134.794 27.5936C134.896 27.6839 134.973 27.7983 135.024 27.9378L135.75 25.1947C135.845 24.8394 135.829 24.578 135.704 24.4106C135.578 24.2431 135.259 24.1594 134.747 24.1594L134.857 23.8311C135.472 23.8276 136.086 23.7697 136.691 23.6581C137.211 23.5473 137.72 23.3901 138.212 23.1883L135.139 34.3197ZM133.853 31.9831C133.993 31.6389 134.122 31.2762 134.239 30.8939L134.918 28.3378C134.885 28.1852 134.816 28.0428 134.716 27.9229C134.654 27.8508 134.577 27.7937 134.49 27.7556C134.403 27.7176 134.309 27.6998 134.214 27.7034C133.901 27.7034 133.582 27.829 133.258 28.0792C132.944 28.3303 132.646 28.6754 132.364 29.1145C132.066 29.5741 131.813 30.0624 131.612 30.572C131.389 31.1254 131.216 31.6976 131.095 32.2817C130.971 32.8483 130.908 33.4263 130.906 34.0062C130.906 34.4034 130.948 34.7011 131.031 34.8992C131.125 35.088 131.272 35.182 131.47 35.182C131.68 35.182 131.92 35.0564 132.191 34.8052C132.464 34.5448 132.74 34.1783 133.023 33.7076C133.349 33.1577 133.626 32.5807 133.853 31.9831Z" fill="var(--fill-0, #2F2352)"/>
<path id="Vector_9" d="M120.265 35.6517H122.194L122.375 34.9429L122.366 34.9941C122.565 34.262 122.789 33.5569 123.04 32.877C123.284 32.2281 123.556 31.59 123.855 30.9646C124.138 30.3785 124.42 29.8669 124.702 29.4279C124.984 28.9889 125.256 28.6494 125.517 28.4084C125.779 28.1573 126.019 28.0327 126.238 28.0327C126.416 28.0327 126.526 28.095 126.567 28.2205C126.611 28.363 126.616 28.5144 126.583 28.6596C126.552 28.8295 126.51 28.9972 126.458 29.1619L125.032 33.4732C124.885 33.9123 124.801 34.2881 124.781 34.6015C124.759 34.915 124.817 35.1717 124.953 35.3698C125.058 35.527 125.204 35.647 125.392 35.7307C125.591 35.8238 125.826 35.8721 126.098 35.8721C126.348 35.8721 126.599 35.8247 126.85 35.7307C127.112 35.647 127.352 35.4898 127.571 35.2601C127.801 35.0303 127.99 34.6955 128.136 34.2564L128.527 33.1123H128.23L127.978 33.8174C127.78 34.3615 127.592 34.7215 127.415 34.8992C127.247 35.0778 127.086 35.1661 126.928 35.1661C126.761 35.1661 126.657 35.0982 126.615 34.9615C126.573 34.8164 126.599 34.6015 126.693 34.3197L128.23 29.7098C128.365 29.3023 128.433 28.921 128.433 28.5656C128.444 28.2001 128.345 27.9071 128.136 27.6876C127.937 27.4578 127.581 27.3434 127.07 27.3434C126.683 27.3434 126.312 27.4271 125.956 27.5936C125.601 27.761 125.256 28.0531 124.922 28.4717C124.587 28.8791 124.242 29.4335 123.887 30.133C123.651 30.6048 123.435 31.0861 123.238 31.5757L123.761 29.5377C123.824 29.2865 123.871 29.0354 123.902 28.7852C123.934 28.5247 123.923 28.2885 123.871 28.0792C123.821 27.8631 123.693 27.6731 123.511 27.5462C123.333 27.4104 123.072 27.3425 122.727 27.3425C122.308 27.3425 121.927 27.4578 121.582 27.6876C121.238 27.9173 120.955 28.3405 120.735 28.9572L120.328 30.133H120.625L120.892 29.3963C121.08 28.8847 121.252 28.534 121.41 28.3461C121.577 28.148 121.759 28.0485 121.958 28.0485C122.104 28.0485 122.194 28.0903 122.225 28.174C122.266 28.2578 122.277 28.3619 122.256 28.4875C122.233 28.625 122.201 28.761 122.162 28.8949L120.265 35.6517Z" fill="var(--fill-0, #2F2352)"/>
<path id="Vector_10" fill-rule="evenodd" clip-rule="evenodd" d="M116.269 33.4732L116.335 33.2295C116.168 33.6299 115.968 34.0157 115.736 34.3829C115.402 34.915 115.046 35.2973 114.67 35.527C114.304 35.7568 113.923 35.8712 113.525 35.8712C112.961 35.8712 112.543 35.6991 112.272 35.354C111.999 34.9987 111.863 34.529 111.863 33.943C111.863 33.3997 111.953 32.8305 112.13 32.2342C112.312 31.6189 112.559 31.0248 112.867 30.4623C113.174 29.9011 113.542 29.3755 113.964 28.8949C114.338 28.4541 114.777 28.0732 115.266 27.7657C115.725 27.4839 116.186 27.3425 116.645 27.3425C117.001 27.3425 117.272 27.4941 117.461 27.7983C117.561 27.9536 117.622 28.1545 117.641 28.401L117.868 27.562C118.244 27.5518 118.595 27.5313 118.919 27.4997C119.253 27.468 119.572 27.4159 119.875 27.3425L117.853 34.3048C117.81 34.4324 117.779 34.5634 117.759 34.6964C117.747 34.8072 117.758 34.9192 117.79 35.0257C117.832 35.1094 117.92 35.1513 118.056 35.1513C118.224 35.1513 118.396 35.0629 118.573 34.8852C118.751 34.7076 118.934 34.3457 119.122 33.8034L119.358 33.0974H119.655L119.264 34.2415C119.118 34.6704 118.934 35.0043 118.715 35.2461C118.52 35.4592 118.279 35.6252 118.01 35.7317C117.78 35.8237 117.535 35.8717 117.288 35.8731C116.787 35.8731 116.431 35.7159 116.222 35.4024C116.086 35.1726 116.034 34.8908 116.066 34.5559C116.102 34.1901 116.17 33.8273 116.269 33.4732ZM114.34 35.1503C114.529 35.1503 114.743 35.0406 114.984 34.821C115.224 34.5913 115.469 34.2722 115.721 33.8648C115.971 33.4574 116.212 32.9719 116.442 32.4072C116.671 31.8426 116.87 31.2259 117.038 30.5562L116.985 30.8297L117.448 29.1172C117.497 28.7359 117.47 28.4317 117.367 28.2057C117.262 27.9545 117.084 27.8289 116.833 27.8289C116.593 27.8289 116.337 27.9545 116.066 28.2047C115.804 28.4559 115.543 28.7954 115.282 29.2242C115.02 29.6521 114.779 30.1386 114.56 30.6818C114.349 31.2323 114.182 31.7983 114.058 32.3747C113.936 32.9363 113.873 33.5094 113.871 34.0843C113.871 34.4713 113.907 34.7485 113.98 34.915C114.064 35.0722 114.184 35.1503 114.34 35.1503Z" fill="var(--fill-0, #2F2352)"/>
<path id="Vector_11" d="M112.951 27.8755L112.998 27.562H111.13L111.869 24.991C111.56 25.0671 111.245 25.1197 110.928 25.1482C110.605 25.1789 110.254 25.2003 109.878 25.2105L109.204 27.562H107.777L107.699 27.8755H109.115L107.51 33.4732C107.374 33.9327 107.328 34.3457 107.37 34.7113C107.422 35.0666 107.568 35.3494 107.809 35.5577C108.059 35.767 108.42 35.8721 108.89 35.8721C109.423 35.8721 109.883 35.7308 110.27 35.448C110.657 35.1661 110.96 34.7011 111.18 34.0527L111.493 33.1123H111.194L110.96 33.7551C110.771 34.2778 110.563 34.6434 110.332 34.8527C110.113 35.062 109.893 35.1661 109.674 35.1661C109.587 35.169 109.502 35.152 109.423 35.1166C109.344 35.0811 109.275 35.028 109.22 34.9615C109.115 34.8266 109.104 34.6127 109.188 34.3197L111.04 27.8755H112.951ZM107.758 24.4422C107.654 24.7138 107.513 25.1119 107.335 25.6338C107.168 26.1453 107.001 26.8151 106.834 27.6401H106.52C106.551 27.4941 106.572 27.3425 106.583 27.1862C106.603 27.046 106.613 26.9046 106.614 26.763C106.614 26.3546 106.531 26.0002 106.363 25.697C106.202 25.379 105.944 25.1206 105.626 24.9594C105.303 24.7715 104.884 24.6775 104.373 24.6775C103.818 24.6775 103.348 24.8236 102.962 25.1166C102.575 25.3984 102.381 25.8533 102.381 26.4802C102.381 26.8672 102.469 27.2336 102.647 27.5778C102.836 27.9127 103.071 28.242 103.353 28.5656C103.646 28.8791 103.954 29.1982 104.278 29.5219C104.602 29.8353 104.906 30.16 105.187 30.4939C105.469 30.8288 105.7 31.1841 105.878 31.5599C106.066 31.9264 106.159 32.3282 106.159 32.7672C106.159 33.3216 106.024 33.7969 105.752 34.1941C105.487 34.5843 105.139 34.9109 104.733 35.1503C104.307 35.3939 103.847 35.5735 103.369 35.6833C102.909 35.8063 102.434 35.8697 101.958 35.8721C101.487 35.8721 101.096 35.8349 100.782 35.7624C100.514 35.7119 100.255 35.622 100.014 35.4954C99.8086 35.3829 99.6046 35.2682 99.4018 35.1513C99.3095 35.0738 99.203 35.0151 99.0883 34.9783C99.0153 34.9415 98.9355 34.92 98.8539 34.915C98.7172 34.915 98.6028 34.9829 98.5088 35.1196C98.3855 35.3238 98.2806 35.5386 98.1954 35.7615H97.881C98.1399 35.1239 98.355 34.4694 98.5246 33.8025C98.6493 33.3216 98.7907 32.7207 98.9479 31.9989H99.2613C99.2176 32.2066 99.181 32.4157 99.1516 32.6258C99.1199 32.8351 99.1097 33.0444 99.1199 33.2537C99.1516 33.9848 99.3757 34.5494 99.7943 34.9466C100.223 35.3438 100.85 35.5419 101.675 35.5419C102.376 35.5419 102.904 35.3959 103.259 35.1038C103.615 34.8006 103.792 34.3615 103.792 33.7867C103.792 33.3477 103.708 32.9495 103.541 32.5952C103.383 32.2265 103.172 31.883 102.914 31.5757C102.648 31.2576 102.371 30.9492 102.083 30.6511C101.795 30.3529 101.518 30.0442 101.252 29.7256C100.995 29.409 100.779 29.0615 100.609 28.6912C100.438 28.2953 100.353 27.8677 100.359 27.4364C100.359 26.9146 100.469 26.4597 100.688 26.0728C100.909 25.6954 101.208 25.3694 101.565 25.1166C101.931 24.8552 102.34 24.6588 102.773 24.5361C103.194 24.4032 103.632 24.3345 104.074 24.3324C104.639 24.3324 105.104 24.4003 105.469 24.5371C105.836 24.672 106.149 24.8347 106.411 25.0226L106.708 25.2105C106.802 25.2524 106.876 25.2728 106.928 25.2728C107.074 25.2728 107.247 24.9966 107.445 24.4422H107.758Z" fill="var(--fill-0, #2F2352)"/>
<path id="Vector_12" fill-rule="evenodd" clip-rule="evenodd" d="M92.6246 34.9308C92.5929 34.7745 92.6143 34.5708 92.6878 34.3197L95.7602 23.1883C95.2683 23.3901 94.7593 23.5473 94.2393 23.6581C93.7064 23.7632 93.0952 23.8199 92.405 23.8311L92.2953 24.1604C92.8069 24.1604 93.1269 24.2441 93.2515 24.4115C93.3771 24.5789 93.3929 24.8394 93.2989 25.1947L92.5715 27.9378C92.5259 27.8054 92.4471 27.687 92.3427 27.5936C92.1651 27.4262 91.9195 27.3425 91.606 27.3425C90.9782 27.3425 90.3987 27.4839 89.8657 27.7657C89.3295 28.0586 88.8471 28.4405 88.4388 28.8949C88.0099 29.3555 87.6459 29.8725 87.357 30.4316C87.0723 30.9756 86.8462 31.5484 86.6826 32.1403C86.5338 32.65 86.4546 33.1776 86.4473 33.7086C86.4473 34.2099 86.5264 34.6229 86.6826 34.9466C86.8398 35.2601 87.0538 35.4954 87.3254 35.6517C87.597 35.7987 87.9002 35.8712 88.2351 35.8712C88.7467 35.8712 89.2071 35.7205 89.6145 35.4173C90.0219 35.1038 90.4033 34.6229 90.7586 33.9746C90.9075 33.7104 91.0572 33.4137 91.207 33.0844L91.1047 33.4732C91.0095 33.7794 90.9463 34.0945 90.9158 34.4136C90.8909 34.6456 90.912 34.8801 90.9782 35.1038C91.1037 35.6154 91.4897 35.8721 92.139 35.8721C92.379 35.8721 92.6246 35.8247 92.8757 35.7308C93.1269 35.6368 93.3613 35.475 93.5808 35.2443C93.8115 35.0145 93.9938 34.6862 94.1296 34.2564L94.5063 33.1123H94.2086L93.9575 33.8174C93.7696 34.3513 93.5919 34.7113 93.4245 34.8992C93.2673 35.0778 93.1055 35.1661 92.938 35.1661C92.7613 35.1661 92.6562 35.088 92.6246 34.9308ZM91.7874 30.8939C91.6702 31.2762 91.5418 31.6399 91.4014 31.9831C91.1409 32.6528 90.8637 33.2277 90.5707 33.7086C90.2889 34.1783 90.0117 34.5439 89.7401 34.8062C89.4685 35.0564 89.2285 35.182 89.0183 35.182C88.8202 35.182 88.6741 35.088 88.5802 34.9001C88.4965 34.7011 88.4546 34.4034 88.4546 34.0062C88.4546 33.4416 88.5169 32.8668 88.6425 32.2817C88.7681 31.6864 88.9401 31.1162 89.1597 30.573C89.3619 30.0631 89.6143 29.5745 89.9131 29.1145C90.195 28.6754 90.4926 28.3303 90.8061 28.0792C91.1298 27.828 91.4488 27.7034 91.7623 27.7034C91.9716 27.7034 92.139 27.7769 92.2646 27.9229C92.352 28.0178 92.419 28.1554 92.4655 28.3378L91.7874 30.8939Z" fill="var(--fill-0, #2F2352)"/>
<path id="Vector_13" d="M79.7417 35.6517H77.8135L79.711 28.8949C79.7529 28.7489 79.7836 28.6131 79.804 28.4875C79.8273 28.3824 79.8166 28.2726 79.7733 28.174C79.7417 28.0903 79.6524 28.0485 79.5064 28.0485C79.3083 28.0485 79.125 28.148 78.9576 28.3461C78.8013 28.534 78.6283 28.8847 78.4404 29.3972L78.1744 30.133H77.8767L78.2841 28.9572C78.5037 28.3405 78.7864 27.9173 79.1306 27.6876C79.4748 27.4578 79.8561 27.3434 80.2747 27.3434C80.6198 27.3434 80.8812 27.4104 81.0588 27.5462C81.241 27.673 81.3696 27.8629 81.4197 28.0792C81.4718 28.2885 81.4821 28.5238 81.4514 28.7852C81.4194 29.0386 81.3722 29.2899 81.31 29.5377L80.7872 31.5766C81.0086 31.0287 81.2244 30.5488 81.4356 30.133C81.7909 29.4335 82.135 28.8791 82.4699 28.4717C82.8048 28.0531 83.1489 27.761 83.5043 27.5936C83.8605 27.4262 84.2307 27.3425 84.6177 27.3425C85.1293 27.3425 85.4855 27.4578 85.6836 27.6876C85.8929 27.9071 85.9925 28.1992 85.9813 28.5656C85.9813 28.921 85.9143 29.3023 85.7776 29.7098L84.2419 34.3197C84.147 34.6015 84.121 34.8164 84.1628 34.9615C84.2047 35.0982 84.3098 35.1661 84.4772 35.1661C84.6335 35.1661 84.7953 35.0778 84.9628 34.9001C85.1404 34.7215 85.3283 34.3606 85.5274 33.8174L85.7785 33.1123H86.0762L85.6836 34.2564C85.5376 34.6955 85.3488 35.0303 85.12 35.261C84.923 35.4761 84.6746 35.6377 84.3982 35.7307C84.1579 35.8229 83.903 35.8708 83.6456 35.8721C83.374 35.8721 83.1387 35.8247 82.9406 35.7307C82.7517 35.647 82.6057 35.5261 82.5015 35.3698C82.3657 35.1717 82.3081 34.915 82.3285 34.6015C82.3499 34.2881 82.4336 33.9123 82.5797 33.4732L84.0066 29.1619C84.0586 28.9944 84.1005 28.827 84.1321 28.6596C84.165 28.5143 84.1596 28.363 84.1163 28.2205C84.0745 28.095 83.9647 28.0327 83.787 28.0327C83.5675 28.0327 83.3266 28.1582 83.0661 28.4084C82.8048 28.6494 82.5322 28.9889 82.2504 29.4279C81.9375 29.9226 81.6549 30.4358 81.4039 30.9646C81.1221 31.5506 80.8495 32.1868 80.5882 32.877C80.337 33.556 80.1138 34.262 79.9147 34.9941L79.924 34.9429L79.7417 35.6517Z" fill="var(--fill-0, #2F2352)"/>
<path id="Vector_14" fill-rule="evenodd" clip-rule="evenodd" d="M73.8834 33.2295L73.8183 33.4732C73.7195 33.8273 73.6511 34.1892 73.6137 34.555C73.582 34.8898 73.6341 35.1717 73.7699 35.4014C73.9792 35.7149 74.3345 35.8721 74.8368 35.8721C75.1049 35.8702 75.3697 35.8135 75.6151 35.7055C75.8605 35.5976 76.0812 35.4406 76.2637 35.2442C76.4832 35.0043 76.6656 34.6694 76.8125 34.2415L77.2032 33.0974H76.9055L76.6711 33.8025C76.4823 34.3457 76.2991 34.7066 76.1223 34.8843C75.9447 35.061 75.7717 35.1503 75.6052 35.1503C75.4684 35.1503 75.3801 35.1084 75.3382 35.0247C75.3055 34.9182 75.2947 34.8062 75.3066 34.6954C75.328 34.5596 75.3587 34.4294 75.4014 34.3038L77.4236 27.3424C77.1091 27.4176 76.7895 27.4702 76.4674 27.4996C76.1428 27.5313 75.7931 27.5517 75.4163 27.562L75.1894 28.401C75.1797 28.188 75.1177 27.9806 75.0089 27.7973C74.9273 27.6545 74.8083 27.5368 74.6647 27.4566C74.5211 27.3765 74.3584 27.337 74.1941 27.3424C73.7337 27.3424 73.2732 27.4838 72.8137 27.7657C72.3542 28.0484 71.9207 28.4242 71.5124 28.8949C71.0901 29.3755 70.722 29.9011 70.4148 30.4622C70.1065 31.0248 69.8595 31.6189 69.6781 32.2342C69.5071 32.7879 69.4175 33.3635 69.4121 33.9429C69.4121 34.5289 69.5479 34.9987 69.8195 35.354C70.0911 35.6991 70.5097 35.8712 71.0734 35.8712C71.4705 35.8712 71.8528 35.7568 72.2175 35.527C72.5942 35.2963 72.9505 34.915 73.2844 34.3829C73.4918 34.062 73.6909 33.6778 73.8834 33.2295ZM72.5319 34.821C72.2919 35.0405 72.077 35.1503 71.8891 35.1503C71.7319 35.1503 71.6119 35.0722 71.5282 34.915C71.4557 34.7475 71.4185 34.4713 71.4185 34.0843C71.4185 33.5299 71.4817 32.9607 71.6073 32.3756C71.7319 31.7896 71.8994 31.2259 72.1086 30.6827C72.3282 30.1385 72.5681 29.653 72.8295 29.2242C73.0909 28.7963 73.3523 28.4558 73.6137 28.2047C73.8853 27.9536 74.1411 27.8289 74.382 27.8289C74.6331 27.8289 74.8099 27.9545 74.915 28.2047C75.0192 28.4317 75.0452 28.7358 74.9959 29.1163L74.5327 30.8296L74.5857 30.5571C74.4183 31.2259 74.2201 31.8426 73.9904 32.4072C73.7597 32.9709 73.5197 33.4574 73.2686 33.8648C73.0174 34.2722 72.7719 34.5913 72.5319 34.821Z" fill="var(--fill-0, #2F2352)"/>
<path id="Vector_15" d="M65.2193 35.6515H63.291L65.1718 28.8948C65.2658 28.5813 65.2974 28.3618 65.2658 28.2362C65.2351 28.1106 65.1411 28.0483 64.9839 28.0483C64.7858 28.0483 64.6026 28.1478 64.4351 28.346C64.2677 28.5441 64.0956 28.8948 63.918 29.3971L63.651 30.1328H63.3533L63.7607 28.9571C63.9077 28.5385 64.09 28.2157 64.3096 27.9851C64.5291 27.7451 64.77 27.5776 65.0314 27.4837C65.2918 27.3897 65.5588 27.3423 65.8313 27.3423C66.1652 27.3423 66.4108 27.4102 66.5671 27.5469C66.7333 27.6803 66.8452 27.8699 66.8815 28.0799C66.9336 28.2995 66.9438 28.5394 66.9122 28.8008C66.8917 29.052 66.8499 29.2975 66.7866 29.5375L66.5355 30.5207L66.5606 30.4528L66.5987 30.3533C66.8917 29.611 67.1736 29.0203 67.4452 28.5813C67.7279 28.132 68.0256 27.813 68.3391 27.6251C68.6462 27.4384 68.9991 27.3405 69.3585 27.3423C69.7343 27.3423 70.0217 27.4521 70.2208 27.6716C70.4291 27.8911 70.5343 28.1627 70.5343 28.4873C70.5343 28.7478 70.471 28.9943 70.3454 29.224C70.2238 29.4396 70.0518 29.6224 69.8441 29.757C69.6369 29.8848 69.3972 29.95 69.1539 29.9449C68.8934 29.9449 68.6841 29.877 68.5269 29.7412C68.3809 29.6054 68.3074 29.4064 68.3074 29.1459C68.3074 28.9152 68.3595 28.7069 68.4646 28.518C68.5688 28.3302 68.7046 28.1739 68.872 28.0483C69.0395 27.9125 69.2218 27.8186 69.4208 27.7655C69.3988 27.7441 69.372 27.7282 69.3427 27.719C69.3219 27.712 69.3004 27.7073 69.2785 27.7051C69.2631 27.7036 69.2475 27.703 69.232 27.7032C69.0032 27.7032 68.7669 27.7869 68.5269 27.9544C68.287 28.1106 68.0358 28.3674 67.7744 28.7227C67.514 29.078 67.247 29.5477 66.9745 30.1328C66.668 30.8246 66.3961 31.5312 66.1597 32.2499C66.0415 32.5968 65.9225 32.9717 65.8034 33.3726L65.2193 35.6515Z" fill="var(--fill-0, #2F2352)"/>
<path id="Vector_16" fill-rule="evenodd" clip-rule="evenodd" d="M62.2857 25.1324C61.7629 24.7556 60.9267 24.5678 59.777 24.5678C59.4217 24.5678 59.0664 24.5733 58.7101 24.5836C58.366 24.5938 57.9688 24.5994 57.5195 24.5994H56.7354C56.4526 24.5882 56.1866 24.5836 55.9354 24.5836C55.7264 24.5744 55.5174 24.5638 55.3085 24.5519L55.2303 24.8654C55.6378 24.8654 55.915 24.9175 56.061 25.0226C56.2182 25.1156 56.2907 25.2626 56.2805 25.4616C56.2594 25.7155 56.2174 25.9672 56.1549 26.2142L54.0853 33.9904C53.9923 34.3662 53.8872 34.6489 53.7718 34.8368C53.6677 35.0166 53.5002 35.1509 53.3021 35.2136C53.103 35.2759 52.8259 35.3177 52.4705 35.3382L52.4082 35.6517C52.5849 35.6424 52.7998 35.6368 53.05 35.6368C53.3012 35.6256 53.5681 35.621 53.85 35.621C54.639 35.597 55.4286 35.6023 56.2173 35.6368C56.6461 35.6461 57.0386 35.6526 57.3939 35.6526C58.0729 35.6526 58.7157 35.5838 59.3222 35.448C59.8812 35.3212 60.4158 35.1044 60.9053 34.8061C61.3432 34.5453 61.7138 34.1853 61.9871 33.7551C62.2587 33.3365 62.3945 32.8463 62.3945 32.2817C62.3945 31.6436 62.1341 31.0948 61.6113 30.6353C61.0997 30.1748 60.2886 29.9032 59.1808 29.8195C59.872 29.7203 60.5435 29.5141 61.1713 29.2084C61.7574 28.9051 62.2169 28.534 62.5517 28.095C62.8888 27.6781 63.0715 27.1576 63.0689 26.6216C63.0689 25.9946 62.8094 25.4979 62.2857 25.1324ZM57.2814 30.0241L56.2331 33.9904C56.1707 34.2508 56.1289 34.4815 56.1084 34.6796C56.0973 34.8787 56.1494 35.0303 56.2647 35.1354C56.38 35.2396 56.594 35.2917 56.9074 35.2917C57.6497 35.2917 58.2562 35.1503 58.7259 34.8685C59.1862 34.5978 59.5529 34.1932 59.777 33.7085C60.0068 33.2063 60.1212 32.6416 60.1212 32.0156C60.1212 31.6278 60.0533 31.2882 59.9175 30.9962C59.7979 30.6994 59.5829 30.451 59.3064 30.2902C59.0245 30.1125 58.6478 30.0241 58.1771 30.0241H57.2814ZM57.3521 29.7572H58.0683C58.6636 29.7572 59.1705 29.6056 59.5882 29.3023C60.017 28.9889 60.3416 28.5814 60.5612 28.0801C60.7898 27.5834 60.9072 27.0428 60.9053 26.496C60.9053 25.9732 60.8011 25.5714 60.5919 25.2886C60.3937 25.0068 60.0431 24.8654 59.5408 24.8654C59.1761 24.8654 58.9148 24.9389 58.7576 25.0849C58.6013 25.2207 58.4655 25.5184 58.3501 25.9779L57.3521 29.7572Z" fill="var(--fill-0, #2F2352)"/>
</g>
<defs>
<clipPath id="clip0_0_307">
<rect width="161.85" height="36.2767" fill="white"/>
</clipPath>
</defs>
</svg>
