<svg preserveAspectRatio="none" width="100%" height="100%" overflow="visible" style="display: block;" viewBox="0 0 74.4137 74.4137" fill="none" xmlns="http://www.w3.org/2000/svg">
<g id="Logo" clip-path="url(#clip0_0_263)">
<path id="Vector" d="M74.4137 37.2069C74.4137 57.7556 57.7556 74.4137 37.2069 74.4137C16.6581 74.4137 0 57.7556 0 37.2069C0 16.6581 16.6581 0 37.2069 0C57.7556 0 74.4137 16.6581 74.4137 37.2069Z" fill="var(--fill-0, #1D2633)"/>
<path id="Vector_2" d="M64.8453 46.707C66.1018 46.707 66.9955 47.9281 66.523 49.0923C61.8251 60.6688 50.4692 68.8327 37.2065 68.8327C23.9439 68.8327 12.588 60.6688 7.89003 49.0923C7.41753 47.9281 8.31126 46.707 9.56776 46.707H64.8453Z" fill="var(--fill-0, #EDEBDE)"/>
<path id="Vector_3" d="M66.523 25.3214C66.9955 26.4857 66.1018 27.7068 64.8453 27.7068H9.56774C8.31126 27.7068 7.41754 26.4857 7.89003 25.3214C12.588 13.7449 23.9439 5.58109 37.2065 5.58109C50.4691 5.58109 61.825 13.7449 66.523 25.3214Z" fill="var(--fill-0, #EDEBDE)"/>
<path id="Vector_4" d="M64.9608 34.5557C67.0511 34.5557 68.0598 36.014 68.0598 37.7032V40.8751H65.8723V38.08C65.8723 37.3144 65.5928 36.6824 64.7907 36.6824C63.9886 36.6824 63.7213 37.3144 63.7213 38.08V40.8751H61.5338V38.08C61.5338 37.3144 61.2665 36.6824 60.4644 36.6824C59.6623 36.6824 59.3828 37.3144 59.3828 38.08V40.8751H57.1953V37.7032C57.1953 36.014 58.204 34.5557 60.2943 34.5557C61.4366 34.5557 62.263 35.0053 62.6397 35.7467C63.0408 35.0053 63.9158 34.5557 64.9608 34.5557Z" fill="var(--fill-0, #EDEBDE)"/>
<path id="Vector_5" d="M53.2644 38.9307C53.9693 38.9307 54.2731 38.2866 54.2731 37.521V34.7988H56.4606V37.7883C56.4606 39.5747 55.4154 41.0574 53.2644 41.0574C51.1134 41.0574 50.0684 39.5747 50.0684 37.7883V34.7988H52.2558V37.521C52.2558 38.2866 52.5596 38.9307 53.2644 38.9307Z" fill="var(--fill-0, #EDEBDE)"/>
<path id="Vector_6" d="M46.8512 41.0696C45.478 41.0696 44.5908 40.5957 44.0684 39.6721L45.6482 38.7849C45.8669 39.1738 46.195 39.3682 46.7419 39.3682C47.1915 39.3682 47.3981 39.2103 47.3981 39.0159C47.3981 38.2745 44.1898 39.028 44.1898 36.6703C44.1898 35.528 45.1621 34.6044 46.8148 34.6044C48.261 34.6044 49.0509 35.3092 49.4034 35.9898L47.8235 36.8891C47.6898 36.5245 47.2766 36.3058 46.8634 36.3058C46.5475 36.3058 46.3773 36.4395 46.3773 36.6218C46.3773 37.3752 49.5856 36.6825 49.5856 38.9672C49.5856 40.2432 48.3339 41.0696 46.8512 41.0696Z" fill="var(--fill-0, #EDEBDE)"/>
<path id="Vector_7" d="M39.209 43.6703H37.0215V37.8249C37.0215 35.9656 38.4191 34.6166 40.3635 34.6166C42.2593 34.6166 43.7055 36.0628 43.7055 37.8249C43.7055 39.7693 42.4174 41.0575 40.485 41.0575C40.0354 41.0575 39.5857 40.9239 39.209 40.7172V43.6703ZM40.3635 39.0037C41.0562 39.0037 41.518 38.469 41.518 37.8371C41.518 37.1929 41.0562 36.6704 40.3635 36.6704C39.6709 36.6704 39.209 37.1929 39.209 37.8371C39.209 38.469 39.6709 39.0037 40.3635 39.0037Z" fill="var(--fill-0, #EDEBDE)"/>
<path id="Vector_8" d="M34.8303 34.1547C34.1133 34.1547 33.5178 33.5592 33.5178 32.8422C33.5178 32.1252 34.1133 31.5297 34.8303 31.5297C35.5474 31.5297 36.1428 32.1252 36.1428 32.8422C36.1428 33.5592 35.5474 34.1547 34.8303 34.1547ZM33.7366 34.7988H35.9241V40.8751H33.7366V34.7988Z" fill="var(--fill-0, #EDEBDE)"/>
<path id="Vector_9" d="M29.5393 41.0575C27.6435 41.0575 26.1973 39.5992 26.1973 37.8249C26.1973 36.0628 27.6435 34.6044 29.5393 34.6044C31.4351 34.6044 32.8813 36.0628 32.8813 37.8249C32.8813 39.5992 31.4351 41.0575 29.5393 41.0575ZM29.5393 39.0037C30.232 39.0037 30.6938 38.4689 30.6938 37.8371C30.6938 37.1929 30.232 36.6582 29.5393 36.6582C28.8466 36.6582 28.3847 37.1929 28.3847 37.8371C28.3847 38.4689 28.8466 39.0037 29.5393 39.0037Z" fill="var(--fill-0, #EDEBDE)"/>
<path id="Vector_10" d="M22.0671 43.8526C20.5601 43.8526 19.4664 43.1842 18.9074 41.9933L20.7182 41.0211C20.9126 41.4342 21.2772 41.8596 22.0306 41.8596C22.8205 41.8596 23.3431 41.3613 23.4038 40.4863C23.1122 40.7415 22.6504 40.9359 21.9577 40.9359C20.2685 40.9359 18.9074 39.6357 18.9074 37.8127C18.9074 36.0506 20.3535 34.6166 22.2494 34.6166C24.1937 34.6166 25.5913 35.9656 25.5913 37.8249V40.2312C25.5913 42.4185 24.0723 43.8526 22.0671 43.8526ZM22.2129 38.8821C22.8692 38.8821 23.3674 38.4325 23.3674 37.7642C23.3674 37.1079 22.8692 36.6704 22.2129 36.6704C21.5688 36.6704 21.0584 37.1079 21.0584 37.7642C21.0584 38.4325 21.5688 38.8821 22.2129 38.8821Z" fill="var(--fill-0, #EDEBDE)"/>
<path id="Vector_11" d="M15.1965 41.0575C13.3007 41.0575 11.8545 39.5992 11.8545 37.8249C11.8545 36.0628 13.3007 34.6044 15.1965 34.6044C17.0923 34.6044 18.5385 36.0628 18.5385 37.8249C18.5385 39.5992 17.0923 41.0575 15.1965 41.0575ZM15.1965 39.0037C15.8892 39.0037 16.351 38.4689 16.351 37.8371C16.351 37.1929 15.8892 36.6582 15.1965 36.6582C14.5038 36.6582 14.042 37.1929 14.042 37.8371C14.042 38.4689 14.5038 39.0037 15.1965 39.0037Z" fill="var(--fill-0, #EDEBDE)"/>
<path id="Vector_12" d="M7.87134 32.6722V38.8093H11.4928V40.8752H7.56753C6.18212 40.8752 5.62311 40.146 5.62311 38.9915V32.6722H7.87134Z" fill="var(--fill-0, #EDEBDE)"/>
<path id="Vector_13" d="M31.6259 6.07196C33.4376 5.74939 35.3026 5.58108 37.207 5.58108C39.1113 5.58108 40.9763 5.74939 42.7879 6.07196V27.7068H31.6259V6.07196Z" fill="var(--fill-0, #AC2828)"/>
<path id="Vector_14" d="M42.788 46.707H31.6249C31.6015 51.5605 30.7172 56.3719 29.0126 60.9175L26.7129 67.0501C29.9965 68.2047 33.5282 68.8327 37.2065 68.8327C40.8848 68.8327 44.4165 68.2047 47.7001 67.0501L45.4003 60.9175C43.6958 56.3719 42.8115 51.5605 42.788 46.707Z" fill="var(--fill-0, #AC2828)"/>
<path id="Vector_15" d="M42.788 6.07178C46.8257 6.7907 50.5983 8.27583 53.95 10.3715V27.7066H42.788V6.07178Z" fill="var(--fill-0, #306A9F)"/>
<path id="Vector_16" d="M47.7001 67.0501C52.7764 65.2652 57.2601 62.2218 60.7763 58.2942L60.2276 57.945C56.3733 55.4923 54.0176 51.2661 53.9511 46.707H42.7881C42.8115 51.5605 43.6958 56.3719 45.4005 60.9175L47.7001 67.0501Z" fill="var(--fill-0, #306A9F)"/>
<path id="Vector_17" d="M20.4638 10.3715C23.8154 8.27584 27.588 6.7907 31.6258 6.07178V27.7066H20.4638V10.3715Z" fill="var(--fill-0, #DEB038)"/>
<path id="Vector_18" d="M20.4623 46.707H31.6252C31.6019 51.5398 30.725 56.3308 29.0347 60.8592L26.7132 67.0501C21.6368 65.2652 17.1533 62.2217 13.6369 58.2942L14.1857 57.945C18.0399 55.4922 20.3958 51.2661 20.4623 46.707Z" fill="var(--fill-0, #DEB038)"/>
</g>
<defs>
<clipPath id="clip0_0_263">
<rect width="74.4137" height="74.4137" fill="white"/>
</clipPath>
</defs>
</svg>
