<svg preserveAspectRatio="none" width="100%" height="100%" overflow="visible" style="display: block;" viewBox="0 0 162.78 37.2069" fill="none" xmlns="http://www.w3.org/2000/svg">
<g id="Logo" clip-path="url(#clip0_0_340)">
<path id="Vector" d="M158.496 7.12897L162.378 11.0382C162.514 11.1462 162.614 11.2919 162.666 11.457C162.746 12.4192 162.017 12.4718 161.273 12.5256C160.951 12.5488 160.627 12.5724 160.363 12.6699C159.057 13.0232 157.893 13.7696 157.027 14.8077C156.16 15.8457 155.634 17.1253 155.52 18.4726C155.436 18.6282 155.31 18.7563 155.154 18.8414C155 18.9266 154.824 18.9651 154.647 18.9525C154.443 18.9344 154.251 18.8448 154.106 18.6994L152.832 17.4163C152.841 17.5042 152.841 17.5911 152.841 17.6611V18.5074C152.841 18.5609 152.843 18.6124 152.836 18.6639C152.828 18.7216 152.809 18.779 152.763 18.8389V18.9175C152.763 18.9576 152.768 18.9949 152.772 19.0328C152.782 19.1103 152.792 19.1901 152.763 19.3015C152.735 19.4054 152.732 19.5266 152.729 19.6348C152.728 19.6991 152.726 19.7588 152.719 19.8075C152.71 19.8752 152.71 19.9473 152.704 20.0194C152.699 20.087 152.688 20.1544 152.658 20.2176C152.617 20.3062 152.603 20.3908 152.599 20.4767C152.596 20.5178 152.596 20.5592 152.596 20.6016L152.544 20.8721L150.564 30.3134L150.407 31.0202L150.345 32.0499L149.473 36.5088L149.333 37.2069H78.7156L78.3752 36.8665L78.3141 37.1632H70.7576L66.5517 32.9312L66.9531 31.0202H64.5796L63.105 29.5281C61.2749 30.8608 59.0597 31.5593 56.7963 31.5176C54.3631 31.6134 51.9911 30.741 50.1996 29.0919L47.9047 26.7795L47.4073 29.1005C47.3463 29.4321 47.2677 29.7463 47.1804 30.0517L47.1019 30.3397L46.971 30.7584C46.9603 30.7948 46.9456 30.83 46.9274 30.8632C46.7975 31.2479 46.6431 31.6239 46.4649 31.9888C46.4696 32.0029 46.4696 32.0183 46.4649 32.0324C46.4421 32.0808 46.4158 32.1274 46.3863 32.172C46.2546 32.4327 46.1091 32.6861 45.9501 32.9312C45.9206 32.9758 45.8944 33.0225 45.8716 33.0708L45.7756 33.1755C45.5623 33.4814 45.3291 33.7728 45.0775 34.0481C45.0085 34.1171 44.9395 34.1819 44.8693 34.2456C44.7977 34.3107 44.725 34.3746 44.6499 34.4407L44.458 34.624C44.337 34.7245 44.2132 34.8215 44.0868 34.915C43.9825 34.9921 43.8765 35.0667 43.7687 35.1388C41.9704 36.2043 39.896 36.7114 37.809 36.596C34.9294 36.596 32.6258 35.7583 31.1686 34.2924L27.0674 30.1651C25.4293 31.0921 23.5744 31.5679 21.6923 31.5438C19.2665 31.6188 16.9088 30.7347 15.1305 29.0831L12.8357 26.7708L12.094 30.3397L11.9456 31.0464H4.22331L0 26.7882L0.218145 25.7586L4.86028 3.46413L4.99987 2.76607H12.7484L12.9491 2.95807V2.76607H65.1556L65.3476 2.95807V2.76607H72.9041L77.1274 7.02426L76.918 8.04517L76.6911 9.16209H78.8638L79.2042 9.50244C80.1602 8.94215 81.2461 8.64134 82.3542 8.62984C83.169 8.61375 83.9782 8.76852 84.7296 9.08413C85.4811 9.39975 86.158 9.86912 86.7171 10.4622L86.6036 10.3313L88.6542 12.3994C89.902 10.0522 92.7029 8.62984 96.5071 8.62984C99.4567 8.62984 101.63 9.38022 102.947 10.7414L104.43 12.2336L104.928 9.83396L105.076 9.13589H112.641L114.805 11.3087L115.111 9.8427L115.259 9.14463H130.146L130.547 9.54607C131.555 8.95109 132.709 8.6489 133.88 8.67346C134.585 8.64597 135.286 8.77491 135.935 9.051C136.584 9.32711 137.163 9.74354 137.632 10.2703C137.608 10.2429 137.584 10.2154 137.561 10.1884C137.519 10.1384 137.477 10.0896 137.433 10.0444L138.191 10.8025C138.851 10.1186 139.646 9.57695 140.523 9.21088C141.401 8.84479 142.344 8.66185 143.295 8.67346C143.8 8.64241 144.304 8.68538 144.793 8.79973L143.967 7.96667C143.855 7.84626 143.778 7.69643 143.748 7.53458C143.717 7.37273 143.733 7.2054 143.792 7.05207C143.853 6.89868 143.955 6.76554 144.088 6.66797C144.221 6.5704 144.378 6.5124 144.543 6.50073H145.206C145.385 6.48369 145.562 6.45749 145.738 6.42218C146.666 6.22726 147.538 5.82868 148.293 5.25519C149.048 4.68177 149.665 3.94781 150.102 3.10639C150.14 3.04131 150.174 2.97436 150.206 2.90571V2.86209C150.506 2.21581 150.689 1.52158 150.747 0.811496C150.762 0.590848 150.862 0.384259 151.024 0.233646C151.185 0.0829786 151.398 -0.000530049 151.62 2.53181e-06H151.69C151.822 0.0125715 151.95 0.0552845 152.063 0.124839C152.177 0.194448 152.273 0.289034 152.344 0.401409C152.972 1.01222 156.462 4.56358 156.462 4.56358C156.753 4.87631 156.732 5.2823 156.71 5.69308C156.696 5.94707 156.682 6.20292 156.741 6.43965C156.9 6.46814 157.061 6.48971 157.221 6.50431C157.376 6.5182 157.53 6.52577 157.684 6.52689C157.865 6.53067 158.041 6.59064 158.186 6.69854C158.331 6.80639 158.44 6.95684 158.496 7.12897Z" fill="var(--fill-0, black)"/>
<path id="Vector_2" d="M39.9378 9.99987H45.4526L42.3636 24.6504C41.7965 27.4252 40.7144 29.0134 39.074 30.139C37.4148 31.1018 35.5095 31.5569 33.5943 31.4479C29.9469 31.4479 26.4478 29.9209 26.0988 26.2124H31.6483C31.8228 27.085 32.6257 27.5823 33.8473 27.5823C35.4965 27.5823 36.2556 26.5876 36.5959 25.0257L36.9274 23.4114H36.8053C36.3184 23.9467 35.7277 24.3773 35.0692 24.6773C34.4107 24.9773 33.6982 25.1404 32.9747 25.1565C29.7636 25.1565 27.2156 22.5999 27.268 18.8565C27.3378 14.4936 30.1824 9.53739 34.9555 9.53739C35.86 9.47646 36.763 9.6758 37.5578 10.1119C38.3526 10.5478 39.0059 11.2024 39.4405 11.9981H39.5365L39.9378 9.99987ZM35.1997 21.0642C37.3202 21.0642 38.4981 18.621 38.533 16.518C38.533 15.1132 37.9833 13.6734 36.3603 13.6734C34.1439 13.6734 33.0183 16.1428 32.9834 18.2631C32.9834 19.6942 33.5332 21.0642 35.1561 21.0642M97.1098 21.5354C97.1098 22.469 96.3061 22.8442 95.2504 22.8442C93.5054 22.8442 92.921 21.9716 92.9122 20.75H87.4237C87.3278 25.3049 91.394 26.4305 95.0067 26.4305C99.6222 26.4305 102.615 24.4323 102.677 20.4447C102.677 17.2597 99.9626 16.2912 97.293 15.6716C95.242 15.2005 94.3435 14.8601 94.3518 14.0835C94.3611 13.3069 95.2774 12.9928 96.1759 12.9928C97.3014 12.9928 98.0688 13.3942 98.1479 14.4239H103.48C103.418 10.6194 99.9887 9.50251 96.4987 9.50251C92.2578 9.50251 88.9507 11.4308 88.8983 15.0782C88.8983 17.949 90.8355 19.0049 93.7584 19.7553C95.6346 20.2527 97.1265 20.4097 97.1098 21.5354ZM137.885 12.3646H137.789C137.552 11.5053 137.027 10.753 136.303 10.2324C135.58 9.71189 134.7 9.45432 133.81 9.50251C131.437 9.50251 129.989 10.6805 128.618 12.4605H128.523L129.029 9.99987H123.478L120.154 25.8983H125.957L127.702 17.3208C128.103 15.4535 129.055 14.1446 130.495 14.1446C131.934 14.1446 132.126 15.2964 131.829 16.7013L129.91 25.8983H135.712L137.458 17.3208C137.859 15.3313 138.81 14.1446 140.249 14.1446C141.689 14.1446 141.882 15.2353 141.585 16.7013L139.665 25.8983H145.468L147.545 16.4482C148.417 12.4605 147.082 9.46753 143.252 9.46753C142.186 9.46316 141.137 9.72603 140.199 10.2321C139.261 10.7382 138.466 11.4714 137.885 12.3646ZM1.06442 25.8983H7.05904L11.6925 3.60383H5.70655L1.06442 25.8983ZM19.1094 9.52865C23.1581 9.52865 27.0237 11.745 26.9626 16.7623C26.9102 22.2509 23.1756 26.3607 17.4689 26.3607C13.5423 26.3607 9.61575 24.1793 9.68551 19.1881C9.78151 13.8305 13.4638 9.52865 19.1094 9.52865ZM17.6348 22.469C20.1914 22.469 21.125 18.7605 21.125 16.5791C21.125 15.0172 20.6452 13.4902 18.961 13.4902C16.4306 13.4902 15.5667 17.4168 15.5667 19.4412C15.5667 21.0642 16.0204 22.469 17.6696 22.469M13.6906 3.60383L12.8181 8.06271H63.1572L64.0298 3.60383H13.6906ZM54.1784 9.52865C58.2272 9.52865 62.0927 11.745 62.0316 16.7623C61.9793 22.2509 58.2359 26.3607 52.5292 26.3607C48.6026 26.3607 44.676 24.1793 44.7546 19.1881C44.8767 13.8305 48.559 9.52865 54.1784 9.52865ZM52.7299 22.469C55.2866 22.469 56.2202 18.7605 56.2202 16.5791C56.2202 15.0172 55.7316 13.4902 54.0475 13.4902C51.5257 13.4902 50.6531 17.4168 50.6531 19.4412C50.6531 21.0642 51.1069 22.469 52.7648 22.469M66.0891 3.60383L65.2166 8.06271H71.0105L71.8831 3.60383H66.0891ZM61.447 25.8983H67.2496L70.5742 9.99987H64.7366L61.447 25.8983ZM79.9631 26.4305C79.0396 26.4961 78.1161 26.3031 77.296 25.8731C76.4761 25.443 75.7921 24.793 75.321 23.9961H75.225L73.4799 32.0412H67.6074L72.3193 9.99987H77.8341L77.3978 12.1202C77.9737 11.337 78.7197 10.6945 79.5796 10.2411C80.4396 9.7877 81.3911 9.53516 82.3628 9.50251C85.8531 9.50251 87.9036 12.4954 87.8426 16.3872C87.764 21.2823 85.2248 26.4305 79.9282 26.4305H79.9631ZM79.7362 14.005C77.4938 14.005 76.1151 16.8758 76.0802 19.0835C76.0802 20.6192 76.6212 22.3294 78.4623 22.3294C80.8619 22.3294 81.8479 19.1532 81.8741 17.0328C81.8741 15.5931 81.4553 14.005 79.7362 14.005ZM113.287 23.394H113.383L112.877 25.9158H118.391L121.717 10.0173H115.923L114.072 18.9001C113.698 20.7413 112.563 21.7099 111.132 21.7099C109.701 21.7099 109.386 20.3661 109.675 18.9612L111.551 10.0173H105.757L103.706 19.8338C102.833 24.1095 104.823 26.4131 108.157 26.4131C109.203 26.4029 110.229 26.1169 111.129 25.5837C112.03 25.0505 112.775 24.2892 113.287 23.3765V23.394ZM144.412 32.1198L145.284 27.6608H76.4728L75.6002 32.1198H144.412Z" fill="var(--fill-0, white)"/>
<path id="Vector_3" d="M150.65 14.3627C150.593 14.3583 150.538 14.3426 150.486 14.3165C150.434 14.2904 150.389 14.2544 150.352 14.2106C150.314 14.1668 150.286 14.1161 150.269 14.0613C150.251 14.0066 150.245 13.9489 150.249 13.8915C150.322 13.1144 150.23 12.3307 149.979 11.5917C149.727 10.8528 149.323 10.1752 148.791 9.6035C148.26 9.03178 147.613 8.57876 146.895 8.27413C146.176 7.96951 145.401 7.82015 144.621 7.83583C144.505 7.83583 144.395 7.78987 144.313 7.70804C144.231 7.62622 144.185 7.51524 144.185 7.39953C144.185 7.28382 144.231 7.17286 144.313 7.09104C144.395 7.00921 144.505 6.96324 144.621 6.96324C144.83 6.97677 145.04 6.97677 145.25 6.96324C146.799 6.79813 148.243 6.09791 149.332 4.98307C150.422 3.86823 151.088 2.40851 151.218 0.855178C151.227 0.745619 151.276 0.643425 151.357 0.569009C151.438 0.494593 151.544 0.453446 151.654 0.453799C151.712 0.458203 151.767 0.473912 151.818 0.500013C151.87 0.526115 151.915 0.562097 151.952 0.60589C151.991 0.649684 152.018 0.700421 152.036 0.755186C152.054 0.809951 152.06 0.867655 152.056 0.924986C151.983 1.70137 152.075 2.48434 152.325 3.22269C152.577 3.96103 152.98 4.63813 153.51 5.20972C154.042 5.7813 154.686 6.2345 155.403 6.53968C156.121 6.84486 156.895 6.99514 157.675 6.98069C157.79 6.98069 157.902 7.02667 157.984 7.10849C158.066 7.19031 158.111 7.30128 158.111 7.41699C158.111 7.5327 158.066 7.64368 157.984 7.7255C157.902 7.80732 157.79 7.85328 157.675 7.85328C156.017 7.88066 154.428 8.51926 153.212 9.64656C151.996 10.7738 151.239 12.3104 151.087 13.9614C151.078 14.0709 151.029 14.1731 150.948 14.2476C150.867 14.322 150.761 14.3631 150.65 14.3627Z" fill="var(--fill-0, white)"/>
</g>
<defs>
<clipPath id="clip0_0_340">
<rect width="162.78" height="37.2069" fill="white"/>
</clipPath>
</defs>
</svg>
