<svg preserveAspectRatio="none" width="100%" height="100%" overflow="visible" style="display: block;" viewBox="0 0 204.638 37.2068" fill="none" xmlns="http://www.w3.org/2000/svg">
<g id="Logo" clip-path="url(#clip0_0_301)">
<path id="Vector" d="M18.6035 37.2069C28.8781 37.2069 37.2069 28.8781 37.2069 18.6035V5.58108C37.2069 4.1009 36.6189 2.68134 35.5723 1.63469C34.5256 0.588049 33.1061 4.95911e-05 31.6259 4.95911e-05L19.5336 4.95911e-05V8.16137C19.5336 10.0236 19.6471 11.9528 20.6238 13.5378C21.323 14.6737 22.2584 15.6459 23.3664 16.3885C24.4745 17.1312 25.7293 17.6267 27.0457 17.8417L27.402 17.8993C27.5488 17.9495 27.6763 18.0444 27.7666 18.1707C27.8569 18.2969 27.9054 18.4483 27.9054 18.6035C27.9054 18.7587 27.8569 18.91 27.7666 19.0363C27.6763 19.1625 27.5488 19.2574 27.402 19.3076L27.0457 19.3653C25.1223 19.6795 23.3461 20.5899 21.968 21.968C20.5899 23.3461 19.6795 25.1223 19.3653 27.0457L19.3076 27.402C19.2574 27.5488 19.1625 27.6763 19.0363 27.7666C18.91 27.8569 18.7587 27.9054 18.6035 27.9054C18.4483 27.9054 18.2969 27.8569 18.1707 27.7666C18.0444 27.6763 17.9495 27.5488 17.8993 27.402L17.8417 27.0457C17.6267 25.7293 17.1311 24.4745 16.3885 23.3665C15.6459 22.2584 14.6737 21.3231 13.5378 20.6238C11.9527 19.6471 10.0236 19.5336 8.16137 19.5336H0.0223737C0.508853 29.3758 8.64134 37.2069 18.6035 37.2069Z" fill="var(--fill-0, #0E1534)"/>
<path id="Vector_2" d="M0 17.6733H8.16132C10.0235 17.6733 11.9527 17.5598 13.5377 16.5831C14.7767 15.8197 15.8197 14.7767 16.5831 13.5377C17.5598 11.9527 17.6733 10.0235 17.6733 8.16132V0H5.58103C4.10085 0 2.68129 0.587999 1.63464 1.63465C0.587999 2.68129 0 4.10085 0 5.58103L0 17.6733ZM43.2111 1.86034C43.2111 2.35374 43.0151 2.82692 42.6662 3.1758C42.3173 3.52469 41.8442 3.72069 41.3508 3.72069C40.8574 3.72069 40.3842 3.52469 40.0353 3.1758C39.6864 2.82692 39.4904 2.35374 39.4904 1.86034C39.4904 1.36695 39.6864 0.893764 40.0353 0.544882C40.3842 0.196 40.8574 0 41.3508 0C41.8442 0 42.3173 0.196 42.6662 0.544882C43.0151 0.893764 43.2111 1.36695 43.2111 1.86034ZM196.927 11.2588C202.128 11.2588 204.638 14.8911 204.638 19.0983V27.0001H199.195V20.0359C199.195 18.129 198.499 16.5552 196.504 16.5552C194.509 16.5552 193.844 18.129 193.844 20.0359V26.9991H188.402V20.0359C188.402 18.129 187.736 16.5552 185.74 16.5552C183.745 16.5552 183.049 18.129 183.049 20.0359V26.9991H177.608V19.0973C177.608 14.8902 180.116 11.2579 185.317 11.2579C188.16 11.2579 190.215 12.3778 191.153 14.2242C192.15 12.3778 194.328 11.2569 196.927 11.2569V11.2588ZM167.828 22.1567C169.581 22.1567 170.338 20.5521 170.338 18.6444V11.8634H175.779V19.3104C175.779 23.7603 173.179 27.454 167.828 27.454C162.476 27.454 159.876 23.7612 159.876 19.3104V11.8634H165.318V18.6444C165.318 20.5512 166.074 22.1567 167.828 22.1567ZM151.874 27.4838C148.457 27.4838 146.25 26.3034 144.95 24.0031L148.88 21.793C149.425 22.7613 150.24 23.2459 151.601 23.2459C152.72 23.2459 153.234 22.8524 153.234 22.3678C153.234 20.5214 145.252 22.3985 145.252 16.5264C145.252 13.68 147.67 11.3797 151.783 11.3797C155.38 11.3797 157.346 13.1349 158.223 14.8307L154.292 17.0705C153.96 16.1627 152.931 15.6176 151.903 15.6176C151.117 15.6176 150.694 15.9506 150.694 16.4045C150.694 18.2816 158.676 16.5561 158.676 22.2469C158.676 25.4253 155.562 27.4838 151.874 27.4838ZM132.859 33.9624H127.417V19.4015C127.417 14.7693 130.894 11.4095 135.732 11.4095C140.448 11.4095 144.046 15.012 144.046 19.4015C144.046 24.2449 140.841 27.454 136.034 27.454C134.915 27.454 133.797 27.121 132.859 26.6057V33.9624ZM135.732 22.3381C137.455 22.3381 138.604 21.0061 138.604 19.4313C138.604 17.8277 137.455 16.5254 135.732 16.5254C134.008 16.5254 132.859 17.8277 132.859 19.4322C132.859 21.0061 134.008 22.3381 135.732 22.3381ZM121.965 10.2598C120.181 10.2598 118.7 8.77617 118.7 6.99024C118.7 5.20431 120.181 3.72069 121.965 3.72069C123.749 3.72069 125.231 5.20431 125.231 6.99024C125.231 8.77617 123.749 10.2598 121.965 10.2598ZM119.244 11.8634H124.687V27.0001H119.244V11.8634ZM108.802 27.454C104.085 27.454 100.487 23.8217 100.487 19.4015C100.487 15.012 104.085 11.3797 108.802 11.3797C113.519 11.3797 117.117 15.012 117.117 19.4015C117.117 23.8217 113.519 27.454 108.802 27.454ZM108.802 22.3381C110.526 22.3381 111.674 21.0061 111.674 19.4313C111.674 17.8277 110.526 16.4957 108.802 16.4957C107.079 16.4957 105.93 17.8277 105.93 19.4313C105.93 21.0061 107.079 22.3381 108.802 22.3381ZM90.2108 34.4163C86.4622 34.4163 83.7405 32.7513 82.3499 29.7841L86.8547 27.3628C87.3384 28.3925 88.2453 29.452 90.1196 29.452C92.086 29.452 93.3855 28.2102 93.5371 26.0308C92.8115 26.6671 91.6619 27.1508 89.9392 27.1508C85.7357 27.1508 82.349 23.9119 82.349 19.3708C82.349 14.9823 85.9478 11.4095 90.6647 11.4095C95.5025 11.4095 98.9795 14.7702 98.9795 19.4015V25.3955C98.9795 30.8445 95.1993 34.4163 90.2108 34.4163ZM90.5736 22.0358C92.206 22.0358 93.4459 20.9149 93.4459 19.2499C93.4459 17.6156 92.2069 16.5254 90.5736 16.5254C88.9709 16.5254 87.7012 17.6156 87.7012 19.2508C87.7012 20.9158 88.9709 22.0348 90.5736 22.0348V22.0358ZM73.118 27.454C68.4011 27.454 64.8022 23.8217 64.8022 19.4015C64.8022 15.012 68.4011 11.3797 73.118 11.3797C77.8339 11.3797 81.4328 15.012 81.4328 19.4015C81.4328 23.8217 77.8349 27.454 73.118 27.454ZM73.118 22.3381C74.8416 22.3381 75.9903 21.0061 75.9903 19.4313C75.9903 17.8277 74.8416 16.4957 73.118 16.4957C71.3944 16.4957 70.2456 17.8277 70.2456 19.4313C70.2456 21.0061 71.3944 22.3381 73.118 22.3381ZM54.8922 6.56701V21.8534H63.9028V27.0001H54.136C50.6897 27.0001 49.2991 25.1835 49.2991 22.3074V6.56701H54.8922Z" fill="var(--fill-0, #0E1534)"/>
</g>
<defs>
<clipPath id="clip0_0_301">
<rect width="204.638" height="37.2068" fill="white"/>
</clipPath>
</defs>
</svg>
